<?xml version="1.0" encoding="UTF-8"?>
<svg id="Layer_1" xmlns="http://www.w3.org/2000/svg" version="1.1" viewBox="0 0 357.7 602.6">
  <!-- Generator: Adobe Illustrator 30.0.0, SVG Export Plug-In . SVG Version: 2.1.1 Build 123)  -->
  <rect x="151.6" y="7.7" width="2.4" height=".9" transform="translate(12.6 69.4) rotate(-26.6)"/>
  <g>
    <path d="M351.3,318.6c.4,0,.7,0,.9-.4,1.3-2.4,3.4-10.5,2.7-13.1-.9-3.4-5.8-4.9,2.6-6.2-.1-.6-.2-1.2-.3-1.8-.8,1.2-2.8,2.1-4,1.8,0,0,.4-.8.4-1.1-.4-2.7-13.1-4.1-15.7-4.1l.5-3.8-1,3.8c-1.6.1-3.2.3-4.8.8-2.1.6-7.7,4-5.6-.1l2.8-.6-2.4-.7,7.5-14c1-1.9-.3-3.9,2.5-4,.2-.8-.9-.2-1-.7,0-.6,1.2-4.1,1.5-5.2,1-3.7,1.9-7.5,2.9-11.4,2.3-8.7,4.7-12.7,2.6-22.1-1.5-7.1-5.9-15.5-12.4-19.3,3-4.6,6.7-7.8,11.5-10.6-.6-.8-1-.9-1.9-.5-.3.1-4.6,3.6-5,4.1-1.3,1.2-4.1,5.7-5.5,6.1l-4.8-1.8c1.7-5.4,6.7-10.5,11-14.1,0-.6-.8-.8-1.7-.2-3.9,2.7-5.3,7.2-8.4,10.3-.5.5-.6.9-1.4.7-2.1-5.7-5.9-10.8-8.1-16.5-3.8-1.9-.7,1.2-.1,2.4,2.1,4.1,3.4,7.6,6,11.3.9,1.3,2,2.5,1.7,4.3l-2.8-1,.4-3.3c-1.7-.4-.6,1.6-1.2,2.4-.6.9-4.3.3-5.5.4,2.5-4.4-.5-1.3-2.4-.7-2,.7-4.2,0-5,2.2l-.2-1c-1.6-.6-1.9.8-2.3.9-1.3.4-3,.4-4.3.9-11.5,4-18.1,15.1-24.5,24.4-.7,1-1.6,4.6-3.1,4.4l-1.8-.9c-.4,1.3,1.8,1.6,1.9,2.1,0,.4-3.2,6.8-3.6,7.3-.4.5-.3.8-1.1.6,0,2.5-3.2,6.4-3.4,9.3l2.4,9.4c1.8.5.7-2.2,1.9-2.4.6,2.1.2,4.3.5,6.4.6,4,2.2,6.4,0,10.2-.3.6,0,.8-1.1.6l-.6-4.9-1.3-3.7c.4,5.4,3,10.7,1,16.1-.8,2.1-1.9-1.4-1.9-2.4,0-1.9,2.6-6.1.9-7.7-.2-.1-.6.3-1,0-1.7-1.8-3.7-6.5-3.8-9-.2-4.2.3-2.9-1-6.7-1.1-3.2-1-7.1-1.3-10.5.9-2.2.2-4.6.4-6.8.1-.9-.2-.8,1-.7l5.3,27.8.8-.7c-3-13.6-6.2-27.2-7.6-41l1.8,5.1,2.4,3.4,4.4,8.3c0-4.8-6.4-11.5-7.5-17.2-2.2-10.7,0-21.6-2.5-32.6-.8-3.6-2.3-7.1-3.3-10.6-3.1-11.7-5.4-24.4-12.6-34.4,8.4-4.1,3-15.2,4.4-22.4.6-3.3,3.6-6.9,4.9-9.9,3.8-8.7,4-20.6,0-29.3-.3-.6-.9-.8-.7.2.3,1.4,1.4,3.3,1.8,4.9,1.6,6.8,1.6,13.5-.6,20.2-1.9,5.8-6.6,10.4-6.7,16.6,0,5.3,2.2,11.4-.7,16.4-3.9,6.9-10-5.4-11.4-8.5-.9,2,5.1,8.9,4.6,9.6-1.7-.7-2.9,0-3.6-1.9-.7,1.7-4.2.8-6.2,1-3,.2-4.1.2-7.2,0-.2,0,0,.8-.9.9-6.6.8-20.3.2-24.1-6.2-3.7-6.3,1.2-5.4,5.1-7.1,1.2-.5,4.4-3.1,5.1-3.1,1.7,3.4,6.3,3.1,9.5,2.4l.3,1c.7.2.5-.9,1.2-1.5,1.1-.9,2.7-1.1,3.6-2.1l-7.5,2.6c-5.5.3-9.5-3-5-7.9.5-.6,1.5-.5,1.4-1.2-2.7,0-4.1,3.5-4.4,5.7-3.1,0-5.5-.2-8.1,1.8-1.5,1.1-2,2.9-3.7,3.5-4.3,0-9.8-2-11-6.5-1.6-6.2,4.9-16.8,10.6-19.4,6.7-3,7.1,2.2,11.7,4.8,2.2,1.2,6.5,1.5,6.4,3.9l2.4-.5-1.4-1.4c4.7-3.1,14.1-1.9,13.9,5,0,2.6-1.3,2.4-1.8,3.2-.1.2.3,2.8-1.5,3.5-.3,1.2.8.5,1.1.2.4-.4,2.5-4.5,2.7-5.1,1.6-7.8-5.6-10.2-11.9-8.8l1.9-3.4c-4.8,4.4-4.5,6.5-11,2.6-4.9-2.9-5.3-8.7-13-4.8-11.8,6-17.6,27.9,1.5,27.1-.8,9.3,10,12.2,17.5,12.5,4.3.2,21.6-2.1,23.8-.8.5.4.8,2,.9,2.7v-2.4c.5-.4,4.6,1.3,5.2,1.7,3.3,2.3,10.6,22.9,11.4,27.4.1.7.2,1.4.1,2-.5-.1-1.1-1-1.4-1.4,1,2.5,2.5,5.7,3.1,8.2.5,1.9.8,3.8.7,5.8l1.4-.5c1.7,7,2.4,14.4,2.1,21.6,0,.3-.3,1.4-.7.7v-2.4s-1,0-1,0c.4,3.9,1.2,7.9,1.2,11.8,0,.7.2,1.2-.8,1.4-1-3.2-1.4-7-2.6-10.1-1.1-2.7-3.4-5-4.6-7.8-1.4-3-2.2-6.4-3.3-9.4,2.9.4,3-2,2.9-4.3-1,.5-.4,3.4-1.7,3.8-1.4.5-2.2-2-2.7-3-4.1-9.1-4-21.2-8.5-28.6,1.3,4.7,1.7,5.7,1.9,10-.7-4.2-3.5-8.1-4.2-12.2,0-.5-.4-1.2.4-1.1.2,1.3,1.3,2.3,1.9,3.4-.2-.9,0-1.9-1-2.6,1.4-.2,4.2.9,5.6,1.6,5.3,2.7,6.3,9.8,9.7,14-2.5-6.2-5.2-12.3-10.1-16.8,0,.5,0,1,0,1.4-1.3,0-8.6-3-7.2-4.8,2.4,1.2,5.3,1.6,7.2,3.4,0-1.5-.4-2.1-1-3.4l-.7,1.4c-3.8-1.6-7-2-7.5-6.7h-1.4c1.3,2.3-.2,1.6-.7,2.4-.2.3.4,1.2-1.2,1.7,6,3.9,5,11.4,7,17.4,1.5,4.3,4.3,8.6,5.7,13,1.7,5.5,2.1,11.9,3.8,17.8,1.8,6.3,5.4,12.1,6,18.7.8.1.5-1.1.5-1.7-.5-6.2-5.2-13.1-6.2-19.4,3.2,4.1,5.8,7.9,7.4,13,3.4,10.4,5,20.9,5.5,31.9l.2,13.7c-4.3,2.2-11,4.3-12.7,9.1-1.2-.4.6-3.5-.9-3.8l-.5,4.8-1.9-.5c0,.8,0,1.5-.4,2.3-.8,1.7-5.6,9.8-6.6,11.1-.3.3-1.5,1.1-1.6,1l-.7-4.8c-2.2,1.2.3,4.1-.5,5.7-.4.8-4.3,3.4-5.1,2.9,5.5-15.4-6.1-27.6-15.4-38.1-4.5-5.2-10-9.7-13.6-15.6-7.1-11.7-.8-15,4-25.2,5.4-11.4,10-28.6,8.2-41.1-.5-3.1-1.6-7.6-3.8-9.9.5,2,1.5,3.7,2.2,5.8,3.8,12.8-1.8,33.4-7.4,45.3-1.6,3.3-6.2,9.4-7,12.2-3.4,11.3,14.9,26.3,21.4,34,6.5,7.7,13,17,11.9,27.6-.9,8.3-5.5,8.7-12.1,12.2-2-1.9-5.6-3.7-7.5-5.5-.8-.8-1.2-2.1-2-2.8-2.5-2.2-16.7-4.2-21.4-6.4-.9-.4-.8-1.6-1.9-2-3.9-1.3-11.1-1.2-15.2-1.5-1.7-.1-3.6-1-5.3-1-5.8,0-12.9,2-18.2,4.4-.7.3-5,2.4-5.1,2.6-1.2,1.6.2,2.1.7,3.1.2.4-.2.9-.2,1,0,0,.6-.1.8,0,.3.3.2,2.9.1,3.5-.5,2.5-8.1,4.8-10.5,4.1-.1,0,.8-1.1,1-1.4-2.3,1.2-4.9,1.6-6.7,2.7-.9.6-1.9,3.7-3.2,3.9-.7.1-2.5-.5-3.8-.4-2,.2-4,1.7-6.5,1l1.9,1.4c-.6,0-1.4.3-1.9.7-.9.8-4.9,4.7-5.5,5.5-1.7,2.4-3.1,8.2-4.4,9.5-2.3,2.5-8.8,2.6-10.5,6.7-1.1.2-.7-.5-.7-1.2-.1-1.6.2-3.1-.1-4.7-.5-2.4-3.6-6.3-4.1-8.9-.5-2.5.9-5.3.9-7.8l3.1,3.4c1,.2.7-.5.7-1.2-.1-3.7-3.1-9-3.3-12,0-1,.4-2,.9-2.9l-.7-.7-1.1.4-2.9-9.5c8.8-4.3,18.6-6.8,24.9-14.7,4.4-5.6,6.5-12.3,1.4-18.2,4.2-2.6,8.2-5.4,11.5-9.1,1.1-1.2,6.6-8.1,5.3-9.4-6.7.1-13.1,2.6-19.6,3.3-.4-3.5-2-10.5-5.3-12.2-1.1-.6-3.9-.5-4.3-1.5,4.8-14,13.9-35.3-6.3-41.2,5.3-4.7,8.1-11.4,11.3-17.5-1-2.2-7.2-.1-8.9.7-5,2.4-8.3,6.6-11.9,10.5-.4.4-.3.4-1,.3,0-2.1-1.9-3.2-2.8-4.6-1.5-2.4-2.4-5-4-7.5-1.4-2.1-9.6-12-11.7-11.8l-.4.4c-2.3,3-3.2,6.6-4.3,10.1-1.4-2.1-9.5-10.6-11.4-10.4-1.3.1-5.2,3.7-6.4,4.9-2.7,2.6-7.1,7.2-9.2,10.2-.8,1.2-4.6,8.2-4.4,9,.9.6,8.1,4.4,7.2,5.6-8.3,3.9-14.9,10.9-20.6,18l9.1,7.2c-.6,1.5-2.1,2.7-1.9,4.5l2.2-3.9c5.4,2.8,10.8,4.9,17,4.3.3.3-1.9,8.5-2.2,9.1-.8,1.7-5.3,4.7-6.6,6.2-.5.5-.4.8-.3,1.5,3.2-.5,6.5-.5,9.7-1.1,5.5-1.1,13.5-5,18.8-4.9.5,0,2.1,0,1.7.9l-3.8,3.6c1.4.6,4.6-4.1,5.3-3.4l-1.9,4.3,2.6-2.9c1.4,2.2,2.8,3.8,5.7,3.4,1.3-1.1.8-3,1.5-4.3.6,1.4,2.8,1.3,3.4,1.9.1.1.1,2.6.4,3.5.7,2.7,2,5.3,2.8,8l14.4,4.1c1.4,1.3,11.9,4.9,11.9,5.9-1.8,1.6-.6,3.8-1.9,6h1.9c-.6,2.2-3.1-.6-3.8-1.7-.9-1.2-.9-3-2.4-3.6.8,2.9,3.1,4.9,4.4,7.6,2.1.5,2-2,3.8-2.6,3.9-1.4,6-.7,7.3,3.3,1.3,3.9-.2,7.6-2.3,10.9-4.6,7.3-14.6,11.6-22.4,15-.7.3-3.7,1.7-4.1,1.3,0-1.5-1.7-3.5-1.8-4.6-.7-7.2,2.8-12.7-1.5-20.7-1-1.8-2.7-3.1-3.5-4.6-1.3-2.5-.8-4.5-3-7.1-.6-.7-1.8-.9-2.1-1.8-.8-2.1-.7-6.1,0-8.3-7.1.8-12.5,6.5-19.4,8.2l-.3-1h-.5c0,1-.5,1.1-1.3,1.3-6.6,1.8-26.5,2.4-32-1.3-.5-.3-2.1-1.9-2.4-2.4-2.7-4.2,1.8-15.8,2.6-20.9,0-.5.4-2.2-.4-2.1-1,11.3-11.3,26.7,7,28.7,11.2,1.2,24.7.6,34.9-4.3,3.4-1.7,6.4-4.6,10.4-4.7l.5,6.7c-11-4.2-17.3,8.9-22.3,16.3-.5.7-1.7,1.4-1.9,2-.6,1.3.6,1.6.8,2.7.1,1-.5,1.9-.5,2.9.3,6.3,4.2,10.8,9.6,13.7-3.2,4.7,4.4,4.3,7.5,5.7,5.1,2.2,12,10.8,13.2-1.3l3.8-.6c0,7.8,4.3,15.2,4.3,23l-1.4-3.7c-.2-1.3-.6-1.1-.6,0,.1,2.2,1.2,3.4,1.5,5.3.6,5-1.1,14-1,19.7,0,2.1,1.3,7.4.9,9-.5,1.9-6.7,1.5-7.9,2.7-1.8,1.9,3.4-.2,3.1,1-3.8.9-7,4.2-9.6,7-.7.7-1.1,2.1-1.6,2.5-.5.4-1.5.4-1.7.7-.2.4,0,1.3-.4,1.8-1,1.5-2.8,2.8-3.3,4.8-.9,3.5-.4,14-.3,18.1.1,4.7,1,10.1,1,14.8,0,3.6.3,8.6-3.9,9.9l-1.1-9.2-4.2-15.7c.9,6.9,3.4,13.5,4.3,20.4,0,.8.6,4.9.5,5.2,0,.1-1.6,1.3-1.7,1.3h-9.6c-.3,0-1.2-.9-1.2,1,4.4-.5,8.6,1,12.9,1,1.3,1.2-4.5,2.8-4.9,2.9-.4.2-.5.8-.8.9-2.8,1-6,1-8.7,2.2-.2,1.2.8.6,1.5.6,1.1-.1,1.5-.4,2.9-.2,1.3.2,2.5,1.3,3.7,1.3-.8-1.6-2.1-1.3-2.9-2.4,2.9.5,4.8-2.2,7.7-1.9.3,1.7-1.9,1.6-2.4,2.2-.7.9,0,2.2-2.4,2.1.3.6.3.6,0,1.2-.6,1.3-5.4,6-6.7,7.4.1,0,.7-.2,1.2-.5,1.5-1,3.2-3.7,4.8-4.8l.7,1.4c-.4-2.3,5.3-8.6,7.1-9,.7-.2,1.4-.1,2.1-.1.5,5,.9,10,2.4,14.9-7.4-.7-13.3,4.8-20,7.1-2.5.9-5.1,1.2-7.6,2-.7-.4,0-.8.2-1.2,1.6-2,3.6-3.8,5.3-6-.4.3-1.1.5-1.7,1-1.7,1.2-3.6,4.9-5.5,6-2.5,1.3-14.1,1.1-17.4.7-5.9-.7-12-2.7-16.6-6.4,5.6-6.5,11.5-13.2,19.9-16.1,6.4-2.2,15.3-2.3,22.1-2.4,1.9,0,8,.8,9.4.3.2,0,.8-.7.2-.7-7.2,0-14.5,0-21.6.4-14.9,1-20.8,6.6-29.9,17.6-.4.4-1.3.7-1.3.8-1,1.7,1,1.3,2.1,1.8,4.4,2,7.8,4.2,12.7,5.1,6,1.1,13.2,1.1,19.2.2l-2.4,3.8c3.9-.7,29.9,1.8,31.4,3.8.5.8.5,6.9.5,8.2-.3,4.4-1.9,9.8-2.1,14.1-.5,10.4,4.6,24.7,4.7,35.6-.6,2.6,1.3,11.2-.9,12.4-1.7,1-11.6,2.6-12,4.4l3.6,5.5c.5-1.6-2.5-4.2-1.6-5.7,2.7-1.2,5.7-1.9,8.6-2.7,1.3-.4,3.1.2,3.7-1.4,0-.2.2-3.9.2-4.3-.2-15.3-5.7-30.4-4.8-45.6.4-6.7,2.5-13.7,1-20.4.4-.3,5.5.3,6.2.7.7.4,2.8,3.7,3.6,4.5.5.5,1.1.4,1.2.5-.1-.1-.1-.7-.5-1.2-.7-1.1-2.5-2.2-3.4-3.4,4.1-.7,4.8,4.5,7,7l-.2-1.9,1.4-1c3.7,2.4,5.1,6.9,5.7,11-.6.6-3.2-2.9-3.6-3.4-.8-1.1-2-3.8-2.4-4.3-.5-.5-1.2,0-1.7-.2-.2-.1-1.6-2-2.4-2.6,2.1,2.9,4.5,5.4,6.4,8.2.6.9,3.8,6.3,4,7,.3,1.5-.3,5.7-.5,7.4-.5,3.6-1.9,7.1-2.7,10.7,0,1.2,2.6,2.6,3.3,3.1-.8-1.2-2-2.6-1.9-4,.1-4.3,3.8-10.4,2.4-15.4l.9-.2c3.4,6.1,7.8,11.5,12.5,16.7l7.7,15.8c.1.9.2,1.6-.5,2.4-.5.6-5.4,3.6-6.4,4.2-1.2.6-2.3,1.4-3.7,1.4.9-3.8-1.4-7.4-3.4-10.6.6,1.3,2.1,5,2.3,6.1.2,1.2-.3,6.3.8,6.4,1-1.3,2.5-1.3,3.8-2,1.6-.9,4.6-3.7,5.8-4.2,1.4-.6.2,1.9,0,2.3-.5.8-3,2.9-3.1,3.2-.1,1.9,3.1-1.6,3.1-1.7.4,0,.3.5.2.7-.7,1.4-3.7,3.5-4.8,4.8-.9,1.1-1.6,3.3-2.6,4.1-1.6,1.2-4.1.5-5.1,1.6l-3.3,15.6-1.2-.4-4.1.6,8.9,10.3.3,3.8c.6.2,1.5-.5,1.8-.4.9.3,3.5,6.1,4.4,7.1-1.1.1-1.4-.9-2.3-1.3-2.5-1-5.4-.5-8-.2-10.5,1.2-20.6,5.1-30.9,6.8,2.1-4.2,4.7-8.1,7.7-11.8l-4.8-15.4-3.4-6c1.6,4.9,3.8,9.6,5.3,14.6.7,2.5,2.1,5.2.9,7.6-1.6,3.2-5.6,7.8-7.6,11.1-.4.6-.6.9-.5,1.7,11.2-2.9,22.3-6.6,33.8-8.2,8.4-1.6,13.2,5.2,18,10.8.5.6,1.8,1.1,1.9,1.5.2.5,1,6.1.9,6.5-.4,2-3.3,3.7-3.3,7.3,0,8.7,8.4,15,16.7,13.3,1.1,3.8,5.2,5.6,4.4,10,.8,0,.4-1.1,1.3-1.4.6-.2,1.4,0,2.1,0l-1-1.2c.9-.4,1.1-.6,1-1.7l2.9,1-.5-3.4c1,.7,2.1,1.7,2.9,2.6.7.8,1.5,3.7,2.9,2.9.8-.5,0-1.1-.3-1.6-1.1-1.8-2.8-3.5-2.6-5.8,1.6-.4,2.6.7,4.1,1,2.8.5,5.9-.1,8.8.5.3,1.9,1.2,3.5.6,5.4l2.3,1.3-1.4-7.2,4-.9c2,2.2,4.1,4.5,5.1,7.3l1.2-.2c.6-.9-4.1-5.8-4.5-7-.4-1.2,2.5-.7,1.9-1.9-.5-1.1-7.9-5.3-9.6-7.2-2.4-2.7-3.4-8.5-5.3-11.7l1.2-.5,1.2,2.4c-.5-3.4.4-4,3.7-4.3,5.5-.4,8.1,4.3,11.9,7.1.8.6,1.6,1.5,2.6,1.5.6-.7-3.5-10.3-3.4-12h7.4c5.3,0,8.6-3.4,15.4-3.3,6.7,0,11.7-7.3,19.3-7.6,3.6-.1,9,1.4,11.1,4.4-4.2,4.2-5.2,9.6-12.5,8.9-.2,1.3,1.6,2.6.9,3.8-5.4,3-11,6.5-16.7,8.9-.9.4-1.9.2-2.8.5-1.5.5-2.3,2.7-4.1,3.1-1.9-.8.3-6.7-1.9-6.2l-3.6,7c-1,.7-5-1.4-5.3,0-.2,1.3,3,2,3.8,2.2-2.1,4-3.7,0-5.9-1.6-1.4-1-7.3-4.4-4.7,0,1.1,1.8,4.3,3.7,5.8,5.3.5.5,0,1.2.7,1.7,1.1.9,3.5.8,3.6,1,.2.2,0,1.8.1,2.5.9,3.1,7.2,0,9.2.4,1.3.3,1.3,2.9,3.9,3.3.5,0,3,.4,2.7-.7-1.6-1.4-4.3-.1-4.3-3.1,2.1.2,4.2-1.7,6-1.9,3-.4,6.9,1.1,10.5.4.6-.1,6.2-2.6,7.4-3.1,2.9-1.3,5.2-3.7,8.8-3.5.3.3-3.2,5-3.5,5.9-.5,1.4.3,2.2,0,3.2-.4,1.2-3.5,3.1-.3,2.9-.2-1.7.5-3.1,2.4-2.9.6,2-1,1.4-1,2.9,3.6,1.1,3.8-3.5,5-4.8.5-.6,1.4.3,1.9-.4.8-1.2,1.6-6.1,2.7-8.4,1.9-3.7,5.1-7.4,7.1-11.1.8-.5,2.7.6,4.1.8,8.4.8,16.8-6.7,24.5-8.6,5.8-1.5,8.4-1.7,14.1-4.6.8-.4,2.9-2.4,2.3-.1-.3.9-3.2,4.5-.7,3.6,1.2-.4,2.1-2,3.7-1.8,0-1.4-3.5,1-2.9-.7.5-1.3,2.1-3.3,3-4.6.7-1,.1-1.8,2.5-2.4.9,1.7.7,3.6.7,5.5l-1.5.7c.6,0,1.2.2,1.4.8.6,1.7.6,5.2,1.4,7.3,1.3,3.7,4.8,6.4,5.4,10.3,2.5,1.6.7-2.7.9-4.7.1-1,1-2,1-2.1,0,0-.8.1-1-.3-.6-2.3.4-7-.1-9.9-.5-2.8-4.2-5.3-5.6-7.8l1-.5c-2.1-2.5-1.8-4.7-.5-7.4-.3.2-1.3,1.1-1.4,1-.3-6.7-2.5-12.9-4.8-19.2h18c.1,0,.7-.7,1.2-.5l-.2,2.4,2.6-2.4c.5,2-.8,5.7-3.3,4.5-.8-.4-.3-1.2-1-1.1l-1.4,1.7v.9c1.8-.5-.7,3.2-1,3.3-1.8,1.4-8.4,1.6-8.9,2.2l.2,2.2,2.4.2c.3.3-.7,2.4-1,2.9.5-.6,2.1-2.3,2.6-2.4,5.6,0,11.2.4,16.6-1-1.4-2-1.8-3.3-1.9-5.7.3-.3,3.7.9,4.3,1.2.6.3,6.8,4.8,7.1,5.1.6.7.1,1.7.2,1.7.3.3,1.8.4,1.9.5.2.3-.7,1.7-.7,2.3-.2,2.7-.3,5.1-2.2,7.5-.7.9-3.1,1.9-2.9,2.9l.9.7.5-1.2.7-.2,2.6,3c-1.9,2.1-4.5,4.4-4.8,7.5l16-.9c1.8-3.9,1.5-8.4,2.2-12.5l2.8,1.5c.8,1.1-1.8,3.7-.2,4.7l1.7-2.7c.9-.4,1.7,1.2,2.8.2.3-2,2.5-11.7,1.1-12.6-1.9.8-2.6-.8-3.7-1.1-2.9-.8-5.7.4-7.3-3.7,1-3.8,1-6-2.7-7.8-1-.5-7.1-2.2-8.2-2.4-1-.1-3.3,1-4-.5-1.4-3-.6-9-.9-12.4-.9-10.1-3.5-19.9-3.9-30l1.4,1c.1-3.6-.2-7.2,0-10.8.2-5.2,1.5-7.2-.1-12.8-.8-2.6-3.8-6.8-3.2-9.2,0-.4,1-.1,1-1,0-1.4-.7-4.7-1.1-6.1-.3-1.1-1.4-1.8-1.3-3,.2-2.9,5.2-11.1,8.2-12.5l-1-.5,9.1-8.4c-1.9-.2-3.1,1.5-4.6,2.3-3.7,1.9-7.5,3.7-11.2,5.6-1,.9-.3.9.5.5,3.1-1.4,5.9-3.3,9.1-4.6l-2.1,2.7c-1.5,1.2-3.6,2.3-5.5,2.8-2.3.5-4.1-.3-6.3.8-1.2-4.1-.7-6.7.1-10.7,1.3-5.8,2.8-8.3,4.9-13.3.9-2.2,1.2-4.7,2.1-6.9-.2-.7-2.2-1.3-2.6-2.2-.5-1.1,0-2.6-.3-3.3-.2-.4-4.8-3.3-5.7-4.2-5.1-4.8-6.2-12.5-11.5-17.3v-.7c.7,0,1.2-.4,1.7-.9,10.6-11.3,2.7-20.5-1.2-32.4-.6-1.9-2.6-8.2-2.7-9.7-.1-2.5,2.1-3.6,3.1-5.3,3.8-6.1,2.7-11.5-4.7-13.1-1-1,3.4-2.6,4.2-1,1.6,2.5,8.5,2.3,10.1,3.6.1.1,1.5,3.4,1.5,3.6.1,1-1.6,1.4-1.4,2.5l2.3-1.8-.9-3.5c4.4.8,3.1,3.2,3.8,6.7l-1.9.2c2.1,2.2,4.5,3.9,5.7,6.8.1.7-3,4.8-3.7,5.7-.5.6-1.7,1.1-1.8,1.3-.4.7,0,2.4-.7,3.1-.6.6-2.6.6-3.5,1.5-.7.7-1.3,2.5-2.4,3.3-.3,2,1.7,2.5,1.7,2.8.2,1.1-2,4-1.9,5.8.1,2.1,1.3,4.5,1.1,6.8,6.5,4.7,13.3,2.5,20.3,1.1,2.6-.5,9.3-1.3,11.1-3.3,1.3-1.5,3.9-13.6,4.7-16.4.9-3.3,2.3-6.6,2.5-10,0-.7-.6-1.6-.3-2.2.3-.5,6.1-3.2,6.8-4.8l.5,1c3.6-3.2,4.9-8.1,9.2-10.5h.8c.7,1.4,4.6,2.1,6.4,2.9,0-.5.2-.9.3-1.4-1.6.3-6.9-1.7-6.4-2.5ZM353.1,308.6c.3-.6-.3-1.3,1.1-1.1,0,2.4-.5,6.1-2.4,7.7-.3-2.7.2-4.3,1.3-6.6ZM268.1,263.9c-1.3-1.8-2-7.6.7-4.8l-1,.2c-.4,1.4,1,.9,1,1.9,0,.8-.2,2-.8,2.7ZM204.5,137.2c-.5,1.3-6.6,3.9-7.2,3.4.7-3,4.6-3.6,7.2-3.4ZM241,187.1l-2.6-5.3c-.5-2-1.6-4.1-2.1-6.1-.1-.5-.5-1.7.4-1.6.7,1.7,1.2,3.5,1.8,5.1.2.5.4,1.6,1,1.6,0,.4,0,.7,0,1.2,0,1.7,1.8,3.2,1.4,5.1ZM245.3,199.6l4.3,11.5c-2.7-3.1-4.2-7.4-4.3-11.5ZM255.4,223.6h-.5l-.5-2.9h1s0,2.9,0,2.9ZM97.8,187.1c-1,3.8-3.3,7-6.3,9.6-1.2-1.1-2.1-2.5-3.1-3.8.4.8,2.2,4.5,2.2,4.9l-3.8,3.7c-2.5-1-10.9-6.8-10.9-9.3,0-2.9,5.7-6.5,8.2-7.4.4,2.3,1.8,5.3,3.2,7.2.4.5,1,.7,1.2,1-1.3-2.7-2.8-5.3-3.8-8.1l4.4-.9,8.8,3.2ZM91.8,198.6l1.9,4.3c-1.8.2-3.7-.3-5.3-1.2l3.3-3.1ZM86.2,173.4c3.7-3.7,9.7-8.2,15.2-7.4.9,1.3-7.5,14.5-9.6,16-2,1.4-5.3,1.1-7.7,1.5-3.2-5.2-1.7-6.4,2.1-10.2ZM79.8,176.1c1.1.3,1,1.5.9,2.4-.3.6-1.2-1.7-.9-2.4ZM79.8,181.8l-.5,1.9h-.9s0-.7,0-.7l1.4-1.2ZM78.8,176.1c.1,1.2,1.1,3,.6,4.2-.2.4-3.4,5-4,4.4,1.4-2.7,1.1-6.4,3.4-8.6ZM62.5,154.7c1.4-.9,7.1,5.5,8.2,6.8,2.1,2.5,6.7,9,7.1,12.1.3,2.5-2.5,8-2.7,11-.5,1.1-4,2.2-5.3,2.4-2,.4-1.6-1.8-.9-3.1,1.2-1.1,5.6.2,5.2-3l-3.5.9-1.7-4.8-1.4.7c.6,1.5,1.2,2.5.9,4.3-.3,1.7-1.7,2.1-1.9,3.6,0,0,2.3-.4,1.4,1.2-.5.9-4.7.7,1,3.1-.7-3,3.6-2.9,5.8-3.4.6,1.6-2.9,5.7-2.9,6,0,.4,1.4.5,1.5,1,0,.3-.8,4.9-.9,5.1l-2.9.8c-2.5-6.3-9.4-13.2-13.4-3.5l-2,10.7c-1.1-2.2-1.9-5.7-3.2-7.6-.2-.4-3.8-3.8-4-3.9,1,2.6,2.5,3.6,3.9,5.9.5.8,3.6,7.2,3.3,7.5-3.4.7-3.3-.7-5.2-2.4-.7-.6-2.9-1.8-3.2-2.4-.8-1.6.9-6.2.2-8.4,0-.4.7-.4,1-.3-.3-.8-.8-1.9-.9-2.7,0-.5.3-5.4-1-4.3l-.7,1.2-1.2-1.9h6s.5,1.5.5,1.5c1.7.3,2.7-.9,3.8-.9,2.9-.1,7.6,2.4,10.8,2.6l1-.6c-.8-4.2-2.1-7.6-1.9-11.9,0-1.5.9-3.9.8-5.2-.3-2.7-4.5-6.1-4.7-8.7-.3-3.3,1.7-6.9,3.4-9.6ZM68.1,218.7c0,.5.6,1.6-.3,1.5l-5.3-10.6c-2.2,1.1-2.5,3.6-4.1,5.3-1-.6-3.7-4.9-3.1-5.7,2.2-.3,6.3-3.6,8.2-3.3,1.2.2,6.6,2.7,7.4,3.7.9,1.2,1,3.3,1.2,4.8l-4.8-6.5-1,.5c.5,3.4,1.4,6.8,1.8,10.2ZM54.9,213c.5-.4,3.2,3.4,2.9,4.3-5.4,2-4.1-.4-2.9-4.3ZM57.7,218.3l-1.2,2.4-1.2-1.9,2.4-.5ZM68.3,206.3c-5.5-2.9-8,0-13,1.9.2-2.2-.3-4.8,0-7,.4-3.1,2.7-10,6.9-8.8,1.5.5,6.3,5.9,6.5,7.4.1,1.1-2.1,4.4-.4,6.4ZM72.1,200.1c-.8,2.4-.2,5.1-.5,7.4,0,.7.3.8-.7.7l-2.1-1.7c3-2-.8-6.5,3.3-6.5ZM72.6,200.1c3.2-.5,5.7,3.5,5.2,6.4-.3,1.4-2,2.9-1.8,4.7-6.3-1-2.9-6.6-3.4-11ZM51.2,218.4c.4.4,1.3.6.3,1.1-1,.6-10.6,1.6-11,1.2,0-1.4,6.3-6.6,6.9-6.6.3,0,.5.3.8.4,0-1.2.8-2.7,1.9-3.4l3.4,7.7c-.6.6-4.3-3.8-5.3-4.3,0,2.1,1.8,2.8,3,3.9ZM46.2,211.1l-5.3,1,2.4-7.7c1.7-1.2,1.8,6.1,2.9,6.7ZM44.3,199.4l.4,4c-2,.3-.4-2.7-.4-4ZM45.7,205.8c2.6.6,3.1,2.3,3.8,4.3l-2.9.3-.9-4.6ZM53.4,214.9c-1.1-.3-3.3-4.8-2.9-5.3,2.5,1.2,4,2.4,2.9,5.3ZM28,176.7c-.4-1.1,1-3.4,1.6-4.5,2.2-4.3,10.6-14.2,14.5-16.8,3.6-2.3,4.6.6,7,2.7,1.7,1.5,5.9,5,6.8,6.9.6,1.3.4,5.6.2,7.2h1.4s-1-5.3-1-5.3c5.8,4.4,2.8,9.8,3.4,15.6.2,2.2,1.4,4.2,1.4,6.5l-9.6-1.4c1.3-1.5,1.5-4,3.8-3.4l-1.7-1.9-2.8,4.3-3.2.4,1.4-8.6c-1.2-.2-.8.2-1.2,1-1.1,2.4-.5,4.7-1.3,7.1l-6.9-.4-.4.9-6-3.9c.8-1.6,2.8-1.5,4.3-1.4,0-4.2-3.6.4-5.4,0l-6.5-5.1ZM39.4,212.2c-2,1-10.2-1-12.5-2.1-1.6-.8-12.2-8.8-12.2-9.8,4.7-5.2,11.9-13.8,18.5-16.4,2.9-1.1,4.8,1.9,6.8,3.7l-2.9-1v2.4c9.8-3.2,7.1,7.5,6,13.4l-3.4-.9c-4.2-.2-9.6.1-13.1,2.6,1.2.3,2.4-.8,3.7-1.1,2.7-.5,7.7-1.2,10.2-.3,1.1.4,2.4.7,2,2-.5,1.6-2,7-3.1,7.5ZM40.6,213.1l6.1-1.1c0,.7.1.9-.3,1.5-1.1,1.2-4.8,4.6-6.1,5.7-.5.4-.8,1.2-1.7,1l2-7.1ZM32.8,228.4c-.2-.8.3-1,.7-1.4.6-.8,5.1-5,5.9-5.2,2.8,0,5.7-.3,8.5-.6,1.1-.1,5.5-1.4,5.8-1.3.7.2,1.3,2.2,2.2,2.6,1.1.5,2.7-1.1,3.3.7-9,.4-17.2,5.9-26.4,5.3ZM58.4,221.2l.3-1.9,1.4,2.9-1.7-.9ZM68.7,227.6c-1,3.5-6.9-1.2-5.2-3.9-2-.4-3.8-3.4-4.2-5.2-.3-1.4.5-1,1.4-1.8v-.7s-.9-.7-.9-.7c.5-.6,1.8-4.4,2.8-3.7,1.4,5.6,7.3,10,6.1,16ZM72.6,226c-4.8-2.5-3.9-10.5-4.8-15.4.9,1.3,3.7,4,4.2,5.2.5,1.3,1,9.9.6,10.2ZM73.6,220.2h-.5v-2.9h.5v2.9ZM72.6,211.1l2.3,1.8-.9,4c-1.6-1.2-1.4-4-1.4-5.8ZM92.1,242.7c-3.5-1.3-13.2-3.5-15.2-5.9-2.6-3.1-3.3-11.9-2.8-15.8.3-2,1.3-1.6,1.4-1.7.1-.2-.7-1-.8-1.6,0-.3.6-3,.8-3.3.4-.8,1.5-.4,2-1.1,1.3-2,.8-6.9,2.2-9-2.2-2.4-2.7-5.1-6.5-5.6.2-3.8,1-9.4,3.6-12.4,1.1-1.2,3.3-1.2,3.8-2.4.7-1.5-.6-3.9,1.2-4.8l1.2,5.3c-2.4.4-8.5,5.5-8.3,7.8.1,1.3,2.2,3.5,3.2,4.4,1.4,1.3,5.2,3.2,6.1,4.2.6.6.7,2.8,1.1,3.7,1.2.3,1.8-1.7,2.6-1.8,1.2-.1,5.4,2.3,7.4,1.3,0-1.8-3.2-4.9-2.7-6.2,1-2.4,6.1-6.1,6-9.6.8-.7,3.4,3.4,3.7,4.2,4.1,9.5-2.7,24.2-6.1,33.2,7.6,0,10,6.4,10.6,13-6.6,0-10.9-3.6-16.2-6.6-.4-.2-1.2-1-1.6-.3,5.2,3.8,11,7.5,17.7,8,.4,2.7.8,7.9-2.7,8.5-.6.1-10-4.6-11.8-5.3ZM103.7,253.7c-.3.2-.9,0-1.4,0,0-1.9-.4-4.3,2.1-4.3,1.4.3-.6,4.1-.8,4.3ZM104.7,253.8l1-2.9,2.9,1.4-3.8,1.4ZM107.2,247.1c.8-.5,3.4.6,4.2-.8-.1-1.8-3.9.7-4.3.2l.5-7.1c6-1.8,12.3-3.6,18.6-3.4-.7,4.3-13.1,16.3-16.5,16.1-1.5,0-4.3-3.3-2.6-5ZM88.6,535.9c-.4-.4-2.1-2-1.6-2.4,2.2-.4,2.2,2,2.9,3.4-1.3.3-.9-.5-1.2-.9ZM90.7,536.1l-.7-2.4.8-.2.7,2.4-.8.2ZM156.9,591.2c.6.6.8,1.2,0,1.8l-1.7-2.9c0,0,1.6.9,1.8,1.1ZM155.1,593.5l-3.3.4-1-6.2c.7,1.1,5.1,4.6,4.3,5.8ZM166.1,588.7c1.6.5,3.4,2,4.3,3.3-1.8-.1-3.3-2-4.3-3.3ZM284.4,570c-.4-1.7-1.3-4.9,0-6.3l3.6,13.4c-1.9-1.6-3.1-4.8-3.6-7.2ZM287.7,563.8c3.2,3.5,1.7,8.7,1.7,12.9-.9-.2-.8-1-1-1.6-1-2.6-2.4-7.6-2.7-10.3-.3-2.2.6-2.6,2-1ZM284.6,563.2c-1.5.2-.8-.4-1-1.2-.3-1-.5-2.1-.5-3.2,1.4.7,1.1,3,1.4,4.3ZM336.4,556.5l-.5,2.4h-.5s0-2.4,0-2.4h1ZM330.7,551.7c-.1-1.1,0-2.2,1.2-2.7l2.2.3c.7,3-3.9,4.5-1.4,7.2-.4.3-2.9-1.3-2.7-2.2l2.3-2.4-1.4-.2ZM326.8,548.4l1.9.2c.5.2.6,1.5.5,1.7-.3.4-2.9-.9-2.4-1.9ZM328.3,556.5v7c0,1.5-1.2,5.5-3.1,5.5h-8.9c2.1-3.8,6-6.3,8.6-9.8l3.4-2.6ZM324.9,552.9c-.2.7-3.7,4.7-4.3,4.1.3-2.4,2.3-4.8,1.4-7.2l1.4,1.4-.9.3,2.4,1.4ZM319.2,538.3h3.8s0,2.8,0,2.8c-2.1.8-4.2-.5-3.8-2.8ZM319.6,554l-2.1,3.2-.7-.5,2.1-3.2.7.5ZM313.4,537.8l2.4.5-1.2,1.4c-.6-.6-1.4-1-1.2-1.9ZM346.5,296.5l-.2.9-4.6-1.9c1.8-.3,3.2.4,4.8,1ZM325.4,287.9c-.1.9,1,0,1,1.2.1,2.8-1.7,5.5-4.4,3.3,1.9-5,1.9-10.3,2.9-15.5l5.5-.5.5,1c-2.6,3.5-.2,9.7-5.5,10.5ZM323.5,297.5v1.4s-4.8,2.4-4.8,2.4l2.9-7.7c.1,0,2,.4,2.3.6.4.3.7,1.5.6,2-.3,1.1-1.9,0-2.4,1l1.4.2ZM319.6,303.7c-.6-.3,1.7-1.2,2.4-1,.6.3-1.7,1.2-2.4,1ZM318.2,297.5l1.7-4.3c1.5,0-.8,4.3-1.7,4.3ZM332.6,273l-.9-.2,1.2-5.5c1.7,1.6-.4,3.9-.2,5.8ZM337.9,242.8c-.5,2.3,1.5,5.4-.9,6.7,0-1.5-.1-3,0-4.5,0-.5.2-2.3.9-2.2ZM322,216.9l-1.4,1.4v-1.4s1.4,0,1.4,0ZM310.8,213c3.6-.6,6.1,1,9.3,1.9l-.2,1.9c-1,1.5-8.5-1-10.5-.9-2.3,0-4.3,1.5-6.5,1.9,2-1.4,5.6-4.4,7.9-4.8ZM302.7,212.7l.3.7-6.8,3.2-.3-.7,6.8-3.2ZM282.6,231.6l.5.5-1.9,1.9-.5-.5,1.9-1.9ZM278.4,242.8l-1.4,3.8-.9-.2,2.4-3.6ZM283.6,234.8c2.5-4.1,3.4-4.1,6.8-6.7,5.5-4.2,12.2-11,19.5-11.2,3.1,0,6.6,1.8,9.8,1.4l-.5,1h1.9s.2,1.9.2,1.9c.8-1,.7-2.4,1.2-3.6.2-.5-.3-.9.7-.6,2.6.7,2.3,2.3,2.8,2.7.3.3,1.5.1,2.2.5.5.3,5.2,3.3,5.3,3.6.2.3-.3.9-.2,1.4.3.7,1.7,1.9,2.3,3.4,3.9,9.4-1.1,24.2-2.9,33.9-.8,4.3-1.3,8.8-1.8,13.1-.7,1-4.8.4-5.9-.1l-4-13.1c.3-.7,5.5-4.3,4.8-5-1.6.6-4.6,4.6-5.9,4.4-.3,0-.5-1-1.1-1.4-3.9-2.7-9.4-4.9-14.2-4.3-1.1.1-6.3,2.1-6.6,1.8l.9-3.7,3.9-4.5c-3.4,1.7-5.6,4.7-5.8,8.6-2.2.3-4.6-.2-6.9,0-4.3.6-7.9,5.5-12,7.2l-4.6,5.3-1.4-13.1c0-1.1,8.1-2.8,6.7-4.2l-6.7,2.6c5.1-6.1,7.4-14.5,11.4-21.2ZM318.2,261.9l-1.9-1v-1c.8.4,2.1.8,1.9,1.9ZM316.2,261.7l-.4.7-1.9-1.2.4-.7,1.9,1.2ZM308.6,258.1c-.8,1.3-3.1.9-4.3.5l4.3-.5ZM291.3,259.6c-.7,1.4-2.9,1.5-4.3,1.4.8-1.3,3-1.5,4.3-1.4ZM275.5,285.7c1.7-6.3,4.6-11.9,10.5-15.1-.7,3.8-4.1,6.4-6.2,9.4-.9,1.2-1.2,2.8-2.2,4.3-.4.5-1.6,1.4-2,2.1-.4,0-.3-.4-.2-.7ZM275,273c-.2-2.7,1.8-4.8,3.8-6.2,0,2.4-1.9,4.9-3.8,6.2ZM279.3,266.7v-1s1.9,0,1.9,0c-.3,1-1,1.1-1.9,1ZM273.1,280.7c-.3,2.3-1.2,5-2.9,6.7,0-2.2,1.1-5.4,2.9-6.7ZM272.5,290.9l-1.3.8c-.6-2,.3-3.9,1.2-5.8v5ZM268.8,302.7c.4-1.9-2.1-2.3-1.9-4.1,0-.8,3.5-4.4,3.4-6.3.6-.7.8,1.4.8,1.6,0,.8-.5,1.8-.3,2.2.2.7,1.3.7,1.4.8.3.4-2.1,4.2-2.3,5.1-1.3,6.5,11.2,8.6,3.4,14.5-.8.1-5.9-6.4-6.4-7.5-.7-1.7-.2-4.3-1-6.1l2.9-.2ZM283.2,340.2c0-1.1-1.7-5,.5-4.8-.7,1.2,1.6,5.1-.5,4.8ZM277.7,369.9c-1.8-.8,1.2-6.8,1.1-8.8,0-1.6-1.2-3.8-2.3-4.9,0-.8,6.1-1.2,5.7-2.9-2.1-2.3-5.2.2-7-2.1-1.1-1.4-1-3.8-2.1-5.3l2.4-.2-4.7-4.8c.3-1.6,2.6-2.1,3-2.6.2-.2-.3-1,.2-1.7.8-1.2,3-1.3,2.5-3.1-.2-.3-2.2,1.7-3.4-.5l-1,2.9c-.3-1.8,1.6-5.4.7-6.7-.2-.3-1.2-.3-1.2-.8-.1-.7.8-2.1.5-3.1l7.7,1.5c.1,1.4-.2,2.9.2,4.3.4,1.2,1.9,1.9,2.1,2.7.2.6-.5,2.8-.4,4.2.2,2.5,1.6,5.4,1.9,8.2.5,5.4-.9,11.2-1.9,16.5l-1.4-1.4c1.4,4-1.2,5.3-2.6,8.6ZM279.8,375.7l.2-1.9c.6.9,5.7,4.7,5,5.7-2.5,1.3-3.1,1.6-5.8.5.4,4.4-1.6,5.1-4.6,7.6l-2.8-2.8c-2,1,.9,3.6.7,3.8-1.5-.3-.6,2-1.7,2.4h-.7c0-1.7-1.1-.5-2-.7-.3-.1-2.6-2.4-2.9-2.1,0,1.4,1.5,1.9,2.1,2.9,1.7,3-.7,4.1-1.7,6.9-.2.6-.6,4.7-1.4,4.1-.8-2.2-2.8-4-2.9-6.5,0-1.8,1.3-1.3,1.5-1.9.2-1-.6-1.9-.3-3,.8-2.9,4.5-4.7,6.3-6.7.6-.7.7-1.6,1.2-2.2,2.6-3,5.4-5.4,7.2-9.1,1.8.4,1.2,2.2.5,3.1h1.9ZM286.3,433.7c0,1.1-3.5,9.3-4.1,9.8-.6.6-4.8,2-5.3,1.6l4.6-21.6c2.1,1.4,5,7.9,4.8,10.1ZM281.7,403.5c.2-.9,0-1.9.7-2.4l.2,2.4h-1ZM288.9,441.4l-5.3,1.4,2.4-5.3c.9-.6,3.4,2.8,2.9,3.8ZM286.5,435.6h.9s.5,1.9.5,1.9l-1.4-1.2v-.7ZM290.8,448.1c1.8,3.6,2.2,7.1,2.9,11h-2.4c0,.8,0,1.5-.5,2.2-.9,1.1-5.4,3.8-6.9,5.1-1,.8-8,7.6-8.9,6.7,1.6-3.3,2.7-7.3,3.7-10.9.6-2.3,1.4-9.5,2.8-10.6.4-.3,1.1-.5,1.6-.5l-1.6-.5c-1.8-.2,2.3-3.5,2.6-3.8-.6.2-1.2.5-1.9.5.6-3.7,3.4-3.6,6-5.3,2.1,2-1.6,2.4-2.5,3-.4.3-1.1,1.3-1.6,1.7,1.9-.6,3.1-1.6,4.8-2.4l1.4,3.1-3.3,1.4c-.1,1.5,3.6-.9,3.8-.7ZM294.2,435.9c-1.1-2.9-2.4-5.8-2.9-8.9,2.6,2.3,5,6,3.8,9.6-1.3.2-.7-.1-1-.7ZM270.4,480.1c-2,6-1.1,12.1-3.9,19.1-.2.6,0,1.5-1,1.6-2.9-6.5.3-10.8,2-16.5,2.5-8.3,3.1-16,6-24.6,1.3-4,0-7.8,6.4-7.3-1.7,6.9-2.9,14.8-5.7,21.4-1,2.4-3,4.2-3.7,6.3ZM271.8,480.3l-.6,3.3h-.6c0-.1.6-3.4.6-3.4h.6ZM267.8,522.3c-.4-1.1-2.7-9.6-2.8-10.6-.5-4.7,2.1-2.2,3.5,0,.1.2.6.3.8.5,1.2,2.5.7,9.6,1,12.6-1-.6-2-1.5-2.4-2.6ZM270.2,526.5v.7s-.7,0-.7,0c-.8-.5-.8-1-.7-1.9l1.4,1.2ZM256.9,522.2l2.2-1.9c-.6-1.2-2.2-.4-2.8-.8-.2-.1-1.4-4-1.4-4.4,0-.2,2.4-4,2.6-4.2.4-.4,4.5-1.8,5.2-1.9h.7c0,.4.5,1,.5,1.2,0,2.2-.2,5.1,0,7.2,0,.7,1,4.2,1.3,4.9.7,1.4,3.5,2.6,2.9,5.1-.4,1.4-7.7,5-9.5,3.2l1-3.5c-2-.9-2-3-2.8-4.9ZM248.7,536.1c0-1.1,4.7-1.4,3.8,1.2-1.7.5-2.7.3-3.8-1.2ZM251,539.7l-1.2,1-.7-.7v-.7s1.9.5,1.9.5ZM247.6,529.1l-2.8-.7,3.3-5.5c-.4,2.1.2,4.2-.5,6.2ZM238.1,533.2l-1.7,1.1-1.2-1.8c1.2,0,2.6-1.2,2.9.7ZM234.7,531.6l-.5-3.8,2.4,2.7-1.9,1.1ZM239,536l1,2.8c-3,.7-4.9-3.4-1-2.8ZM240,540l.5,1.9-1,.3-.5-1.9,1-.3ZM239.8,533l-.7-.7v-.7s1.9,0,1.9,0v1s-1.2.5-1.2.5ZM240.5,533.5c1.8,0,1.8,1.4,0,1.4v-1.4ZM241.4,537.3l3.8.5c-.7,1.1-4.1,1.6-3.8-.5ZM242.9,536.4c.5-1.5,1.7-.7,2.9-.5-.5,1.5-1.7.5-2.9.5ZM246.2,533.5v1.4c-1.8,0-1.8-1.4,0-1.4ZM244.1,528.7l-2.6.5,1.4.5v1.4c-5.2,1-5.2-1.9-7.9-4.8-2.3-2.6-5.5-5.1-7.4-7.9-3.3-4.7-4.9-11-8-15.9,2.8-7.4.9-14.6-1-21.9.3-.9,6.8-5.2,8.1-6.3,1.8-1.6,5.7-5.5,6.1-7.8.7-3.6-1.2-5.2-3.4-7.6-3.8-4-8.7-6.8-12.5-10.7-2.4-2.5-1.9-7.8-1.7-11.3,0-1.5.3-4.3.5-5.7.4-2.3,2.3-4,2.4-5.8.1-2.2-1.4-.7-1.5-1.4.7-5.7,5.9-8.5,8.8-13.2,1.9-3.1,2.6-4.5,2.2-8.3-.4-3.2-3.3-7.1-1.9-10.1.4-1,6.3-8.9,6.9-9.4.9-.7,2.3-.4,3.6-1.2,2.6-1.6,2.3-4.6,3.6-6,1-1,4.2-1.4,5.3-2.8.4,0,2.6,1.5,3.1,1.9,1,.7,4.6,3.8,5.2,4.5,1.3,1.6,1.9,4.1,4.3,5.3.2,1-4.7,2.7-5.5,2.7-1.6-.1-1.4-3.3-2.4-3.4-1.9-.2,1.4,3.7,1.2,3.8l-3.8-.5c-.8.7,3,2.7,3.4,3.2,2.6,3.3,1.5,5.6,1.4,9,0,1,.5,1.9.5,2.8,0,3.2-3.1,9.5-6.2,11.1,3.2,1.8,5.6,4.8,7.3,8.1,1.6,3.1,1.3,2.4,0,5.6,2.3-.6,2.8.6,4.1,1.4,1,.5,2.1.2,2.4,1.5.2.9-.2,1.6-.1,2.1.1.7,1,1.2,1.2,2.1,1.3,6,2,12.5,3,18.6l-4.8,5.5c1.2-.7,3.4-2.6,4.1-2.9.2,0,.8-.1.7.2-.7.6-1,1.5-1.7,2.2-1.5,1.4-6.9,5.2-8.9,6.5-.4.3-1.2,1.2-1.4,0-.2-1,6.7-4.4,7.2-6-1.4.8-6.4,4.4-7.2,4.6-1.1.3-2.2-.6-2.9,0-.9.6-2.4,5.2-1.4,6.5h-1.4c.5.8,0,2.5.3,2.9.3.6,1.4.6,1.8,1.5.8,1.6.5,3.8.9,5.3.5,1.6,2.1,3.8,2.3,5.4.2,1.9-1,3.3-.9,4.6.3,2.2,3.8,4.7,3.8,6.3-.3,2.4-2.2,4.7-2.8,6.8-.3.9,0,1.9-.1,2.7,0,.2-3.1,3.4-3.8,3.2.4,1.7,4,.6,4.3,1,0,1.9-1,3.4-2.4,4.6l1.4.2c-1.4,5.3-5,9.7-6.9,14.9ZM225.6,548.9c.3.3,0,1.9-.2,2.4-.2.5-3.7,4.2-3.9,4.2-1.7.5-5.7-3.4-6.4-5l8.9-6.8c1.6,1,2.3,2.9,2.6,4.7-1.7.1-.2-1.5-2.4-.5-.5,1.5,1.2.7,1.4,1ZM224.7,576.2c-.3.9-3.7,4-4.3,3.4.2-2.4,2.4-2.6,4.3-3.4ZM217,576.7c-.6-.6,3.7-6.5,4.4-7.4.4-.5.5-1,1.4-.8,0,.9.9,1.7.9,2.6,0,.3-2.3,4.9-2.5,5.1-1,.9-2.8.4-4.1.5ZM222.3,575.7c.6-.3,1.5-3.7,2.4-2.9l.3,2.4-2.7.5ZM192.5,554.1c-3.7.5-7.1,1.3-10.6-1-4.4.3-9.1.2-13.5,1.1-3.2.6-5.5,2.3-8.5,3-2.7-3.8,1.8-9.5-1.9-12.8,0,.9.4,1.6.5,2.6,0,.5.3,2.7-.5,2.7l-1.5-11.8c0-.9,1.8-1.6,2.2-2.2.3-.4.2-.8.3-.9-.4.2-2.7,1.6-2.9,1.4,0-2.6-2.3-4.8-3.5-7.3-.7-1.4-2.5-4.7-2.6-6.1-.2-2.2,3.6-8.2,4.4-10.7,2.8-7.9.3-16.5-1.7-24,1,7.7,3.7,16.2.7,23.5l-4.5,9.1c.5-3.2-1-7.1-1-10.3,0-1.6,1.1-3.5,1.2-4.8.2-2.5.4-10.5.2-13-.1-1.6-.9-2.8-.9-4.2,0-.3.2-2.3.9-2.2,1.6,4.9,2.1,10,2.9,15.1l.2,6.5c.9-.6.7-1.3.7-2.1.4-4.3-.7-10-1.6-14.3-.8-3.7-3.6-8-.8-11.4.7,2.3.6,5.3,1.4,7.5.2.7.6.6.6.6-.4-3-1.1-6.1-1.2-9.1l9.6-11,8.4,7.4c-.5,4.7,1.2,9.4,1.4,13.9.4,6.3-3.4,28.1-5.2,34.6-1.4,5-4.1,7-6.8,10.8,9.7-6,9.5-21.1,11.1-31.4.4-2.7,1.6-5.8,1.9-8.2.7-6.5-1.3-13.4-1.4-19.9,2.5.8,3.9-.7,6.2-.9.8,2.7,1.6,5.4,2.8,8,.3.6,1,.5,1.1.9.5,2.1-1.2,6.8,1.4,7.3l-1,.7c.8,4.2,2.4,8.8,2.6,13.1.2,4.4-1,9.3-1.2,13.7,0,2.4-.3,18.2.3,19,.3.5.7.6,1.2.5.5-1.1,0-2.1,0-3.1.3-3,1.1-7.8,1-10.6,0-1-1.2-.5-1-1.4.3-1.6,1.3-3.1,1.3-5.4.2-7.8-.2-15.7.7-23.8,0-.6.3-1.7.7-2.2,1,.5,1.1,2.1,1.7,2.6.2.2,1.1,0,1.6.3,1.9,1.3,8.1,5.8,8.9,7.5.6,1.3.3,2.4.6,3.2,2.5,5.7,6.3,11.1,10.1,15.9,3,3.8,3.3,4.9,5.6,8.8,1.8,3,4,6,5.8,9,0,.8-5.5,2-6.7,2.4-8.2,3-10.5,5.4-16.9,10.3-.3.3-.4.8-.7.9-1.9,1-2.5.8-4.4,1,0,0,.5.9.5,1ZM160.4,564.2l-2.3-2.7,1.1-1.6,1.2,4.3ZM149.4,525.3l5.6,10.4c-.2,2.8,1,4.9,1.5,7.6.6,3.7.9,7.5,1,11.2-.7-.3-1.4-1.1-1.9-1.7-2.5-2.9-5.9-11.5-6.2-15.3-.4-4.1,1-8.1,0-12.2ZM147,510c-3.4-6.2.3-12,.4-18.6l1.1-.6v7.9s-1.4,11.3-1.4,11.3ZM129,498.9c-1.2,1.2-2,2.8-3.6,3.4-1-1.2,4.8-8.4,5.8-9.8,2.3-3.1,5.2-6.8,7.8-9.7.7-.8,4.9-5.5,5.6-5l.8,1.9c-1.9,2.6-5,5.1-6.9,7.5-3.5,4.4-5.3,7.6-9.5,11.7ZM129.2,502.8c-.2-.9.6-1.6,1.4-1.9.2.9-.6,1.6-1.4,1.9ZM126.8,574.8c-.8-.2-.8-1.6-1.2-2.3-2.1-3.4-2.2-3.5-3.8-7.2-1.9-4.4-3.9-8-6.9-11.8.5-.8,1.1.1,1.4.5,1.5,1.6,3.6,3.3,5.4,4.9,1.5,1.3,4.7,2.8,5.4,4.9.8,2.7,0,8.1-.3,11.1ZM126.8,578.1l-3-2.4-.3-2c1.5,1.1,3.6,2.1,3.4,4.3ZM117.2,566.1l3.2,3c.5.5,1.2,1.5,1.1,2.2-.3.3-5.4-3.6-4.3-5.3ZM115.6,563.1c-2-2.8-2.2-5.8-2.7-9,.8-.8,3.8,3.6,4.2,4.2,1.8,2.7,3.5,6,3.9,9.3l-5.4-4.4ZM122.5,574.3h-1s-.5-1.9-.5-1.9l1.4,1.9ZM111.5,547.9l4.2.6c2.9,8.3-4.8-.1-4.2-.6ZM107.6,544.3c-.4,1.8-4-1.4-3.4-2.1,1.4-1,3.7.5,3.4,2.1ZM106.9,538.3l.2,1.4-1.4.5c-.2-.9.6-1.3,1.2-1.9ZM107.1,540.9c-.4-.9.9-.8,1.4-.6l1,2.8c-.7.3-2.3-2-2.4-2.2ZM106.7,528.7c.9-1.6,1.4-3.8,3.4-4.3.5.6-2.5,5.2-3.4,4.3ZM114.8,497.5c-1.1-5.7-2.8-11.4-2.4-17.3l2.6,7.7c-.3,2.6,3.1,8.7-.2,9.5ZM116.2,501.4v2.4s-1,0-1,0l.5-2.4h.5ZM112.4,511.9v-1.4c0,0,1.4-.5,1.4-.5.4.5-.8,1.8-1.4,1.9ZM110.5,502.8l-1-2.4,2.9-1c.3,1.5-.6,2.7-1.9,3.4ZM111.9,508.5c.4,1.9-.7,3.1-1,4.8-.8-.2-1-.9-1-1.6,0-.5,1.3-2.8,1.9-3.1ZM110.5,514.8c-.6,1.2-1.7,1.9-2.9,2.4-.6-.7,2.1-2.7,2.9-2.4ZM111.3,517.2l2.1-2c0,.9-.4,1.6-.8,2.3-.3.7-4.5,7.3-5.5,6.3l4.1-6.7ZM110,550.3c1.2.5,1.6,1.6,1.4,2.9-.7,0-1.6-2.7-1.4-2.9ZM115.5,545.5h-3.8s-.8-2.6-.8-2.6l1.2-.8,3.6,2.4-.2,1ZM111.2,535.4c-.7-.5-.7-.8-.7-1.6,0-2.4,2.4-6.4,3.3-8.8.2-.6-.3-1.4-.1-2.1.2-.6,6.6-10.3,7.4-11.2.8-1,2-2.2,3.3-2.2-1.7,9.6-5.2,19.8-13.2,25.9ZM118.7,503.7c-.2-1.1,3.5-6.5,4.3-5.8l-4.3,5.8ZM123,503.7c-.8,2.2-2.4,4.5-4.3,5.8.3-2.2,2.7-4.4,4.3-5.8ZM122.1,488.7l-4.9,6.9c-.6-2.5-.5-5.9-1.1-8.3-.4-1.7-1.6-3.8-2.1-5.6-2.2-8.7-2.6-22.2-3.2-31.3-.2-2.7-1.4-5-.4-8l-.9,1v-8.2s2.4,0,2.4,0c-.1,1.3-.7,2.5-.8,3.7,0,.5-.5,1.7.3,1.5-.5-5.4,3.8-6.4,5.9-9.7,2-3.2,2.4-7.6,4-10.9.3-.7,0-1.2,1.2-1-.3,1.4-.7,4.8.2,5.8.7.7,1.4,0,1.6,0,.9.5.9,3.2,3.2-.6,1.3,0,1.3,9.3,1.5,10.8,0,.5.7,1.1.7,1.9.2,2-.5,4.4,0,6.5l8.3,1c1.2,2.1,4.7,1.8,7,2.3.4.4-.8,5-.9,6.1-.1.8.4,1.8.4,2,0,.1-1.5,1.9-1.8,2.2-8.4,9.5-17.4,19-20.5,31.8ZM94.2,425.5c-1.6-5.8-1.1-11.9,0-17.8l5.5,2.9,1.7,7c-1.7,2.3-3.6,4.6-5.3,6.9,1-.5,1.7-.6,2.6-1.5,1-1,1.5-3,2.7-3.8l-.8,11.2c2.1,2.2,2.5,5.6,3.2,8.5-3.2-2.9-10.6-6.5-9.6-11.7.2-1.2,1.2-1.1,1.7-1.7.2-.4.2-.8.3-.9-.7.3-1.3.4-1.9,1ZM99.5,387.9c-.8-3.7-1-7.5-1-11.3l1.9,6.5v5.9c-1.5.2-.7-.4-.9-1.2ZM97.2,376.5l.6,3.4h-.7c0,.1-.6-3.3-.6-3.3h.7ZM96.1,348.8c2.5.7,2.1,2.8,2.9,4.8-1.1.3-1.4-1-1.8-1.8-.3-.5-1.3-2.7-1.1-3ZM97.5,357.9c.9.5,1.9,1.5,2.4,2.4l-1.9-.2-.4-2.2ZM117.9,365.4c2.2,2.5,6,6.1,7.7,8.4,1.3,1.9,1.6,4.4,2.6,6.1.6,1,2.7,1.8,1.8,3.5-.4-.7-1.5-.7-2-1.1-3.8-3.1-7.3-9.3-11.2-12.6-3.6-3.1-8.8-4-11.8-6.9-3.4-3.2-5.8-7.7-6-12.5,4.4,2.9,9.7,5.1,13.7,8.7,2.2,2,3.4,4.4,5.2,6.5ZM114.3,357.4c.8.3,1.6,1.1,1.4,1.9-.8-.3-1.6-1.1-1.4-1.9ZM160.8,356.3l16.8-8c.7.7-7.4,12-7.1,13.6.1.5,1.1.9,1.4,2,.3,1.5-.7,3.8-.2,4.6,1.3,1.5,2.2-1.6,3.3-1.4l2.4,2c0,2.4-.4,4.9-.2,7.3.3,3.2.8,5,1,8.6.1,2.5,1.6,4.9,2.3,7.2l-7.6,6.1.4,2.8c-2.3-.5-2.7,1.7-4.5,2.4l-9.3-13.2c.8-.4,1.2-3,2.1-2.6,1.3.6,2.8,8.5,6,8.1-1.4-1.4-5.3-7.2-5.3-8.9,0-1.3,3.4-2.8,4.3-3.8,0-1.2-5.2-.4-6.2-1.2l1-8.3c-.9-5.6.2-11.5-.6-17.2ZM179.8,300.8c-.7.9.4,2.2,1,2.9.5,1.2-2.8.6-3.7.4-.6-.2-1.1-.9-1.7-1.1-.6-.2-1.8.7-2.5-.5l5.1-2.6c2.6-.2,4.3,3.5,5.4-2.7.9-.1,2.4-.8,3.2-.3.2.1,2.3,2.5,2.6,2.9-.5-1.4-1.1-2.6-1.9-3.8.7,0,1.3,0,1.9.2,1.3.4,8.5,6.4,9.6,7.7,2.1,2.5,3.6,5.6,3.9,8.9l-3.4-1,1.4,1.7c-2.1,1.8-1.4-1.9-1.5-2.1-.1-.2-1.3-.3-1.6-1-.7-1.4.5-3.7-1.4-4.8l.2,4.3c-.6,0-1.3.1-1.9-.2-.5-.3-3.5-7.8-4.4-9.1-.3-.5-.8-.6-.9-.8,1,2.5,1.8,5.3,3.4,7.7-2.4.2-1.7-2.1-3.1-3.3-1.8,0,.9,2.4.2,3.4l-1.2-1c-1.3,2.9-3.5-2-3.6-3.8-3.5-.6.6,3.6,0,4.3-3.4-.7-2.7-4.3-5-6.2ZM178.6,306.1l3.4.5c.5,2.2-4.5.6-3.4-.5ZM175.7,307.5c-.3.3-2.7-1.4-2.9-1.9,1.3-.2,2.3.8,2.9,1.9ZM180,298.4l1.4-.5v1.4s-.7,0-.7,0l-.7-.9ZM207.4,313.3c-.4,1.2-1.8,1-2.9,1,.3-1.1,1.9-.6,2.9-1ZM205.5,311.8c.6-1.2,1-2.7,2.4-3.4.3,1.5-.7,3.2-2.4,3.4ZM204.5,320v-3.4c.4.1,2.2.4,2.3.5,1,1.2-1.1,2.9-2.3,2.8ZM205.9,321.4v1.4s-1.9-.5-1.9-.5v-.5s1.9-.5,1.9-.5ZM204.3,355h2.8c0,0,1.3,2.9,1.3,2.9l-2.4-1,1.9,2.2c-1,1-1.6-1.2-2.1-1.5-.9-.7-3.9-.3-3.7-2.1l2.4.5-.2-1ZM215.1,342.5c0,.4,0,.8.2,1.2.1.2.6.2.7.6.5,1.5.8,4.2,1,5.9-1.4-1-2.5-3.3-2.9-5-.5-1.8-.9-2.1,1-2.7ZM213.7,335.2l1.4-.8-.5,3.8-.9-3ZM232.8,305.4l-3.1,2.6-1.7-2.4h1.9s1-1.4,1-1.4l-.2,1.4,2.1-.2ZM234.7,306.1c.5-1,0-1.5-.5-2.4l5.8-1.4c0,1.4-4.6,4.2-5.3,3.8ZM240,306.6c-.4,1.6-2.3,2.2-3.8,2.4l3.8-2.4ZM236.6,309.5c-1,1.6-3,3.6-4.8,1.7l4.8-1.7ZM240.4,334v3.8c-3.9-.7-7.2-.8-11,1l1.9-3.8c.7-.5,2.8,2.8,3.4.7.6-2.3-4-2.1-3.4-4.5l4.3,2.4c-.4-3.5,3.1.9,4.7.5ZM235.7,329.6c2.6.7,4-2.1,4.3,2.4-1.7,0-3.5-.8-4.3-2.4ZM240.7,339.6l3.6-.5c.1-1.7-1.7-1.5-2.9-1.4l.5-3.8c.7-.6,4.6,1.4,5.1,2,.8.9,2,6.1,2.1,7.4l-1,1.4c3,2.8.8,8.5,1,12.2-2.6-.5-1.6.7-2.4,1.7-1.2,1.5-2.7.4-2.1,3.4.3,1.4-3.5-.8-3.6-.9-.3-.4,0-1.2,0-1.3-.2-.2-1.1.3-1.4.3-2,0,0-4.8.4-6.2-1.3-1.5-2.6-3.3-4.7-3.7-.5-.7,3.2-5.7,3.9-6.8.7-1.2.9-2.5,1.6-3.7ZM240.5,329.1c1.7,1.7,4.6,1.4,5.3,3.8l-4.3-.5-1-3.3ZM266.4,364.1c1.6-.5,2-1.3,3.8-.5-2.3,2.2-5.2,7.1-8.8,6.1-.9-.2-1.6-1.9-3.2-1.3l.5,1.4c-3.4-.2-2.5-3.8-2.9-6-.2-1.6-1.3-.6-2.4-1.2.3,1.1.2,3.2-1,3.8,0-1.6,1.4-3.9-.5-4.8l-.7,1.4-1-2.5c1.1-.7,4.1-7.5,5.5-6.2.8.8-2,3.5-.2,3.8.5,0,2.2-1.1,3.1-1.3,3-.6,7,4.2,7.7,7ZM262.5,344.9c.2,1.5,1.3,2.5,1.5,4.1.2,2.9-1.2,3.8-2.3.8-.6-1.5-1.6-4.8.8-4.9ZM272.1,352.6h-1.9s-.5-4.3-.5-4.3c.9.2,2.6,4.1,2.4,4.3ZM269.3,344l2.9,1.4-.2.9c-1.3,1-2.9-1-2.6-2.4ZM272.2,346.9c1.1.4,1.5,1.8,1.4,2.9-1.1-.4-1.5-1.8-1.4-2.9ZM272.6,354.5l.5,3.4,1-1.9c3.7,1.1.8,2.4-.7,3.8-.9.4-1.3-2.2-1.4-2.8,0-.4-.6-3.6.7-2.4ZM276.5,359.8c.3.4,0,5.8-1.4,6.2,0-2-1.5-5.6,1.4-6.2ZM272.6,365.6c0,1.4,0,4.3-1.9,4.3l1.9-4.3ZM272.3,375.8c.5-.3,1.3,0,1.7-.2.3-.2,1.4-3.5,1.8-4.3.2-.3.5-1.8,1.2-.9,1,1.3-6.5,10.9-8.6,11.5-.2-.3,3.6-6,3.9-6.1ZM266.9,380c1-2.2.8-5.5,2.4-7.2,0,1.7-.8,3.2-1.2,4.8-.2.8.8,2.5-1.2,2.4ZM257.8,414.5c1.5-.3,1.9.7,2.4,1.9-.6.4-2.1-1.2-2.4-1.9ZM261,419.9c.1.1.7,1.2.6,1.3-2.2,1-3.6-.7-4.8-2.4.9.1,3.6.6,4.2,1.1ZM259.2,417.4c-1.1,0-2.4-.9-2.9-1.9,1.1,0,2.4.9,2.9,1.9ZM256.3,400.6c-1.8.4-.7-2.3-1-3.4,1.5.7,1.2,2,1,3.4ZM254.9,394.6l.9-.7,1,2.9-1.9-2.2ZM255.4,391.5l3.3,2-1.2,2.3-2.2-4.3ZM257.3,391.2l3.4-.7-1.2,1.9-2.1-1.2ZM260.2,388.6c.9-1.3,2.8-2.2,4.3-2.4-1.1,1.2-2.5,2.7-4.3,2.4ZM263.5,383.3c.3-1.6.4-2.6,1.7-3.8,1.5-1.5,0,1.7.2,1.9l1.2.5-3.1,1.4ZM263.5,376.1c2.2-2.3-.5-3.1-1.9-4.8,2.3-1,4.7-1.1,6.7.7-1.9,2-1.3,4.5-4.8,4.1ZM265.9,370.4l4.3-4.3-1,4.3h-3.3ZM256.3,353.1l-.7-1.9c-1.2,1.8-2.8,3.4-5,3.8.8-3.3,0-6.3,0-9.6,2.4-.4,4.4,1,6.5,1.9v.7c-1.1,1.8-1.2,3-.8,5.1ZM251,357.4c-.5-.5.9-1.9,1.4-1.4.5.5-.9,1.9-1.4,1.4ZM257.3,354.5c.1-.4.3-5,1.4-3.8l1.4,4.3-2.9-.5ZM250.5,343.8l-1.4-6.5c3.2.6,5.7,2.5,8.6,3.9v5.2c0,0-7.1-2.6-7.1-2.6ZM231.5,380.3l-.2-.8,2.4-.7.2.8-2.4.7ZM229.4,386.2c-.9,0-.4-.9-.2-1.4.4-.9,1.3-2.1,1.9-2.9,1.7,1.4-1.7,2.8-1.7,4.3ZM231,372.4c-.5.4-1.2,2.3-1.7,2.6-.9.6-3.5.6-4.7.6,2.3-3.2,5.4-6.2,9.6-6.2.3,3.2-1.9,2.1-3.2,3ZM228,383.8c-.1.4-1.8,3.1-2.4,2.4-.8-.9,1.4-2.7,2.4-2.4ZM219.1,413.2c-.2-3.5,3-12.3,4.6-15.8.3-.6-.2-.9,1-.7.6,3.5,2.2,6.6,1.3,10.2-.5,2.2-4.8,7.2-6.6,9,.8-1.3-.3-2.1-.3-2.7ZM214.9,417.4c-.3,1.6-1.3,5.9-2.7,6.7-.3-5.8.9-11.4,1.9-17.1.3-1.8-.7-4.1,1.5-5,.3,3.4-.5,6.6-.8,9.9-.1,1.4.3,4.1,0,5.5ZM196.1,469.7c-1.6,0,.7,3.8-1,2.4-.8-2.8-3.4-6.3-3.9-9.1-.6-3.2,4.2.4,5.1,1.7,1.3,1.9,1.4,4.5,2.4,6.5-.5.5-2.2-1.4-2.6-1.4ZM196.4,479.8c-.8-.3-1.6-1.1-1.4-1.9.8.3,1.6,1.1,1.4,1.9ZM186.8,458.7c-1.9-.5-.2,1.8-1.4,1.9,0-2.5-2.2-3.9-1.4-6.7.7,0,1.7,0,2.3.6.3.3.8,1.6.6,1.8l-1.9.7c1.2,1.6,3.8,1.6,3.8,4.1l-1.4-.3-.5-2.1ZM186.8,464.9h-1s.5-2.4.5-2.4h.5s0,2.4,0,2.4ZM184.8,491.6l-.5,6.9c-.9-.2-.8-1-1-1.7-.7-3.6-1.4-7.2-1.4-10.8l2.8,5.5ZM181,391c-.4-2.4-1.7-4.7-1.4-7.2l2.8,5.6c.3.9-.3,1.7-1.4,1.6ZM202.6,313.3l-.7,5.3c-1.3-.9-.6-2.8-.2-4.1.2-.8-.5-1.4,1-1.2ZM204.5,360.8l-2.6.8-1.2-1.3c1.2-.3,3.1-1.2,3.8.5ZM210.2,373.4l.9.6-2.2,3-.9-.6,2.2-3ZM207.4,347.8c.5-.6,3,1.8,2.4,2.9-1.7.5-2.1-1.6-2.4-2.9ZM220.8,332.5c1.5,0,5.1,5.4,6.2,4.3l-.5-2.4,1.4.5-1,4.3-2.1-1.9c-1.2,2.4-3.6,2.4-6,2.4l4.3.5-1,2.4c1.7-.9.7-3.2,3.3-2.3.4.3,1.5,6.1,1.4,6.8,0,.3-3.2,5.6-3.5,5.6-1.3-1.7-4.3-2.8-3.1-5.3-2.1,1-3.3-4.9-3.1-6.3.2-1.1,1.2-.5,1.2-1.4h-1.4c0,0-1-8.4-1-8.4l.9-.2,3.6,5.8c1.6.7-.2-3.7.2-4.3ZM239.5,339.2c.4.4-4.8,9.6-5.4,10-.6.3-1.9,0-2.8.3-1.2.4-2.1,1.1-3.3,1.2.1-1.3-.3-3.1.2-4.3.9-1.8,4.9-1,3.1-3.6-.3-.5-3-2.3-2-2.9l10.1-.7ZM231.9,339.2c1.1-1.8,4-.7,5.8-.9l-5.8.9ZM237.6,364.6c.3-.9-.3-3.7,1.4-3.4.1,1.1-.4,2.9-1.4,3.4ZM240.2,363.2c.5.4.9.7.7,1.4l-2.4.5,1.7-1.9ZM237.1,360.1l-9.1,2.1,6.2-10.8c5.2.4,4.1,4.9,2.9,8.7ZM221.5,372.3l-.3-1.4c-1.2-.3-4.7.5-5.2-.8l2.6-1.2,1.2,1.5c-1.8-3.4,2.4-4.9,5.3-5.3l-3.6,7.2ZM222.7,380.4l-1.9.5,1.2-1.4h.7s0,.9,0,.9ZM217.5,382.4l.5-1.9h.9s-.5,1.9-.5,1.9h-.9ZM216.5,393.4c0-.7.6-3.8,1.2-3.8,1.6,0-.2,3.8-1.2,3.8ZM217.5,372.8h2.9c-.7,3.7-2,3.9-2.9,0ZM227.1,353.1c-.1,3.3-1.4,6.2-2.9,9h-4.7c.8-4.3,3.9-7,7.7-9ZM224.2,353.1l2.9-4.3c.3,2.6.2,4.4-2.9,4.3ZM228.8,351.7c.9-.7,4.4-2.4,3.8,0-.2.7-5.6,10.1-6.1,10.4-.2.1-.4.3-.6.1-1.7.1,0-1.4.3-2.1,1-2.2,1.5-7.5,2.6-8.4ZM221.8,356.5c-1.1.3-.8-.3-1.1-.6-1.6-1.7-1.5-2.9-1.3-5.1l3.3,3.2-.9,2.6ZM219.4,363.4l3.4-.2c0,2.1-2.6,1.3-3.8,1.9l.5-1.7ZM218.9,351.2h-.5s0-2.4,0-2.4h.5c.3.9.3,1.5,0,2.4ZM218.7,360.2c0,0-1,1.1-1.3,1.1l.5-4.3c1,.3,1.1,2.4.8,3.2ZM218.4,367l-1.7,1.9h-.7c0-1.3,1.2-2.1,2.4-1.9ZM216,361.7c-.3.6-1.2-1.7-.9-2.4,1.1.3,1,1.5.9,2.4ZM224.4,385.7c1.8,0-.6,3.8-.7,4.3-1.9-.6-.2-4.3.7-4.3ZM237.1,361.7c0,3.1-1.6,2.2-2.6,2.9-2.1,1.5-4.3,3.6-6.4,5.2l-5,3c1.9-7.2,6.5-10.9,13.9-11ZM229.9,343.3l-1.6,2.1c-.6,0-1.2-3.9-1.2-4.6,0-1,.1-.7,1-.7-.2,1.5,1.1,2.1,1.9,3.2ZM217,359.3c-1.4.2-.8-.3-1.1-1.1-1.2-3-1.2-6.1-1.8-9.3l1-.2c2.3,3.7,2.2,6.2,1.9,10.6ZM216,372.8l.5,3.4h-3.4c-.3-.3,1.4-4.3,2.9-3.4ZM215.1,380.5l-1.2,1.9c-2.4-.3-3.3-1.2-4.5-3.1l6.2-1.7-1.9,1.5v1.4s1.4,0,1.4,0ZM214.1,394.8l-.9-.2,1.4-1.7-.5,1.9ZM214.6,395.3l-.5,2.9h-.5c0-1-.3-2.5.9-2.9ZM213.2,392.9c-.2-1.2.2-2,1.4-1.9v.7s-1.4,1.2-1.4,1.2ZM212.2,406.1l-1.5,8.4-.9-2.4c-.3,1.3-.3,9.2-2.6,8.6l-5.1-4.3h2.4s.5,1,.5,1v-4.8c1.3.5,3.3.4,3.4-1.4l-2.9-.5v-2.9s-.5,2.4-.5,2.4h-3.4c-.6-1.9.8-1.8,1.1-2.5.2-.4-.1-1.2,0-1.2.7-.7,2.7-.4,2.8-3.2l1.4.3c.4-2.7,4-3.6,5.5-5.7,1.8,0-.6,7.6-1.2,8.6l1-.2ZM210.3,483.1c.2-.5,1.2,1.5,1.4,1.9-1.2.1-1.6-.8-1.4-1.9ZM211.7,491.3c-1.1-.4-1.5-1.8-1.4-2.9.8.3,1.3,2.1,1.4,2.9ZM210.6,478.2c-1.6-6-3.2-11.3-2.8-17.6,1,.5,1.4,2.2,1.8,3.3,1.5,4.3,4,14.2,3.5,18.6,0,.7-.1,1.5-1,1.7-1.2-1.9-1.1-4-1.6-5.9ZM191,423.5c-.8-.2-2-.4-2.3-1.3,1.8-.7,3.1.6,4.8,1,0,.9-2,.5-2.5.4ZM192.5,447.1l-2.4-3.8,2.2.4.2,3.4ZM193.5,399.2l-1.7,1.9h-.7c-.6-.6,1.5-2.2,2.4-1.9ZM192,323.8c-.1-.9,0-1.7.9-1.9.1.9,0,1.7-.9,1.9ZM199.2,404.4c-.5,1.7-3.3.7-3.8-.5l3.8.5ZM195.9,403.5v-1.4c1.5-.8,3.2-.6,3.4,1.4h-3.4ZM205.5,368.5l-1.9,1.6c0,.8-.9-.3-1-.4-.3-1.3,2.2-1.3,2.9-1.2ZM204.5,366.1l3.4,1c-.4,1.2-3.2,0-3.4-1ZM212.7,392.9c-1.1,3.4-1.3,5.5-4.6,7.7-.4,0-.3-1-.2-1.4-1,2.1-2.6,4.5-5.3,4.3.6-3.8-.1-5.2,3.4-7.4.8-.5,1.8-.7,2.6-1.2,1.1-.4.3,1.5.2,1.9.8-1.6,1.9-3.7,3.8-3.8ZM209.3,383.8h2.9c.5.5-1.7,2.6-1.9,2.4l-1-2.4ZM209.8,386.5l-.7.7c-.9-.6-.8-1.4-.7-2.4l1.4,1.7ZM212.7,385.7l-1,3.4c-.4-1.3-1.2-3.3,1-3.4ZM204,386.7c0,1.3.5,3.4-1.4,3.4,0-1.2.2-2.8,1.4-3.4ZM205,373.7l-.5-1.9h2.9c.2,1.4-1.5,1.5-2.4,1.9ZM206.4,387.9c-.5.7-1,.8-1.9.7l.7-2.4,1.2,1.7ZM204.9,376.2l-.7.7-1.9-1.9.7-.7,1.9,1.9ZM201.2,368v-1.7s1-.2,1-.2l1.4,1.9h-2.4ZM202.1,383.8c.2.2-.1.9-.5,1.2-1.7,1.4-1.1-2.6.5-1.2ZM204.5,412.6c.4,2.2-2.3,2.5-3.8,2.9-.4-2.4,2.3-2.1,3.8-2.9ZM204.5,419.8l-3.8-.7c1.2-1.1,3.3-.9,3.8.7ZM197.8,422.2v-1s1.4-.5,1.4-.5v1.4s-1.4,0-1.4,0ZM198.8,427.5v1.4s-1,0-1,0l-.5-1.4h1.4ZM200.7,410.7l-.3,2c-2.3,1.7-5.2-2.9.3-2ZM201.2,412.6c0-2.3,2.5-1.3,3.8-1-.5,1.1-2.8.9-3.8,1ZM202.1,403.5h-1.4s1.2-2.9,1.2-2.9l.2,2.9ZM201.2,408.8c-.4,1.2-1.8,1-2.9.9.4-1.2,1.8-1,2.9-.9ZM193.5,415.5c0-.8,2.4-2.3,2.9-1.9.8.7-2.2,2.2-2.9,1.9ZM196.4,426.5v2.4s-3.4-2.2-3.4-2.2l3.4-.2ZM194,411.6l-1-.5c.9-.6,2.9-.5,2.3.9-.1.3-2.3,1.5-2.8,1l1.4-.5v-1ZM196.4,405.9l-4.3.9c.6-1.4,3.1-.9,4.3-.9ZM192.5,408.3c.3,1.5-2.2,1.8-2.9.7l2.9-.7ZM193,444.7c.5-.5,5.4,4.3,5.2,5l-1.4,1.5c-3.1-1.2-4.4-3.2-3.8-6.5ZM199.1,460.1c.3,1.6-.8,2.8-.8,4.3l-3.7-6.6c.7-4.5,4.1,0,4.5,2.2ZM196.9,453.9c1.9-.7,1.8-3.6,4.1-4.8l-.7,5,1.4.3-1.7,3.4-3.1-3.8ZM199.7,435.6c.2-.5,1.2,1.5,1.4,1.9-1.2.1-1.6-.8-1.4-1.9ZM203.6,431c1.7-2.6-2.3-3.5-3.1-5-1.1-1.8.5-3.1-.7-5l4.7.8,2.3,8.3-2.5,3.6-2.6-1c-.4-1.5,1.3-.8,2-1.8ZM209.9,418.2c.1-.5.1-1.8.9-1.8,0,2.6,0,5.3,0,7.9,0,.2.6.5.3,1.2-.5,1-2.7,1.8-2.7,3.4l-1-.3v-5.5s2.4,0,2.4,0c-.1-1.7-.3-3.2,0-5ZM207.4,431.3l1.3,2.6c-.6,2-2.6,3.3-2.2,5.5-.7.8-3.9-2.9,0-2.9-.2-2.3-1.5-3.6,1-5.2ZM205,420.3c2.1,1.1,3.1,3.1,1,4.8l-1-4.8ZM202.1,450c1.9,0,1.9,1.9,0,1.9v-1.9ZM205.6,454.2l.8.5-3.1,5.2-.8-.5,3.1-5.2ZM206.4,463l-.2,3.8c-1.1-.6-1.7-3.9.2-3.8ZM204.5,467.3l2.4,4.3c-1.4-.9-2.6-2.6-2.4-4.3ZM207.9,480.5l.9-.2.5,2.4c-1-.2-.8-1.5-1.4-2.2ZM207.9,491.8c-1-.3-1.1-1-.9-1.9,1,.3,1.1,1,.9,1.9ZM206.9,440.9c-.7-.8,2.2-5.1,2.6-6.2,1.7.7-.4,5.6-1.2,6.5l-1.4-.3ZM209.3,443.8l1.2.5.2,1.9c-2,.2-2.1-.7-1.4-2.4ZM209.8,432.7c-2.9-.9.2-5.7,1.2-5.7,2.1,0-.9,5.1-1.2,5.7ZM212.7,372.9l.9.7-2.7,3.5-.9-.7,2.7-3.5ZM212.2,370.9l.5-1.4h1c.2.9-.6,1.6-1.4,1.4ZM210.7,388.4c.7,2.8-3.8,4.1-5.8,4.5.5-1.6,1.3-2.8,2.6-3.8.5-.4,2.8-2,3.1-.7ZM204,371.3c0-1.1,3.6-1.1,3.8-1,.4,1.8-2.8.6-3.8,1ZM203.1,362.7c2.1-.2,4.4-.1,4.8,2.4-.5.4-4.7-1.1-4.8-2.4ZM200.7,362.2c-.8-.3-1.6-1.1-1.4-1.9.8.3,1.6,1.1,1.4,1.9ZM198,315.7l-.2-2.9,1.9,3.4-1.7-.5ZM197.8,368.9c-1.2.2-3.5-2.6-2.9-3.4.4.1.9.4,1.2.7.5.3,2.2,2,1.6,2.7ZM194.9,346.4v-.5s1.9-.5,1.9-.5v1s-1.9,0-1.9,0ZM192,310.4c2.7-.2,3.1,3.1,4.3,4.8-2.5-.2-3.7-2.7-4.3-4.8ZM192.5,321h-1s0-1.9,0-1.9h.5s.5,1.9.5,1.9ZM191.6,353.6h1s-.5,2.4-.5,2.4h-1s.5-2.4.5-2.4ZM191.1,354.1h-.5c0-.9-.2-2.1.9-2.4l-.5,2.4ZM191.1,313.8c-1.8-.6-2.8-2.5-2.9-4.3,1.5-.4,3.3,3.8,2.9,4.3ZM188.7,441.4c-1.5.2-2.1-.4-1.9-1.9l1.9,1.9ZM188.2,445.2c-1.7,0-2.8-1.4-3.4-2.9,1.9-.3,2.5,1.7,3.4,2.9ZM184.8,404.4v-1s1.9-.5,1.9-.5l-1.9,1.4ZM185.8,440.9h-1.8c0,0-1.5-2.9-1.5-2.9,2.4-.5,2.3,1.3,3.4,2.9ZM187.2,452.2l1.4-.2-3.3-6.7c3.5,1.3,5.7,3.5,8,6.4.3.4,1.5,1.8,1.1,2.2l-5.2,1.4-2-3.1ZM194,455.3c-2.2,2.7.6,4.9,1.9,7.2l-4.3-2.6-1.9-2.9,4.3-1.7ZM190.1,464.9c1,.2,2.1,4.5,1.9,4.8-2.6-.7-1.9-2.6-1.9-4.8ZM192.2,471.5l1.9,1.9-.5.5-1.9-1.9.5-.5ZM197.3,472.1c.4.2,1.6,1.4,1.7,1.6.3.5.7.9.7,1.5,0,1.2-3.4-1.8-2.4-3.1ZM200.2,467.3c1-.1.1,1.5.5,1.9.1.1.9,0,1.2.1,1.4,1,2.1,6.7,2.5,8.5-1.1.3-1.1-.6-1.5-1.1-2.2-2.3-4.6-6.5-2.8-9.4ZM205,482.2c-1.3-.8-2.8-2.2-2.9-3.8,1.3.8,2.8,2.2,2.9,3.8ZM206,496.1c-1.5.1-2-1.7-1.9-2.9.9.5,1.1,2.1,1.9,2.9ZM205,471.6c.7,0,1.1,1.7,1.3,2.3.3.8.7,1.6.6,2.5-1.3-1-1.9-3.3-1.9-4.8ZM208.3,497.5c-1.1-.6-2.2-2.1-2.4-3.4,1.1.6,2.4,2,2.4,3.4ZM206.9,507.1c1.6.9,2.6,2.5,2.4,4.3-1.4-1.2-2.7-2.3-2.4-4.3ZM209.3,499.9c.6-.5,2.9,1.9,2.4,2.4-.6.6-2.2-1.9-2.4-2.4ZM210.3,493.2c1.4.7,1.8,2.9,1.9,4.3-1.3-.8-1.5-3-1.9-4.3ZM212.6,502.2l.7,2.4-.8.2-.7-2.4.8-.2ZM212.7,470.6l4.2,9c.1.8-2.4,3-2.8,2.5l-1.4-11.5ZM214.6,495.1c2,1.7,2.2,5,3.4,7.2-1.4.2-.8-.3-1.1-1-.8-2-1.4-4.1-2.3-6.1ZM216.3,514.1l-.7.4-1.8-3.3.7-.4,1.8,3.3ZM219,512.2c.4.5,1.4.6,2,1.6,1,1.7,1.9,5.1,2.7,7.2-2.6-3-5.2-6.8-5.8-10.8.8-.7.8,1.5,1.1,2ZM218.9,500.4c-1-.4-1.3-2-1.7-2.9-1.1-3-4.1-10.6-2.9-13.4.4-.9,2.1-1.8,2.9-2.4,2.1,6,3.2,12.4,1.7,18.7ZM217.6,478c-1.9-6.4-6.7-12.6-8.5-18.9-.8-2.8.1-2.1.2-3.6,0-.7-.6-4.8-.5-5,1-.2.9.4,1.3.9,1.2,1.7,3.1,4.2,4.5,5.6.7.7,2.3,2.4,3.3,2.6.9-.8-2.8-9.1-2.2-11,3.1,3,6.9,5.7,10.1,8.6,5.1,4.8,8.5,7,2.9,13.5-1,1.1-9.4,8-10.1,8.1-.7.1-.8-.3-1-.8ZM216,455.8l-1.9-5.6.9-.7,1,6.2ZM213.6,387.6l1.4-3.5,1.5-.3v2.9c-1.4-.9-1.8.3-2.9,1ZM216,408.5c.2-6,2.1-13.6,5.7-18.5-.1,1.3.3,2.8,0,4-.2.6-1,1.1-1.3,2-1.5,4.8-2.9,9.8-3.9,14.6-.9,0-.5-1.6-.5-2.2ZM223.9,380h-.7s0-1.4,0-1.4l1.9-.5c.2.9-.6,1.3-1.2,1.9ZM236.9,378.1c.7.3,0,1.4-.4,1.8-.4.4-1.6,1.2-2.2,1.1l2.6-2.9ZM234.7,372.3c.6-4.2,3.1-6.2,7.2-6.7-1.6,3-4.1,5.3-7.2,6.7ZM232.3,316.2c0,1-.1,2.9-1.7,2.4-1.7-.6,1.3-2.9,1.7-2.4ZM230.4,311.4c.1,1.8-.4,3.4-2.4,3.4-.3-.3,1-3.8,2.4-3.4ZM228,317.1l-1-.7.7-1.2.2,1.9ZM221,312.2c-1.3-.2-2.7-1.9-1.8-3.3.2-.4,4.5-2.3,4.9-2.3.3,0,2.8,1.4,3,1.6,2.6,2.4-5.1,2.6-6.1,4ZM227.1,312.3l-1,3.4c-.8.6-3.1-1.7-3.8-2.2,0-.7,4-1.4,4.8-1.2ZM224.7,319c1.5.6,1.3-1.5,2.6-1,1.3.5.3,2.3.2,3.3-5.8,1.5-7.5-3.1-11.5-6.2,2.2.2,6.1.7,8,1.8,1.2.7,1,.7.6,2ZM218.4,320.5c-.9.2-1.6-.6-1.9-1.4.9-.2,1.6.6,1.9,1.4ZM217.9,324.8l-.5,4.3c4.3-1.9,4-.2,6.2,2.9-2.3.3-2.3-2.3-4.1-2.9-1.6-.4,0,2.7-.2,3.3-2.5-1.2-2.5-4.2-3.8-6.2l2.4-1.4ZM213.6,358.4c-1.5.4-2.5-3.4-1.2-3.3.6,0,1.5,2.6,1.2,3.3ZM212.2,368c-.3,1-1,1.1-1.9.9.3-1,1-1.1,1.9-.9ZM211.5,337.7l-1.7-2.2,1.9-.7-.2,2.9ZM210.3,347.3l-.2,1.4-1.2-1.4h1.4ZM208.6,336.8l.7,1.9c-1.3,0-2-1.1-.7-1.9ZM208.8,344.5h-1.9s0-1,0-1c.9-.1,1.7,0,1.9,1ZM187.3,382.2c.3,1.8-3.1,7.3-4.3,6.5-.1-1.9-2.8-4.9-2.8-6.5,0-1.3,1.9-3.1,1.9-4.6.7-.2.8.2,1.2.5.7.5,4,3.5,4.1,4.1ZM179.6,380l-1.4-4.1v-5.5c1.8,1.2,1.7,4,3.2,5.6l-1.8,4ZM152.2,469.7c.9-.8,4.4-5.2,5.8-3.3,1,1.4-3.8,5.4-5.8,3.3ZM153.7,471.6c-.6.8-1.8,2.3-2.6,2.9-.6.4-1,.5-1.2-.3-.4-2.3,2.1-2.9,3.8-2.6ZM152,468.2c-.4,0-.2-.6-.2-1-.8,1.2-.9,2.9-2.4,2.9l-.4-2.3,2.6-1.5c.4,0,.2.6.2,1,.4-.7.8-1.5,1.2-1.9,2.4-2.3,7.1-3.4,8-6.6h1.8c.2.7-.3.9-.7,1.4-2.9,2.8-7.2,5.1-10.1,8.2ZM139.3,412.6l1.9,1.9-1.4-.5,1.9,2.6-2.4,4.1c.3-1.2-.9-3.9-.9-4.5,0-1.3,1.8-2,.9-3.6ZM153.7,415.5l-.5-2.4c2.3-.2,2.5,1.4.5,2.4ZM155.6,425.5c-2.1,0-1.5-2.5-1.9-3.8.9.2,2.3,3.4,1.9,3.8ZM153.7,428.7c2.5-2.4,7.9-6.2,7-10-.3-1.4-3.2-4.4-2.6-5.6l10.3-8.2c-.5,2.4-2.9,4-4.2,6.1-2.4,3.8-2.2,5.5-.6,9.7l-1.5.2c0,1.7,1.2,6.5.4,7.8-1.2,2-6.4-1-7,3.3,0,.6.6,1,.6,1.3-.3,4.3-2.5,10.1-5.5,13.2l2.9-17.9ZM157,423.1l.7-6.7c2,2,2.6,5.9-.7,6.7ZM171,456.4l-.7-2.6,1.4-.4.7,2.6-1.4.4ZM172.6,457.2l.7,2.9-1.4-1.8.7-1.1ZM156.7,459l2.3-.4c-.9,1.7-3.6,2-5.3,2.4l3-2ZM155.1,457.7c.2-.6,2.5-2.2,2.9-1.9-.5,1.1-1.5,2.1-2.9,1.9ZM158.5,457.7c.2-1.1,2.4-1.5,2.8-2,.9-1.4,0-3.6,3.5-3.7l-1.4,5.5-4.8.2ZM158.9,448.6c.3-.8,1.1-1.6,1.9-1.4-.3.8-1.1,1.6-1.9,1.4ZM162.3,451.5v-.7c.5-.8,1-.8,1.9-.7l-1.2,1.4h-.7ZM164.2,417.9c.5-.5,5.1,3.4,5.7,4.1-.6,2.3-1.5,4-3.8,5l-1.9-9.1ZM165.7,416.9c1.8.8,5.4,1,4.8,3.8l-4.8-3.8ZM169.5,447.4l-.7,1.2c-.9-.6-.8-1.4-.7-2.4l1.4,1.2ZM166.9,446.7l.7,1.9h-1.4c-.1-.9,0-1.4.7-1.9ZM167.8,452.4c1.2,0,.8,3.5-1,3.3-1.8-.7.4-3.3,1-3.3ZM169.5,455.3l.5,1.4h-1.9s0-.9,0-.9l1.4-.5ZM169.5,453.4l-.5-2.9,1.9,1.8-1.4,1.1ZM171.4,406.8l-.9-.7,1.4-1.7-.5,2.4ZM169,416.4c-3.3-.7-5.9-1.4-3.3-5l4-4.6c2.3,1-1.3,7.3-.7,9.6ZM149.3,444.7l-1.9-2.6c1-2.7,1.9-5.4,3-8,.3-.7,1.2-1.5,1.3-2.2.1-1-.7-1.3-.8-1.9-.2-1.3,1.3-3.4-2.1-2.1.2-2.7.2-4.2,2.2-6.2,2.8,3.2,2.1,7.7,1.6,11.7-.3,2.7-1,5.3-1.4,8l-2.4-2.9c1.1,2.1.9,3.9.5,6.2ZM148.9,446.7c-1.2-.5-1.6-1.6-1.4-2.9.9.3,1.5,2,1.4,2.9ZM148.4,424.1c0-1.2.3-3.4,1.9-3.4l-1.9,3.4ZM152.7,418.4l.5,3.8c-1.9-1.1-1.2-2.3-.5-3.8ZM151.7,419.3c-.8.7-2-2.3-2.6-2.4.8-3.1-.9-1.1-1.2-2.2,1.3-.3.7-2,2.2-2.1,1.7,0,2.6,5.7,1.6,6.6ZM147.2,414.5l-1.2-1.2v-.7s2.4.5,2.4.5l-1.2,1.4ZM147.9,465.8c.2,1.3-.8,2.3-1.9,2.9-.3-.4,1.3-2.7,1.9-2.9ZM145.5,432.3c-.5.4-.8,2.8-1.7,2.4-1.9-.9-3.4-8.2-4.1-10.3,2.2-.8,2.5-3.7,4.8-4.1l-.9,6.4,2.4,1-2.9,4.8c0,2,1.8-.8,2.4-.2ZM140.5,437.1c-1.4-1.2-1.3-3.1-1.2-4.8,1.9,1.1,3.3,3,1.2,4.8ZM142.6,407.3c-1.2.2-2.5,0-2.4-1.4.1-.2,2.3.9,2.4,1,0,0,0,.3,0,.5ZM141.7,412.1c-.5.5-1.9-1-1.4-1.4.5-.5,1.9,1,1.4,1.4ZM143.6,417.4c1.2,2.2-1.4,3.5-2.9,4.8-.2-1.1.4-1.8.9-2.7.3-.7,1-2.4,2-2.1ZM142.2,404.4l4.3,1c-1.4,2.7-3.1.9-4.3-1ZM139.8,398.7c.4-.5,7,3.5,7.2,4.8-2.6-.8-8.1-1.1-7.2-4.8ZM138.8,427.9c1.1.3,1,1.5.9,2.4-.3.6-1.2-1.7-.9-2.4ZM139.3,437.5c1-.2,0,2,1.2,1.4.9-.4.8-2.5,1.7-2.2,1.4.8.4,3.8.5,4,.1.2.9.1,1.3.9.3.7.6,1.7,1.1,2.8.3.5.7,1.1-.2,1.2-.2,0-3.9-1.2-4.2-1.4-1.9-1.3-1.2-4.8-1.3-6.7ZM145.9,448.3c.3-.6-.2-.9,1-.7-.1,2.3,1.2,5.2-1.9,5.8.5-1.7.1-3.4.9-5.1ZM147.9,468.7c2.3,2.4-4.6,7.9-5.3,7.2-.8-3.7,3.1-5.1,5.3-7.2ZM148.1,450h-.7s.2-1.9.2-1.9l1.2,1.2-.7.7ZM152.7,463.5l-1.3,1.4c-.9-.2-1.9,2.1-2.5,1.5-1.8-1.7,2.7-2.5,3.8-2.9ZM162.6,466.3l4.7-4.3c1.1,3.6,2.1,7.3,2.2,11l-7.2-5.5.3-1.2ZM170.2,459.1l1.2,1.9c-.2.2-2-.4-1.4.7.5,1.1,1.8.2,2.4.5,2.1,1,2.1,7.2,3.3,9.2.9,2.7-4.6,3.7-5.2,1.8-.4-1.1-.4-4.4-.7-6-.5-2.9-2.8-6,.4-8.1ZM163.7,383.3c.3,1.1-.2.8-.6,1.1-1.4,1-2.6,1.9-3.7,3.2l1-4.8,3.4.5ZM159.6,392.2c1.9,1.8,2.3,3.5,3.7,5.6.7,1,4.7,5.8,4.6,6.3-1.1,1.2-10.5,8.5-11.2,8.4-.4,0-.9-.9-.7-1.4l1.4-.5-3.9-.2c-2.5-1.8,2.7-7.1,3.1-8.4.2-.6-.4-1.7-.2-2.6.5-3,1.4-5.2,2.4-7.9.7-.2.3.4.7.7ZM158.8,388.3c-1.3,5.9-5.4,11.8-6.8,17.6-.2.6.3,1.4.1,2.1-.6,2-3,.9-4.3,0,.2-1.1,0-2.7.5-3.8.5-1.4,1.8-2.2,1.9-3.6l-1.4,1.9h-.7c-3.4-5.4-11.7-4.2-14.5-9.5-.8-1.4-2.6-7.3-1.5-8.5,2.4-.6,5.5-4.2,7.5-4.5,1.5-.2,4.9.3,6.6.5,4.4.5,8.8,1.6,13.2,2.4.2.3-.4,4.6-.5,5.4ZM129.7,417.4c0-2.2,2.2-9.9,5.6-7.2,3,2.4-3.7,6.4-5.6,7.2ZM137.4,424.1c.2,1.1-.4,2-1.4,2.4,0-.9.5-2,1.4-2.4ZM131.1,418.8c-1-1.1,3.7-3.5,4.1-4.3.7.4-.2,1.3-.4,1.7-.4.5-3.3,3-3.6,2.6ZM131.2,421.5c0-.3.8-1.1,1.1-1.5.2-.3.9-1.2,1.2-1.2,1.7,2.8-2.2,5.2-2.3,2.6ZM130.6,430.3l-.5-3.8c3.2.3,2.4,2.2.5,3.8ZM131.1,436.6l2.4,5.3c-3.3-.5-2.4-2.7-2.4-5.3ZM133.3,438c-2-5.2,0-4.3,1.2-9.1.8-.2,1,.2,1.4.8,1.8,2.8-.7,8-.9,11.2-.7-.4-1.4-2.1-1.7-2.9ZM137.2,435c0-.5-.8-1.1.7-.8v8.6h-1.4c-.2-2.6.3-5.3.8-7.8ZM136,402.4l-.5-1.8,2.9,1.9h-2.3ZM138.3,400.6c-.7,0-4.7-2.5-3.8-3.4,1.4,1,4.2,1.1,3.8,3.4ZM132.5,400.6c-.3.3-1.5-.6-1.4.7.1,1.5,3.3,3.8,0,3.6.6,2.5-1.7,1.3-3.4,1.4.3-3,1.8-6.1,1-9.1l1.7,1.9h.7c0,0,.3-1,.3-1,1.1-.2,1.5,2,1.2,2.4ZM122,415.5c1.3-7.1-3.6-11.9-4.8-18.5l4.5-5.2h.9c2.5,1.5,5.4,6,5.2,9,0,.7-.8,4.7-1.1,5-.4.5-1.6.4-1.8.6-.2.2.9,5-1.9,5.5l1.4,1.3c.1,1.3-1,2.4-2.3,2.3ZM123,418.3h-1.4c0-1.8,1.4-1.8,1.4,0ZM109.5,418.8c2.9.2,6-.3,8.9,0,.7,0,1.7.2,1.7,1.2-.9,3.8-2.8,10-5.9,12.6-.7.6-1.5.1-1.7.3-.6.4-1,2.1-2.7,1.8-1.1-.2-.2-3.3-.2-4.1-.1-4-.7-7.8,0-11.8ZM109.1,417.9l-1-6.7c4.2-1.7,4.5.3,7,1.8,1.8,1.1,4,2.1,5.9,3l-.8,2.4-11.2-.5ZM112.4,409.4l-4.8.3c1.8-9.1,0-20.8,7.4-27.3,1.5,3.2,2.9,5.9,5.8,8.2.2.4-.6,1.4-.9,1.8-1.3,1.3-3.3,2.2-4,4.2,1.3,6.3,5.9,11.8,5.1,18.5l-8.6-5.6ZM101.4,402c.9.5,4.7,7.8,4.3,8.2h-3.8c.1-2.8.3-5.4-.5-8.2ZM101,396.1c.3-1.8,3-2.5,4-3.7,2-2.4,2.7-8.2,7-8.6.3.2-2.9,5.2-3.1,6.2-.1.7.3,1.4.2,2.1-.7,5.3-1.1,10.7-1.9,15.9,0,.7-.2,1.5-.9.7-1.1-3.6-5.8-8.9-5.2-12.6ZM101.4,380.9c2.1.5,3.6-1.4,5.5-1.5,1.6,0,3.6.9,5.5,1-.6-.4-4.9-2.3-5.6-2.3-.6,0-3.8,3-5.4,2.3v-12.5c6,2.4,9.4,6.7,13.4,11.3l-.3,1.2c-.7,0-1.4,0-2.1,0,.4.3.9.9,1.4,1.2-1.8,1.1-3.5.8-5.3,2.4-2,1.8-3,6.4-4.4,7.8-.7.7-2.5,1-3.2,2,.2-4.5,1.6-8.3.5-13ZM101.4,364.6l3.4,3.8c-2.2-.4-3.9-1.3-3.4-3.8ZM127.8,384.8c1.6,0,1.9,2.2,1.9,3.4-.8-.1-2.2-3-1.9-3.4ZM126.8,419.3c.3,1.8-.9,3.5-2.9,3.4-.4-1.9,1-3.2,2.9-3.4ZM126.8,409.2l.5-1.9h1.4s0,.7,0,.7c-.6.6-1,1.4-1.9,1.2ZM128.7,414c0,.5.1,1.1,0,1.6-.6,1.8-3.3,0,0-1.6ZM100.4,364.1v1.9s-.7,0-.7,0l-1.2-1.2v-.7s1.9,0,1.9,0ZM100.3,367.1c.3.5.7,10.5-.1,10.5-.7-3.8-1.8-7.6-1.7-11.5.4.3,1.7.9,1.8,1.1ZM101.9,411.2c.9,0,4.7-.4,4.8.7l-1.9,5.5c2.5-.1,1.1-3.9,2.9-4.8l1,5.3h-4.5c-1.2-.5-2.6-5.3-2.2-6.7ZM108.4,419.3c.4.6.5,14.2,0,14.8-.1.2-.9,0-.8.3,2,3,.7,8.5,1,11.9.3,4.3,1.7,9.2,2.3,13.6.2,2,.5,4,.5,5.9l-5-19.7c-2.5-9-1.8-18.2-2.6-27.4l4.6.4ZM138.8,474c.2-.1,1.5,1.5,2.3.9.2-.2-.3-1.1.5-.9,1.1,4.6-1.1,4.8-3.6,7.7-2.7,3.1-5.1,6.6-8.4,9.1,1.9-6.1,6-11.3,9.1-16.8ZM136.9,473.5c.2.9-.6,1.6-1.4,1.9-.2-.9.6-1.6,1.4-1.9ZM148.4,474c1.1,1.4-1.8,5.6-2.9,4.8-1.7-1.3,1.2-4.5,2.9-4.8ZM221.8,540.2c-.6,3.1-3.8,1.3-5.8,1.4,1.2-1.6,4-1.4,5.8-1.4ZM218.9,533.5c1.3,1.2,2.9,3,3.3,4.8-1.4-1.1-3-3-3.3-4.8ZM216.5,524.6c-.9-1.8-1-4.1-1.8-5.9-1-2.4-2.7-4.8-3.5-7.3,2.6,1.1,3,4.2,4.4,5.9.7.9,1.6,1.1,2.3,2.1,2.8,4.2,5.5,9.6,6.8,14.6-2.6-2.4-6.7-6.2-8.2-9.3ZM225.9,528.7c1.4,1.4,2,2.8,1.7,4.8-1.3-.8-3.3-3.6-1.7-4.8ZM228.5,560.8l-1.7,2.9c-1.3-.5.8-3.2,1.7-2.9ZM228.3,544l-.7-.7.5-1.7.9.7v.9s-.7.7-.7.7ZM228.7,534l1.2,1.7c-.5.7-1,.8-1.9.7,0-1-.2-1.8.7-2.4ZM230.4,547.9c-1.2-.5-1.6-1.6-1.4-2.9,1.2.5,1.6,1.6,1.4,2.9ZM230.4,558v.7s-1.2,1.2-1.2,1.2l-.7-.7,1.2-1.2h.7ZM254.4,401.1c-.3,1.1,1,2.9-.5,3.4.2-.8-.6-3.1.5-3.4ZM252.5,407.8l-.9-.2,1.2-3.1c1.6,1.1,0,2.1-.2,3.4ZM250.6,412.1c-.7-.9,1.6-2.2,1.9-.7.3,1.3-1.6,1.1-1.9.7ZM275.5,451.9l1.2-5.3,5-1.9c.4,3.8-3.3,5.7-6.2,7.2ZM280.3,450v.7c-.5.8-1,.8-1.9.7l1.2-1.4h.7ZM273.6,446.9c-1.7,1.2-3,4.5-5.8,4.6l-1.4-5.3c1.5,1.1,3.3,2,5.3,1.9-.1-4.3-6.2-4.4-3.3-9.1.3-.3,3.1,3.9,3.5,4.2,1.7,1.4,4.5,0,4.7.1.4,3.4-1.3,2.5-2.9,3.6ZM256.8,526.8l-1.9-.2-.5-.5.5-1.2,1.9,1.9ZM255.4,522.7l.9-.2.5,1.9-.9.2-.5-1.9ZM252.5,521.5l.5,1.9h-1.4l.5-1.9h.5ZM253.4,503.3c.1.9,0,1.7-.9,1.9-.1-.9,0-1.7.9-1.9ZM252,524.4c.5.5-.9,1.9-1.4,1.4-.5-.5.9-1.9,1.4-1.4ZM253.9,533c0,.8-2.2.6-2.6.5-.8-.2-1.4-.5-1.2-1.4l3.8,1ZM253,529.7c-.2-3.9,6.8-2.9,3.4.7l-3.4-.7ZM255.4,520.5l-1.9-.8.4-3.1c1,0,1.6,3.7,1.4,3.8ZM253.9,509.7c0-.2,2.4-2.6,2.9-2.2.6.7-3,4-2.9,2.2ZM252.7,471.1l-.7-.7,1.9-1.2v1.4s-1.2.5-1.2.5ZM254.9,473.5v1.9s-.7,0-.7,0l-1.2-1.9h1.9ZM254.4,479.8c.2,0,.4-.6,1.2,0,.4.3,2.1,2,1.7,2.4-1.6-.8-2.3-.7-2.9-2.4-2.4,0-1.9-1.4-2.4-3.4,2.1,0,2,2.1,2.4,3.4ZM259.2,467.8l-.5,2.3c-1.4.2-3.8.6-3.8-1.4,1.5.1,3-.3,4.3-1ZM258.2,466.6l1.9-1.2v1.4s-1.9-.2-1.9-.2ZM257.8,488.4c-1.9.2-2.6-1.1-2.4-2.9.4.4,2.2,1.4,2.3,1.5.2.4,0,.9.1,1.3ZM260.2,489.8l-3.4.5c-.1-1.9,2.7-2,3.4-.5ZM256.9,493.3h1.9c0,1.3-.8,3.3-2.4,2.8l.5-2.8ZM257.3,492.2c0-1.9,2.2-1.2,3.4-1.9l-.4,2.2-2.9-.3ZM257.3,484.8c-.6-.9-2-1.3-1.9-2.6.5-.4,6.2,4.1,6.7,5-3.1,2.4-3.7-.8-4.8-2.4ZM252,486c1,.3,1.1,1.5,1.6,2.2,1.1,1.6,2.5,1.9.8,4-3-1.1-2.4-3.5-2.4-6.2ZM255.4,501.4v2.4s-1,0-1,0l.5-2.4h.5ZM256.8,506.1l1.9-2.6c0-2-1.9.8-2.4.2l.5-5.3c.6-.7,4,4,4.5,4.6.4.5,2.2,1.7,1.5,2.6-2.4,2-3.3.2-6,.5ZM263.5,506.6l.5,1.4-1.9-.2,1.4-1.2ZM260.8,501.2c-.7-.7-3.2-3.6-3-4.3l4.8-3.4-1.3-1.4.3-.9c2.1-.2,1.4-1.8,2.9-2.7-1.9,5.4-1.1,10.3.9,15.6l-1.2.7c-.9-1.3-2.5-2.5-3.4-3.5ZM257.8,481l1-1c-.2-1.6-2.1-1.7-2.6-2.8-.6-1.4.3-4.1-.3-5.6h1.6s.8,1,.8,1c1-2.1.9-5.1,3.8-4.8.4-1.3-.8-.9-1.4-1.7,1.2-2.6,4.6-2.8,7.2-3.1-.3-3-3.1-.3-4.6,0-.9.2-1-.4-.5-.9,1.8-2,6.2-1.5,8.4-.5l1-1.4c-3.5,7.5-3.1,16.8-5.6,24.4-1.9,5.7-6.5-1-8.8-3.5ZM265.9,457.4l2.4-2.6,1,4.3-3.4-1.7ZM270.2,459.1l-1.4-4.9,5.7-3.7c.1,1.6-1.7,10.8-4.3,8.6ZM268.3,452.9l7.2-5.8-.8,1.9-6.4,3.9ZM270.2,446.7l-3.6-1.4.3-1.9,3.4,3.4ZM267.3,438.5h-.9s-.5-2.4-.5-2.4c1,.4,1.6,1.3,1.4,2.4ZM266.4,449.1l1,3.5-1.2.8c-1.1,0-1.1-5.7.2-4.3ZM265.9,459.1c1,1-2.3,1.7-2.9,1.4l.5-1.9,2.4.5ZM263.5,443.3l-.9-5.8c1.6,1.1.8,4.1.9,5.8ZM262.1,429.9l1.2-1.9,1.2,1-2.4,1ZM264.9,430.3v1.4s-2.4,0-2.4,0c-.4-1.4,1.5-1.4,2.4-1.4ZM263,435.6c-.3.6-1.1-1.9-1.4-2.4,1.5-.1,1.6,1.2,1.4,2.4ZM249.1,467.3c-.3-1.7.2-2.3,1.9-2.4.2.2-.9,2.9-1.9,2.4ZM252,508.1h-1.9s1-2.4,1-2.4l.9,2.4ZM252,534.4l4.8-1v1.4c-1.5-.8-3.2-.4-4.8-.5ZM254.4,532v-.5c1,0,2.5-.3,2.9.9l-2.9-.5ZM265,515.7c1.4,1.3,1.3,4.4,1.9,6.2-.7,0-.9-1.4-1.1-2-.4-1.4-.8-2.8-.8-4.2ZM268.6,496.6l1.2,14.4c-3.9-3.4-4.1-10.1-1.2-14.4ZM280.8,392.9l.5,3.4c-1.3-.2-2.5-3.7-.5-3.4ZM279.8,398.2c-1.1-.4-1.5-1.8-1.4-2.9.9.3,1.5,2,1.4,2.9ZM279.3,393.4h-1v-1.4h1v1.4ZM280.1,422.7c.8,1.3-2.1,18.2-3.2,19.6-2.8,3.1-8.3-3.8-7.8-4.7,4.4-2.5-1-2.2-1.9-3.3-.6-.8-.6-3.4-1.2-4.5l.8-.7c1.1-.3,3.1.5,3-1.5h-3.4c.5-1.3-.4-2.8,1.4-2.9-.9-2.4-3,.9-4.1-.5-2.2-3,.4-2.9.2-4-.8-1.5-5.1-3.3-2.4-4.4v-.9s-2.4-2.4-2.4-2.4c.1-.9,5.1,2.5,4.3.5-.5-1.3-3.6-1.8-4.1-2.6-.4-.7-.2-1.7-.5-2.4-1.3-2.9-3.3-4.3-1.7-8.1l1.9.5c-1.4-2.3-1.1-4.3.7-6.2,1,1.5,1,3.2,1.7,5,1.7,3.9,2.6,4.7,4.1,9.3,1.8,5.3,8.2,9.4,12.3,13.4.5.5,1.6.5,2,1.1ZM277.7,419.3c-4.4-4.2-10.5-6.6-11.3-13.4,1.4,1.9,8.7,6,9.5,7.3.3.4.1,1.2.4,1.7.7,1.3,2.5,2.3,1.4,4.4ZM276.7,413.1c-1.4-2.2-9.2-6.4-10-8.3-1.3-3.2.4-7,1.6-10,3.5.6,5.2,7.1,5.6,10.1.1,1.1-.5,2.5-.3,3.1.3.8,1.3.6,1.8.9.3.2,2,3.6,1.3,4.2ZM276,404.9c.7-.1.6.8.8,1.3.5,1.4.9,3,1.1,4.4l-1.7-3.3-.2-2.4ZM277.9,353.6h1.9s0,.5,0,.5l-1.9.5v-1ZM282.2,363.4l1.9-8.9c.6,1.6.6,8.8-.5,9.6-.3.2-1.8.3-1.4-.7ZM282.7,332c-2.7-1.5-1.7-3.4-1-5.8l-7.7-2.2c.5-3.7,7.6-1.6,9-.1,1.6,1.7,0,6.1-.4,8ZM272.2,323.8c.1-1.5-.3-3-1-4.3l3.4,1.4c.5.6-1.7,2.6-2.4,2.9ZM270.7,317.6l-.5-1.9,1.4,1.2v.7s-.9,0-.9,0ZM271.2,322.4l-1.9-1.7,1.4-.2.5,1.9ZM266.9,316.2l2.4,3.4c-2.1.3-2.5-1.8-2.4-3.4ZM266.4,310.9c1,.5,1.9,1.7,1.9,2.9-1-.5-1.9-1.7-1.9-2.9ZM267.3,320.6c.6.9,3.3,2.6,4.4,3,0,1.1.3,2.7-1,3.1.9-1.4-2.2-5.1-2.4-3.1,0,.2.7,3.4.9,3.9.3.9,1.4,1.5,1.4,2.3,0,.7-1.2,4.1-2.1,4.3.5,2.2-2.9,4.8-3,6.4-.1,1.3,1,2.7,1.3,4,.4,1.8.4,3.8.8,5.4.9,3.6,3.8,6.6,3.6,10.5l-7-7.2c-.2-.5,1.2-2.7,1.2-4-.1-2.9-3.4-5-3.7-6.9-.2-1.2,1-2,.7-2.5-.3-.6-4-2.4-5-3.1-5.2-3.8-10.3-7.2-15.5-10.7-1.4-1-3.2-3.5-4.7-4.5-1.1-.7-2.2-1-3.4-1.5.4-8.1,3.9-2.3,8.2-1.6v2.9s1.4-3.8,1.4-3.8c-1.4,0-2.8-.4-4.2-.9-.6-.2-3.1-1.5-3-2.2.9-3.8,7.6-5.1,11-5.6l-.7-1.9-5.5,2.4,2.6-2.9c2.4-1.5,4.8-3,7.7-3.4l10.7,1.6c.9,1.4.4,3.1.8,4.7.4,1.7,2.2,3.6,2.7,5,.7,1.8.8,5.1,1.9,6.7ZM258.1,290.8c.2-.5.8-1.9,1.8-1.5,2.2.9-1.2,2.6-2.1,2.9-.4-.8.3-1.1.4-1.4ZM263.2,306.7l.7-.2,1.2,4.4-.7.2-1.2-4.4ZM264.9,304.6l.5,2.4h-1s-.5-2.4-.5-2.4h1ZM259.2,236.5c-1.6-1.3-1.8-4.3-1.9-6.2l1.9,6.2ZM259.2,245.8l-.5-8.1c.3-2.1,1.4,2.2,1.4,2.4v8.9l-.9-3.2ZM251,276.1c.8-.9,6.9-5.4,7.9-5.5.8,0,1.4,0,1.6.8l.6,11.6,1.2.5.7-1c0,1.4-.6,2.6-.5,4,.1,1.5,1.2,2.3,1.4,3.7l-4.8-1.9,1.9-3.2-.6-1.1c-1.2,1-2.4,0-3.3,0-.3,0-2.2,3.2-4.6,1.7-.7-.7.2-1.5,0-2.4-.1-.8-1.2-2.8-1.7-3.6l-.2,5.3-2.4-.8c.2-2.8,1-5.9,2.9-8.1ZM247.7,280.2c.1.3-.3,2.2-.5,2.4,0,0-.3,0-.5,0-.2-.4.3-2.7,1-2.4ZM242.4,291.7c1.2.5,1.6,1.6,1.4,2.9-.7,0-1.6-2.7-1.4-2.9ZM241.5,285.5h.5c0,.9.1,2.1-.9,2.4l.5-2.4ZM239.1,287.6l1.4-1.7-.5,2.4h-.9s0-.7,0-.7ZM242.9,296.7c1,.9,2.5,2.1,3.8,2.6.1.9-1,.4-1.5.3-2.9-1-5.9-3.7-8.1-5.8,2.5-2.4,3.9,1.3,5.7,2.9ZM236.4,294.7c2.8,2.5,5.7,5.1,9.3,6.1.2.3-2.6,3.7-3.2,3.8-.8.1-1.2-1.6-2.6,0l.9-2.5c-1.9-3.1-4.2-1.1-6.4-1-1.9,0-4-.6-6-.3.6,1.1-.5,2.1-1.2,2.9l-1.2-.8c-1-4,7.7-6.6,10.3-8.2ZM225.6,300.8l-.5,1.9-2.3-.7,2.9-1.2ZM227.5,307.5c-2.3-2.2-4.8-2.4-7.7-3.6,1.6-2.5,8.9,2.1,7.7,3.6ZM218.4,306.1h1.9c-.3,1-1,1.1-1.9,1v-1ZM217,310.4l1.2,2.9,1-1,4.1,3.4-7.6-2c-.2-1.3-.4-3.4,1.4-3.3ZM211.7,300.8l-.2.9-1.7-1.4,1.9.5ZM213.1,309c-.5,1.3-2.1,1.5-3.4,1.4.5-1.3,2.1-1.5,3.4-1.4ZM210,321.4l.7,1.2,1.5-.3-1,2.4,2.1-.4c2,1.7,1.4,4.6,2.2,6.9l-.5.5c-2-.7-.3,2.9-2.9,2.2.9-2.2-1.8-3.2-2.4-5-.6-1.5,2.3-4.3-1.9-3.1-.4-1.4,1.8-1.1,1.4-2.2-.6-1.6-2.3-.6-2.4-.7-.3-.9.6-2.4,1.4-1.8l.3.9,1.4-.5ZM208.3,300.3c-.2.2-4.6-3.5-4.8-4.3,1.5-.7,5.3,3.8,4.8,4.3ZM208.8,302.3l-.5,1.9c-1.1-.5-2.3-1.7-3.3-.2l2.9,1.4c-.5,2-3.7,1.5-4.3,2.9-.7,1.4,2,0,1.9,1.4,0,.7-1.2,4.6-1.9,4.1,0-8.5-6.4-12.7-12-17.7,3.5,0,8.4.3,11.4,2.3,1.7,1.1,3.3,3.7,5.9,4ZM201.6,295.5c.1.9-1,.4-1.5.3-.8-.2-2.9-.5-3.3-1.2l4.8,1ZM195.4,295l-5.9-.6-10.4-2.8c5.2.7,12.5-.8,16.3,3.3ZM178.1,289.8h3.4v.5h-3.4v-.5ZM170.5,286.4l6.7,1.9c-.5,1-3.1,1.1-4,.9-.5-.1-2.9-1.9-2.7-2.8ZM185.3,294.6c-.2,1.1-2,0-2.9.7-.7.5-.5,2.9-3.1,2.7l-10.8-6.7,16.8,3.4ZM176.2,297.2c.4.3,1.9,1.5,1.5,2.1-1.9.2-4.9,2.7-6.5,2.9-1.8.2-6.2-2.4-8.4-2.4,1.3-1,4.4-6.7,5.5-6.7.8,0,7,3.4,7.9,4.1ZM160.9,300.8c2-.4,4.9.7,7,1.4.6.2,1.5,0,1.7,1l-4-.5-4.6-1.9ZM162.3,305.6c-.4,1.3-4.2,1.3-3.8-.5l3.8.5ZM150.8,295.5c-.2-1.2.1-.7.7-1,4.7-2.1,10.1-3.6,15.2-2.4.9.9-3.9,6.4-5,7l-10.8-3.7ZM162.8,285.7c.8.2,4.4,1.7,4.8,2.2.7.8-.1.8-.7.9-3.8.9-8.2.6-11.8,1.7-2.2.7-5,3-7,3.6-1,.3-.5,0-.5-.5,0-1.4.4-1.9-1.7-2.4,1.1-.9,3-2.1,4.3-2.6,3.5-1.6,8.8-3.6,12.5-2.9ZM152.2,286.9c.6.3-1.7,1.2-2.4,1-.6-.3,1.7-1.2,2.4-1ZM146.4,288.9c.8-.3,1.6-.7,2.5-.6-1.2,1.3-3.6,2.2-5.3,2.4.4-.6,2.1-1.5,2.8-1.8ZM145,301.3l-2.4-.7c.3-.8,1.2-.2,1.4-.4.3-.3.3-1.3.8-1.8.4-.4,3.1-2.2,3.4-2.3,2-.4,9.6,3.4,12.1,3.8.1.7-.9.7-1.3.8-2.7.6-5.6.8-8.3.1v1.9c2.1.7,4,.2,5.9.2.4,0,2.3,0,2.2.8-5.8,0-11.4,2.7-17.3,3.4.4-1.2,2.3-1.4,2.9-2.3.3-.5,1-2.4-.3-2.1-2.4.7-5.3,5-8.9,4.3,2.6-2.8,5.6-5.3,9.6-5.8ZM157,306.1c-.4,1.1-2.9.2-3.8.5.4-1.1,2.9-.2,3.8-.5ZM129.9,306.6c.7.2,1.5,0,1.7,1l-6.2.5c0-2.1,3.2-1.8,4.5-1.4ZM105.9,320.9c1.1-1.9,3.6-4.8,4.9-5.7,3-2,6.5-4.4,10.2-3.9l-4.3,1.7-11.5,9.8c-.2-1,.3-1.3.7-1.9ZM120.6,312.8c-.3,2.1-2.4,2.6-3.1,3.4-.9,1-1.6,2.5-2.6,3.3-1,1-8.9,6-9.7,5.3-.1-1.7,1.9-1.9,2.8-2.7,3.9-3.5,7-8.2,12.5-9.3ZM97.1,336.5c3.9-3.3,9.2-6.3,13.5-9.1,6.6-4.3,9.3-6.7,14.5-12.8,1.2-1.4,4.1-2.5,5.4-4.2,2.7.4,5.4.7,8,.8,5.3.2,10.4.4,15.7,0,1.1,0,2.1-.9,3.2-.8-1.2,3.4,2,.8,3.5.4,1.7-.5,3.2-.9,4.5-1.3.4-.1,3.3-.5,3.6-.4.5,0,6.8,3.1,7.1,3.5.9,1.2,1.3,4.7,2,5.9.7,1.1,3.1,2.7,3.9,4.5.6,1.5,2.7,10.3,2.5,11.5-.1.6-5.3,11.3-5.7,11.9-2,2.3-11.6,5.8-14.7,7.1-1.5.6-2.5,1.9-4.3,1.7.4,6.9.8,13.9.5,20.9,0,1.1-.4,5.7-1.2,5.8-4.3-.7-8.7-1.7-13-2.2-1.7-.2-5.7-.8-7.2-.6-2.2.3-4.6,4.3-7.4,4.3-1.1-5.1-3.3-9.7-6.7-13.7.6-.8,1,.2,1.4.6,1.3,1.4,2.8,2.9,3,4.9,1.2-.2-.1-2.3-.4-2.7-2-3.7-4.9-4.9-7.8-7.6-.5-.4-3.9-3.8-4-4.1-.2-.5.3-1.3.2-2.1-.1-.6-4.2-4.6-4.7-4.9-1.1-.6-3.5-.8-5.1-1.6-3.3-1.6-9.1-5.7-11.2-8.5-.3-.5-1.3-.5-1.4-1-.6-2.5.6-4.6,2.4-6.2ZM92.3,343.5v-1.4s1.4,1.4,1.4,1.4h-1.4ZM92.7,356c-1.1-.3-1-1.5-.9-2.4h.5s.5,2.4.5,2.4ZM93.7,337.3c-.2.2-1.1,3.4-1.9,2.4-.3-.4.9-2.8,1.9-2.4ZM92.3,351.4l-2.6,1.6-1.9-2.3-1.2.9c-.7-2-1.7-3.6.3-5.3.4,0,2.1,1.3,2.5,1.6.9.9,1.8,2.6,3,3.4ZM88,340.9l.7-1.2,1.2.5-.5,1.4h-.7s-.7-.7-.7-.7ZM86.5,331.8c.2-3.9,0-7.9.5-11.8l2.8,7c-.4,2.2.6,4.7.6,6.7,0,1.9-1.8,2.7-.5,4.5-1.6.6-4.1-1.8-4.2-3.2,0-.8.8-2.1.8-3.3ZM86.6,309l-.6-3.4h.7c0-.1.6,3.3.6,3.3h-.7ZM88,302.7l1.9,6.7c-2.3-1.8-2.2-4.2-1.9-6.7ZM71.2,248c.6-.7,3.4,2.7,2.9,3.4-.6-.4-3.8-2.3-2.9-3.4ZM73.1,262.9c-.6,0-.8-.7-.9-1.2-.5-3-.1-7.6-.5-10.8,4.9,2.8,3.8,7.8,1.4,12ZM63.9,246.3c2.5-.5,6.5-.6,6.7,2.7-5.8-1.4-10.6-.3-14.9,3.8,1.1-2.7,5.3-5.9,8.1-6.5ZM59.3,251.3c2.3-1.4,9.5-3.7,11.2-.8.5.9,1.4,12.2,1.2,13.7-.6,3.6-8.3,6.6-11.7,6.5-1.3,0-5.3-.8-6.5-1.2-.5-.2-5-3-5.2-3.2-1.8-3.1,8.4-13.3,11.1-14.9ZM47.7,267.2c2,.6,3.4,2.2,5.4,3,7,2.6,13.7,1,19.1-4l.5,7.7c-6.9-.5-11.6,5.1-16.5,9.1-5.1-3.6-10.5-8.9-8.5-15.8ZM56.3,285c.6-.6,3.5,1.7,3.8,2.4-1.3-.3-3.8-.7-3.8-2.4ZM64.9,289.1l10.5-1.2c0,8.7-6.4,4.4-10.5,1.2ZM75.4,286.9l-11.7,1-6.5-4.1c2.8-3.4,7.2-7.4,11.6-8.5,5.6-1.4,3.8,1.2,4.8,5,.6,2.1,2.1,4.2,1.7,6.6ZM80.2,285.9l-3.8.6c.3-3.9-2.8-7.1-2.4-11,5.7,1.5,6.7,5.1,6.2,10.5ZM80.8,277.8l-7.4-4.3-.7-7.9c1.3-2.9,3.8-5.4,3.3-8.9,1.9,1.3,4.8,6.2,4.8,8.4v12.7ZM81.2,282.6h.5s.5,2.9.5,2.9h-1s0-2.9,0-2.9ZM82.3,292.3c0-.5-1.2-7.4.8-5.9,0,2.8,2.7,6.4,2.9,8.9.1,1.6-1,2.1-1,3.5l1.9-1c.2,1.9,1.3,4.6-.2,6.2-.7,0-4.2-10.5-4.4-11.9ZM85,345.4l-.4-1.6,1-.2c1.3,1.1.4,3.4-.7,4.3l-1.2-1.4,1,2.4-1.9.5-.4-2.3,2.8-1.6ZM80.3,345.4c-1.4,1.9-2.7,2.7-1.9,5.3l-8.6,2.4c.9-1.8,9.2-8.7,10.6-7.7ZM63.7,362.2c.2-1,3.9-6.7,4.6-7.4.9-.8,9.1-3.6,9.6-3.1-.6,2.9.7,2.2,2,3.4,4.3,3.8,8.8,5.7,14.2,7.8.8,6.2,1.9,12.3,2,18.6l-13.6,3.3c-.9.5-1.1,2.9-1.6,3.8-1.9,3.4-9.3,5.3-12.6,7.5-.7.5-3.4,3.7-3.9,3.1-.2-4.7-.2-9.5-.5-14.1-.4-6.7-1.8-16.4-.3-22.8ZM60.1,405.6l2.9-2.6-.2,3.4c-.7,1-2.9.4-2.7-.7ZM60.2,409l2-1.2.4.7-2,1.2-.4-.7ZM63,409.9c-.5.8-1,.8-1.9.7l1.2-1.4h.7s0,.7,0,.7ZM63.5,411.2l9.6.2c-.7-2.2-3.9-2.2-5.7-2.9-.5-.2-1.9-.5-1.9-1.2,2.2.5,3.5-1.4,5-2,3-1.1,11.3-.3,14.9,0,2.2.2,4.9,1.1,7,1-.8-1.4-2.7-1.6-4.1-1.9-4-.7-13.4-1.1-17.2-.1-2.6.6-4.7,2.7-7.4,2.5-.8-4.7,2.1-7.6,5.6-10,3.5-2.4,10.4-4,12.6-7.6.6-1,.6-2.6,1.5-3.3,1.9-1.5,10.3-2.2,12.9-3.6.4,2.1.2,4.8.6,6.8.5,2.7,2,5.3,2.3,8.3.3,3.9-1.3,8,.5,11.7-2.2.4-3.3-1.6-5.3-1.9.9-3.7,2.7-7.1,2.9-11l-2.9,2.6c2.4.9-.7,5.1-.9,7.1-.2.5-.6.3-1,.3.2.4.4.7.5,1.2.1,4.6-.8,9.2-.5,13.9.1,2,1.6,4.1.3,5.5-.7.7-6.2,2.9-7.4,3.1-7.2,1.3-12.9-2.7-19.6-4.2-1-4.8-2.2-9.8-2-14.8ZM63.5,408.8c1.4-.1,2.7.1,4.1.5l3.1,1.4h-7.2v-1.9ZM68.8,442.3c0,.3,0,.6,0,1l-4.8-.7c-.7-.9-2.3-8.4.2-6,1.1,1.1,1.9,3.9,3.1,5,.6.6,1.1.5,1.4.7-.3-1.8-2.2-3-2.9-4.6l2.9,1c-1-1.5-2.9-2-4.1-3.1-.6-.6-.5-1.6-1.2-1.4l-.3,1-1.7-.5,1.4,7.7-29.3-4.1c.7-.3,1.2-1.9,1.6-2,1-.6,7.2-1.3,9-1.8,7.2-2.1,13-7.9,20.8-7.5.9,4.6,2.9,8,4.9,12,.2.4-.2,1.1-.1,1.3.4.8,2.3,2.2,2.7,3.2-1.4.8-2.7-.5-3.8-1.2ZM102.3,486.5c1.7,2,3.7,4.6,3.8,7.2l-3.8-7.2ZM105.9,490.3c-1.7-3.6-4.4-5.2-6.1-8.8-2.1-4.4-3.3-9.7-5-14.2-2-1.2-3.9-2.4-6-3.4,1.7,1.8,2.4,1.9,4.1,3.4,2.6,2.2,4,9.2,5,12.5-1.4-1.1-2.7-2.7-3.8-4.1-1.6-2-7-9-7.8-10.9-.3-.8-.5-1.4-.4-2.3.9.9,2,1,2.9,1.4-3.5-3.5-2.1-2.4-3.5-6.8-.5-1.6-1-3.5-1.8-5-2.2-4-6.7-5.7-8.9-9.8-1,0,1.9,3.8,0,2.4-3.4-5.7-7.2-10.7-8.9-17.2h1.9c-.9,1.7.8,3.4,1.9,4.8l-1.4-4.3c8.6,3.2,16.9,5.1,24.9-.5-1.4,7.3,9.2,9.1,10.9,14.8.5,1.8.4,3.7.8,5.4,4.1,15.7,6.5,31,7.5,47.2,0,.9.2,3-.2,3.6-.8.3-2.8,1.7-3.4,1-1.1-1.4-1.7-6.6-2.9-9.1ZM107.6,501.3c1.4-.3,2.2.7,2.3,2.1l-2.6,2.7c-1.7-1.3.7-3,.2-4.8ZM105.2,520.5c.3.9-1.4,2.3-1.9,1.9.3-1.1.9-1.6,1.9-1.9ZM104.5,523.4l.2,1.4-1.9.5v-1s1.7-1,1.7-1ZM96.8,532.6c-.9-3.4,1.9-1.9,2.2-2.1.7-5.4,4.4-3.5,8.1-5.1.5.4-6.6,8.7-7.8,9.2-1,.5-2.3-1.2-2.5-2ZM105.2,534.9l-4.3,1c-.6-.5,3.4-3.7,3.8-3.4l.5,2.4ZM101,543l-2.1-2.2.5-.5,2.1,2.2-.5.5ZM101.7,541.2l-1.7-4.8,4.3-.5-.9,2.2,1.4.7c.5.8-2.2,2.6-3.1,2.4ZM110,555.3c-2.2-3.3-6.6-6.1-6.7-10.3,1.1-1.5,9.6,11.4,8.6,13.4-1.3-.5-1.2-2.1-1.9-3.1ZM123.9,591.1c-9.6,3-18.9-9.7-11.7-17.7.9-.2,1.7,2,2.3,2.7,1.3,1.5,6,4.5,5.8,6.2,0,.5-.9.9-.7,1.8.2.9,4.6,6.6,4.3,7.1ZM124.4,577.6c1.5,1,2.9,3,2.9,4.8-1.4-1.1-2.5-3.1-2.9-4.8ZM128.2,586.7c-1.2-.5-2.2-.9-1.9-2.4.7.3,2.3,1.8,1.9,2.4ZM128.4,581.1c-2.2-8.2,4.8-14.4-3-21.5-1.6-1.5-8.3-5.7-8.6-7.2-.2-.9,0-2.1,0-3.1,2.6,1.3,5.9,2.3,8.3,3.9,1.8,1.3,3.3,4,4.4,4.8.6.4,1.4-.1,2,.4.7.6.6,1.9,1.2,2.7.8,1.2,2.5,1.9,3.3,2.9.7.9,5.4,11.2,5.4,11.9-2.2,3.9-5.5,7.3-6.7,11.8-.7.2-.8-.2-1.2-.5-2.2-1.5-4.2-3.5-4.9-6.1ZM116.7,547.4c2.2.2,5.8.7,6.2,3.4-1.9-1.3-5-1.3-6.2-3.4ZM140.2,569.5c1.7.8,2.3,3.1,2.4,4.8-1.3-1-2.3-3.2-2.4-4.8ZM132.1,593.5c1.1.5,1.4,2.3,1.4,3.4-1.5-.6-1.6-1.9-1.4-3.4ZM134,590.1h.5s1,2.4,1,2.4c-1.5-.5-1.7-.8-1.4-2.4ZM146.7,583.4l3.6,11.1c-.9.8-10.9-.9-12.6-1.6-1.6-.6-2.9-3.9-2.4-5.5,1.2-3.9,4.7-7.1,6.4-10.7l5.1,6.7ZM144.6,572.8c-.9-2.1-.3-4.2.2-6.2,1.2,1.8,2.9,5.9-.2,6.2ZM163.6,575.6c0,.4.4,1.4-.1,1.6-4.9-4.2-9-9.2-16-6.2-.5-1.2-.3-2.6-.7-3.8-.5-1.4-1.9-3-2.1-3.7-.4-1.3.1-2.8-.1-4.2,0-.4-1.5-4.8-1.6-5.1-.6-1.1-1.7.8-1.7,1.4h-.9s-24.5-17-24.5-17c4.1-3,7.6-7.2,8.6-12.2l-2.8,5.2c-1,1-2,2.7-3,3.7-2.6,2.4-2.9,2.1-6.2,1.2,4.4-4.6,8.2-9.8,10.3-15.8,1.4-3.9,2-9.8,4.2-13.1,3.5-5.2,8.9-10.1,13.1-14.7.5-.6,4.6-6.1,5-5.8l.5,1,1.9-3.8c.5-.3,1.6,1.8.6,1.9h-1.1c.5,1,.6,1.9.5,3.1-.5,4.2-3.2,11-3.4,14.9,0,2.2,2.2,6.2,2.8,8.7.9,3.6,1.8,9.3,1.1,12.8-1.7,7.6-6.2,9.7,0,17.1-2.6-5.8-2.6-6.2-.6-12.4.3-1,.7-3,1.6-3.5.8,2.5-.9,5.4-1,7.4,0,3.9,2.4,8,2.9,11.8,0,.1-.7-.4-1-.5,1.8,3.4,4.2,7.1,5.9,10.7.2.4,0,.9-.1,1.3l2.4.7c-1.2,1.5-2,2.5-3.8,3.4,0,1.3,6.7,5.1,7.1,5.6.3.4,2.2,7.4,2.4,8.4ZM164,564.7c-3,2.2-2.7-2.8-3.5-4.7,0-2.6,8.3-4.5,10.5-4l-.5-1,3.8-.5c-1.9,2.2-4.6,3.6-6.7,5.6-1,1-2.8,3.9-3.6,4.5ZM204,553.9l3.4,1.2h-3.8c.2-.7,1-1-.2-1-2.2,0-4.7.9-6.5,1.5.5,0,1.6-.2,1.9.2-3,2.6-8,3.4-11.9,4.4-4.1,1-8.1,2.1-12.2,3.2-1.5.4-8.8,2.2-9.5,1.3,5-7.5,14.7-13.8,23-7l-.7,1.2c1.7-.3,3.2-1.3,4.8-1.9,1.4-.5,3.3-1.1,4.5-1.5-1.2,0-2.1.4-3.1.5-.5,0-1.8.4-1.7-.5,1.6-.6,4.4-.9,5.7-1.7,5.4-3.2,7.7-9.6,14.8-11.1,2.8-.6,5.3.8,7.6.4,1.2-.2,1.6-1.8,3.1-1.4.5.5-1.5,2.3-1.9,2.6-1.1,1-8,5.5-8.1,6.2.6,1.3,1.7,2.5,2.8,3.4,1.2,1,3.3,1.3,3.4,3.1-5-1.2-10.2-3.5-15.3-3.1ZM214.9,563.6l.5.5-2.4,2.4-.5-.5,2.4-2.4ZM211.8,574.3c1.8-.2,7.9-7.9,9-6.8l-5.3,9c-1.3.6-4.6-.6-3.7-2.3ZM207.4,570c.1,1.5-1.2,1.6-2.4,1.4v-1s2.4-.5,2.4-.5ZM200.6,582.7c.3-.2,3.1-3,3.4-2.6-.5,3.8-2.8,4.5-6.2,3.4.2-1.2,2-.3,2.8-.7ZM202.6,587.7v2.3c0,0-3.6.6-3.6.6l-.3-1.2,3.8-1.7ZM198.3,580.5l-1.4,1.4v-1.4s1.4,0,1.4,0ZM193.5,583.9c-.4.9-1.5,1.5-2.4,1.4.4-.9,1.5-1.5,2.4-1.4ZM177.2,584.4h.9c.2,1.2-.2,2-1.4,1.9l.5-1.9ZM173.8,595.4l5.7,1.7c-2.5,1.8-5.6,2.1-5.7-1.7ZM176.7,594.4c-.4-.5,2.4-2,3.3-1.4l.5,2.3-3.8-1ZM181.5,592.5l5.3,1.9c-1.4,3.5-5.6,1.6-5.3-1.9ZM183.4,591.8c1.9-.8,5.4-1.1,7.2-1.9.9-.4,1.8-2,3-2.7.7-.4,6.2-2.6,6.6-2.3.3,3.4-5.8,4.4-6,4.8-.4.6.7,1.4-.4,2.4-2.8,2.7-7.8,2.9-10.3-.3ZM196.4,591.5c-.5-.5.9-1.9,1.4-1.4.5.5-.9,1.9-1.4,1.4ZM193.5,595.4c-.2-1.1,0-.8.6-1.1,2-1.1,7.1-2.5,9-.6-2.5,2.8-6.2,2.3-9.6,1.7ZM204.4,592.7l-2.5-.7.3-1.1,2.5.7-.3,1.1ZM208.3,585.5l-4.3.7-.5-2.6c2.3-1.5,2.9-7,6.5-7,1.4,0,2.7,1.1,4.1,1,.2.2-2.3,5.9-2.6,6.2-.7.6-1.6.3-2.2.7-.5.3-.5,1.4-1,1.9-.9.9-2.6,1.4-3.6,2.2-1.8-2,2.9-2,3.6-3.1ZM205,590.1c1.1-1.3,3.5-1.7,4.8-2.7,1.4-.9,2.2-2.8,3.2-3.5,1-.7,2.7-.6,3.5-1.7l-2.9.2c1.2-3.7,1.7-4.9,5.8-4.8.1.7-.1,1.2-.4,1.8-.7,1.7-4.7,8-6.1,9.2-3.1,2.9-4.1,1.4-7.9,1.4ZM216,597.3l2.9-3.8c.2.8-2.2,4.5-2.9,3.8ZM219.6,590.1c-.4.6-1,.5-1.7.5l1.9-1.9-.2,1.5ZM225.6,580.2c-.2.5-6.2,7.5-6.6,7.8-1.2,1-3.3,1.2-4.8,1.2,2.3-2.5,4.5-8.4,7.7-9.4.6-.2,1.3.3,1.9,0,.8-.3,1.4-1.9,2.4-2.2.1,1,0,1.7-.5,2.6ZM227.3,574.3c-1.2.3-1.7-2.6-1.7-3.4.6,0,3.6,2.9,1.7,3.4ZM231.4,570.9h-.7c-.8-.6-.8-1.4-.7-2.4.3.2,1.3.5,1.3.6.3.4,0,1.3,0,1.8ZM228.5,564.7l4.3-1.4-1.9-2.9c2.3.5,1.7-3.1,3.8-3.8l-.3,6.8-2.1,5.2c-.5.4-4.6-2.4-3.8-3.8ZM234.3,573.3l4.3.5c-.5,1-4,.6-4.3-.5ZM235.2,571.4c1.3-.5,2.7-.5,3.4.9l-3.4-.9ZM241,572.6c1.4-.5,3,0,4.1-1.2l.2.9c-.2.2-3.9,1.3-4.3.2ZM247.2,572.4c.7-1.3,1.8-2.2,3.4-1.9-.6,1.2-2,2-3.4,1.9ZM265.3,567.2l-5.2.8c.4-.7,2.2-1.4,2.9-1.7,2.7-.9,6.3-1.6,9.1-2.2l-6.8,3ZM265.9,563.7c-.2-1.2,1.2-1.6,2.1-2,2.4-1.1,6.3-1.9,9-2.3l-11,4.3ZM282.2,558c-.7,0-1.3-.3-2-.2-2.8.4-9.3,1.9-11.8,3-1.8.7-11.7,7.7-13,6.4,2.6-7.1,11.7-6.3,17.4-8.8,1.1-.5,3-1.8,2.5-3.2-3.5,4.1-10.2,3.8-15.1,6-4.2,1.9-4.5,5-6.5,6.5-.7.5-4.6,1.6-5.5.9v1.4c-2.1-1-4,1.5-6.1,1.8-1.7.3-3.2-.5-4.4-1.6l1.9-3.1-3.6,2.9c-1.3-.9.3-1.4.8-2.6.8-2.3,1.5-4.7,2.4-6.9h1.9c0,0-.4-16.3-.4-16.3,1.5,0,2.7-1.7,4-1.8,1.7-.1,4.5.8,7,.7-1.1-.9-2.2,0-2.9-1.4l6.2,1c-.3.9-2.5.5-3.4.5.2.1.2.7.8.8.6.1,6.6,0,6.9-.1.2-.1.6-.6.5-.7l-4.5-1-3.7-3.8h2.9s-.7,1.4-.7,1.4l7-1.4c0-.9.2-1-.7-1-1.6,0-4,1.5-5-.5,1.3-.7,3.3-.6,4.4-1,.5-.2.4-.8,1-1.1,1.4-.6,7.2-3.4,8.2-3.2,2.1.6.7,4.7.8,6.2,1,.1.2-1.6.5-1.9.4-.6,2.5,4.6,2.8,5.1,2.5,4.5,5,9.2,7.6,13.6.3.5,2.9,2.6,2.1,3.4ZM279.4,537.5c2.3,5.2,2.6,11.1,3.3,16.6-.9.2-.9-.3-1.4-.8-2.4-2.8-10.5-16.9-10.9-20.3,0-.5,0-1,.3-1.4,4.7-1.1,6.9,2,8.7,5.9ZM272.4,526.3c-.7.1-1.7-1.4-1.7-1.7v-9.8l2.5,4.5,1.9,5.3-2.7,1.8ZM275.7,526.3l1.7,4.8c-2,0-2.6-2-3.8-3.1l2.2-1.7ZM272.6,528.4l1.9,2.7-3.6-.4c-1.2-.9.7-2.2,1.6-2.2ZM294.9,544.5c0,0-.8-.6-.7-1l5.8-.5-1.4-1.7,1.4-.2-.2-2.4c2,.8,2.9,3.9,3.6,5.8h-8.4ZM302.4,504.2l-.4,3c-.1-1.4-1.2-3.3.4-3ZM302.8,513.3l-.5-3.8c1.5.5.4,2.7.5,3.8ZM304.3,496.8c-.3-2.3-.5-4.7-1-6.9,2.5,1.4,1,5.6,1.9,8.2-1.4.2-.8-.3-.9-1.2ZM306.2,534.7l3.4-.2c0,1.9-2.6,1.7-3.4.2ZM306.2,532.5l1.2-1.9,1.2,2.4-2.4-.5ZM309.6,530.6c-3.4-1.2-3.7-5.6-4.8-8.6,2.1,0,5.4,7.9,4.8,8.6ZM307.4,506.6l2.1,10.4-.2,8.8c-5-6.9-5.2-15.4-3.6-23.5l1.7,4.3ZM306.4,477.8l.2,3.8c-1.1,1.4-1.5-3.4-.2-3.8ZM305.1,471c.2,1,1,4.1-.3,4.4l-.5-5.8c.7-.1.7.9.8,1.3ZM300.2,438.5l8.4-1.9c.1,1.2-1.1,1.6-1.6,2.4-1.2,2.1-2.2,4.9-3.4,7.2-.2.4,0,1.3-.9.9-.9-.3-2.6-3.4-2-4.3.3-.5,1.4-.2,1.2-.9-1.9.6-1.8-1.9-1.7-3.4ZM300.5,457.7c3.8,3.4,2.5,9.6,2.9,14.2.2,2.6.8,5.6.9,8.2,0,1.9-.9,3.8,0,6-1.1.3-1.1-.5-1.3-1.3-.3-1.7,0-3.4-.2-5.1-1.1-7.2-3.6-14.5-2.3-21.9ZM300.5,519.4c-.1,3.5-1.7,7.8,0,11-.3.5-.6.6-1.2.7-1.7.3-6.1.4-8.1.5-2.1,0-12,.4-12.8-.8-.5-.8-1.6-4.2-1.4-5.2.3-1.9,4.2-1.9,4.3-4.1-1.7-.7-4.1,3.1-5.3,2.2-.9-1.9-1.4-4-2.3-5.9-.7-1.4-3.1-4.9-3.3-5.8-.7-3.3-1-13.7-.8-17.2.2-3.5,3.5-16.6,5.3-19.4,1.4-2.2,12.9-11.3,15.6-13.2.3-.2,1.3-.8,1.4-.8.2.2-.4,1.1.5,1-.1-1.2.2-2.2,1.2-2.9,1.8-.4,1.1,4,1.2,5,.2,1.7.7,3.4.9,5l-1-.5c-.9,1.4,3.5,2.9.5,2.6.1,1.4,1.3,2.9,1.6,4.1,4.1,13.5,4.1,29.2,3.7,43.4ZM304.8,405.9l.5,1.9c-.9.7-2.6-2.3-.5-1.9ZM300.9,408.3c-1.1-.7-2-1.7-2.9-2.7-.4-.5-2.7-3.2-2.4-3.6,2.3,1.4,4.8,3.4,5.3,6.2ZM288.2,390.6l1.4-.4,7.4,11.4c-1.1.9-5.2-4.3-6.7-3.8,1,1.9,10.3,10.9,10.5,11.8.4,2.3-4.1,1.5-5.7,3.1l.2,1,4.6-1.4c0,2.6.3,5.7-.8,8.1-.6,1.3-1.7,1.6-2.1,2.3-.5.8-2.4,6.7-2.9,6.4l-3.3-4.7c.1-1.2,1.9-5.1.9-5.9-1.5-1.3-.9,3.2-2.1,2.9l-2-3.6c.3-1.5,2.2-5.3,1.7-6.6-.2-.8-1.6-.8-1.8-1.6-.5-1.4,1.2-3.4-.2-4.8l-3.2-.6c0-1.1.5-2,.5-3.1,0-.8-.6-6.6-1.9-5.5l-.5,1c-.2-1.1-.3-2.4-.7-3.4-.4-.8-2.4-5.1-3.1-4.1l-.9,1.7c.1-1.7-.6-1.7-1.9-2.2,1.2-.8,5.9-5.9,7.2-5.3l5.5,7.5ZM284.9,340.1c1.5,5.9,4.5,11.4,6.3,17.2,1.6,5.1,2.9,8.8.7,13.9-.6,1.3-4.3,7.4-5.9,6.7l-1.4-4.1c-3.2,1.7-3.1-2.6-6.2-2.6.5-.8,2.7-5.7,3-5.9.8-.6,2.5.9,3.6-2.4,1.5-4.4-.2-7.3-.3-11.4,0-1.8.5-3.9.5-5.7,0-.8-1.1-5.5-.3-5.5ZM287,319.8c4.6,3.3.7,9.4-2.3,12.5-.5.5-.5,1.4-1.5,1.1,2.5-7.3,2.7-11.8-6.2-12.5,2.6-3.6,6.6-3.6,10-1.1ZM279.7,316.6c-.5.4-.2,1.1-.6,1.5-.9.7-2.5,1.3-3.4,2.3l-2.6-1.6,3.1-2.2c-.4-1.7.8-2.7.5-4.3-.6-3.6-5.8-5.7-6-8.4-.1-1.4,1.8-6,2.9-5-.2,2.4,3.4,4.7,4.1,6.3.3.6-.2,1.2.2,2.2.7,1.5,5.3,6,5.4,6.7.2,2-2.4,1.7-3.6,2.6ZM286.5,303.2l-9.6-3.4c.9-1.6,9.9-3.5,10.6-2.9l-1,6.2ZM288,298.4c0-1.8,1.3-2.3,2.9-2.4-.2.6-2.4,2.9-2.9,2.4ZM288.5,294.8c1.3-2.2.9-3.9,3.8-4.6l-.5,4.8-3.3-.2ZM290.1,298.4c1.1-.9,2.7-.9,3.3-1.4.3-.3.6-2.2,2.5-2.4,1.5.8-.7,3.6,1.4,3.8,1.6-.7-1.4-5.5,2.2-4.8,0,6.7-4,10.7-10.6,10.8-1.2-1.7-.2-4.8,1.2-6.1ZM295.2,290.7l-1.2,1.4h-.7s0-.7,0-.7c.5-.8,1-.8,1.9-.7ZM294.7,288.3l3.4.5c1.2,1.3-3.8,1.7-3.4-.5ZM299.5,301.8c-.6,2.5-2.7,4.2-5.3,3.8l5.3-3.8ZM293.9,308.9c-.9,0-1.8-.9-1.6-1.9,1.9.4,7.5-.8,8.1-2.7.3-1.1-.1-2.4.2-3.6.2-.8,1.3-1.7,1.6-2.7,1.7-6.3-1.4-10.5-7.6-11.5-1.2.3-1.1,2.6-1.3,2.8-.3.2-1.7,0-2.5.1-2.4.7-2.5,5.7-3.7,6.4l-11.3,2.6c-.5.1-1.3-8.8-.2-9.8,2.9-4.5,7.1-9.2,9.9-13.6,1.1-1.7,1.8-4,2.9-5.8,1-1.6,4.9-6.9,5.8-3-8.4,3.6-8.8,16.3-5,23.5-.3-3-1.6-5.8-1.7-8.9-.2-6.9,2.9-13.1,9.6-15.4,5.7-2,16.5,1.2,20.9,5.5,1,1,3.1,3.6,3.1,5,0,3-2.7,9.1-2.8,12.6,0,3.6-1.3,7-2.3,10.5-.1.4.2,1,0,1.7-.9,2.8-6.7,4.8-9.3,5.6-2.5.7-10.6,2.6-12.8,2.5ZM300.9,296v-2.9h.5v2.9h-.5ZM311.5,307.5l-2.9,2.4c.2-1.2,1.7-2.2,2.9-2.4ZM308.6,309.9l-2.4,1.9-1-3.3,2.4-.5v1.7s.9.2.9.2ZM304.3,310.4c-.6.6-3-1.9,0-1.4v1.4ZM305.2,328.9v-.7s.9,0,.9,0l1,1.9c-.9.2-1.3-.6-1.9-1.2ZM310,353.1v.9s-6.7,2.9-6.7,2.9c-1.1-1.1,6-3.8,6.7-3.8ZM306.6,352.1l-2.4.5,2.2-1.9.2,1.4ZM304.3,348.8c.2.9-.5,1.6-1.4,1.4v-1s1.4-.5,1.4-.5ZM303.6,366.5l-3.1-.9c2.6,0,5.2-.2,7.7.5l-4.5.5ZM306.7,358.4l1-1.9h.9c.2,1.4-.4,2.1-1.9,1.9ZM321.6,363.2l2.9-2.4c.3,1.8-1.4,2.4-2.9,2.4ZM325.9,356.5c.6-2.1,1.3-4.2,2.3-6.1.3-.6-.3-1.3,1.1-1.1-1.2,2.1-.4,6.4-3.4,7.2ZM328.3,341.5c-.9,2-1.3,7.1-2.2,9.7-.9,2.7-3.2,7.7-5.9,9-1.5.7-6.5,2.3-7.3.3l1.4-1.7h-1.9s0-1.9,0-1.9c-1.6-.4-.6,1.1-1.2,1.9-.9,1.3-2.5.3-1.6-1.3.2-.3,2-.7,1.8-1.8l-1.9-.5,3.4-2.2-.2-1-4.1.5c2.7-2.5.4-7.9,1.1-9.7.5-1.4,2.1-1.6,2.5-2.3.2-.3-.2-.9-.2-1,.4-.3,3.8.5,5,.5,1.3,0,7.6-.8,8.5-1.1,1.6-.4,2.4-2.7,4.7-1.3.6,2-1.5,3-1.9,3.7ZM315.7,336.2c-1.9-.4-4.4-1.7-5.6-3.2l7.2,2.9c.1.8-1.1.5-1.6.4ZM319.2,338.2c.1.8-1.1.5-1.7.5-1.2,0-2.4,0-3.6,0v-1.4s5.3,1,5.3,1ZM320.6,337.7c.8-1.5,3.4-.8,4.8-.9l-4.8.9ZM336.4,329.6c.3-.8,1.1-1.6,1.9-1.4-.3.8-1.1,1.6-1.9,1.4ZM346,313.9c0,.7-1.2,6.3-1.5,7.2-.4,1.1-1.5,1.1-2,1.8-.7.9-2.2,2.5-3.7,3.6-2.4,1.7-12.1,7.4-14.6,7.5-2.9,0-6.3-1.9-8.9-3.2,1.1-1.5,3.8-1.9,4.4-3.7.3-.7-.2-1.4,0-1.9.2-.7,1.2-1.1,1.2-1.5,0-1-.6-3.3-.3-5.7.2-1.1,2-2.7-.3-3.2l-3.4,2.9-2.1-1.9.9,3.4-1.9-1-.5,1.9-1.6-.9-1.3,1.2c-.3,1.2,1.6.9,1.9,1.5.5,1-.2,2.3,0,3.2,0,.2,1.3.9,1.3,3.1,0,.9-1.5,1.3.1,2.3l-2.9-.2c.9-3,.1-1.8-.9-3.2-.4-.6-.7-1.6-1.2-2-.5-.4-1.6-.2-2-1.1-.5-1,0-2.9-1.2-4.1-.3-1.1,3.6-4.8,3.8-4.6.7,2.4-.4,5-.5,7.4,0,.5-.3,1.8.5,1.7.8-2.9.5-6.4,1.1-9.2.8-3.9,7.1-6.9,10.2-9.5.8-.7.8-1.6,2.1-2.2.6-.3,1.7-.7,1.5.5-1.7,2.1-5.6,3.8-7,6-.4.7-.4,1.1.5,1l8.6-7.7,1.7,2.9c-2-5.3-.5-3.6,2.9-5,2.9-1.3,6.3-4.2,9.5-3.3.4.1,3.2,1.6,3.3,1.7,1.1,1.1.9,6.3,1.2,8l1.4.6c.6-1.5.2-2.5-.5-3.8l1.3.3-.2.6c1.6.3.6,2.3.3,3.4l-2.4-.4c-.7,2.1.9,4.3.9,5.9ZM317,327.2l.2,1.4-1.4.5c-.2-.9.6-1.3,1.2-1.9ZM315.8,322.9c1.5-1.8.8-4.8,3.8-5.3v4.3s-3.8,1-3.8,1ZM348.9,319.5h-.9s1.2-1.9,1.2-1.9l.7.9c-.7,0-1,.3-1,1ZM349.4,316.6c0-.9,0-1.8.7-2.4l.2,2.4h-1ZM347.5,296.5c1.8-.2,4.1.7,3.8,2.9-2.2.5-2.7-1.5-3.8-2.9Z"/>
    <path d="M137.8,295.5c-2,1.8-3.3,3.1-5.8,4.3,1.3-2.1,3.5-3.1,5.8-4.3Z"/>
    <path d="M140.7,293.6c-.5,1.2-2,1.4-2.9,1.9.8-.7,1.4-2.1,2.9-1.9Z"/>
    <path d="M93.2,496.1c-2.2-3.5-5.5-6.6-7.7-10.1,4.1,3,5.7,5.3,7.7,10.1Z"/>
    <path d="M46.7,424.1c-1.7,1.9-1.7,2.2-3.8,3.8,1.6-2.1,1.7-2.2,3.8-3.8Z"/>
    <path d="M149.8,545.5c-1.6-.6-1.2-1.3-1.9-2.9.3.4.9.5,1.4,1.3s.3,1.2.5,1.6Z"/>
    <path d="M286.5,548.4c-.2.5-.2,1.5-.6,1.8s-.7,0-.9,0c.5-1.1.8-1.2,1.4-1.9Z"/>
    <path d="M192,553.2c-3.4.3-6.6,0-10.1,0,0,0,.5-.5,1.2-.5,1.6-.1,8-.3,8.9.5Z"/>
    <path d="M207.9,399.2c.1-1.6.5-1.4,1-2.4-.3,1.5-.4,1.3-1,2.4Z"/>
    <path d="M51,358.9l-1.5,1.2c-.2,1.2.3,2.4.4,3.5s.6,1.6-.3,1.5l-1.4-6.2h2.9Z"/>
    <path d="M131.6,161.7s-.3,0-.5-.3c-.3-.8-2.3-6.8-2.3-7.2,0-5,11.8,2.7,13,2.6,11.9-7.2,25.5-9.4,39.2-7.1.1.8-1.1.5-1.7.5-7.6-.6-14.3-1.2-21.8.7-4.2,1.1-9.5,3.3-13.2,5.5-.5.3-1.4.4-1.2,1.2s6.2,3.3,7.4,4.2c5.4,4,11.2,12.8,14.3,18.8,7.2,14,12.9,30.2,16.4,45.5,3.1,13.7,4.5,29.3,9.4,42.4.2.5,2.8,4.7,1.2,4.5s-4.2-11.2-4.6-13.1c-3.6-14.9-5.2-30.7-9.8-45.4-4.9-15.6-14.6-43.4-28.6-52.5-1.1-.7-6.5-3.8-7.3-3.6-1.7.4-7.2,8.5-7.4,10.4.6,4.6,3,10.3,3.1,14.8,0,5.9-2,5.9-3.9.6-1.5-4.2-1.6-6.9-1.1-11.2s.5-5.8-.6-11.3c0,0,.3,0,.5.3s1,5.6,1.9,5c1.6-3.7,4.4-6.6,6.7-9.6-1.7-.3-9.5-4.9-10.6-3.8.2,2.8.9,5.4,1.4,8.2ZM134,171.3c-1.3-.1-.8,0-.9.7-.8,4.1-.6,7.6,1,11.4.2.4,1.6,3.6,2.3,2.7.2-5.1-1.5-10-2.4-14.9Z"/>
    <path d="M244.2,84.8c-1,1.8-5.1,6.2-7,7.1-2.8,1.2-8.5,2.3-6.7-2.4,1.9-5.1,8.4-5.6,13-5.8,3.1-7.1,5-15.6,4.2-23.4s-1.5-4.3-1.6-6.5c3.6,5.7,2.8,14.3,1.5,20.7-.5,2.6-2.1,8.2-3.3,10.4ZM242.4,84.4c-2.8-.2-5.2.3-7.6,1.7-6.4,3.7-3.3,8.5,3,4.4.9-.6,5.4-5.5,4.6-6.2Z"/>
    <path d="M162.2,39.9c0,.1-.3,1.1,0,1.7,2.2,6.9,2.4,13.2,3.6,20.2h.5s2.4-4.8,2.4-4.8c-2,4.2-4.7,10.3.5,13.2l-1.4-.2c0,.7,0,1.3.2,1.9.6,2.6,2.5,4.8,3.6,7.2-1.4-.9-2.4-2.8-3.1-4.3-1-2.1-1.2-4.8-2.6-6.2-1.2,1,1.2,7.4,2,8.7.4.7,2.1,1.5,1.9,2.8-2.7-1.9-4-5.9-4.7-9-.3-1.1.1-2.5-.4-3.5s-6.3-5.7-7.5-6.9-3.1-3.4-3.3-3.9-.1-.8.2-.7c3.4,3.5,6.7,8.5,11.3,10.5.7-.8-1.9-19.4-2.5-21.7-.5-2-1.8-5-2.8-6.8-.4-.7-1.9-1.6-1.1-2.2,1,.8,1.5,2,2.2,3.1s1.1.7,1.3.9Z"/>
    <path d="M215.5,56.1c-1.1-1.1-1.8,3.2-1.9,3.6-.7,1.6-1.6,3-2.4,4.5,2.1-5.6,4.1-11.3,1.9-17.3,2.6,2.6,1.1,6.4,2.4,9.1Z"/>
    <path d="M215.5,56.1c1.5,3.1,2.3,4.8,2.2,8.6,4.4-4.2,4.6-10.1,6.7-15.4,4.2-1.4,8.5-2.1,13-1.9s1.8-.4,1.7.5h-7.4c-.6,0-6.3,1.8-6.7,2.4-.8,1.1-1.4,5.7-2.1,7.5-1,2.7-2.4,3.9-3.7,5.9-3.3,5.5-3.8,10.5-8.2,15.8-.9,1.1-2.5,1.9-3.2,2.7s-.3,1.4-.5,1.6-.7-.4-1.4-.2c-1.8.7-3.8,2.1-5.7,2.5s-8,.6-9.5-.4-.6-1.6-.8-1.8c-.4-.4-1.5.3-1.3-.6,2-.6,2.6-3.5,5-3.4.7.7-1.1.7-1.5,1.5s.3,1.2.2,1.4-1.2.3-1.3.8c-.9,2.7,6.4,2.2,7.8,2,2.1-.3,8.2-2.1,8-4.7,1,1,2.3-.5,3.1-1.5,1.7-1.9,4.5-5.8,4.4-8.1-2.3,3.9-5.9,5.4-10.3,5.8l2.7-1.4c.9-1.8-.8-5.2.7-6.5s.9-.1,1-.2c-.7,1.8-1.2,4-1,6s-.2,1,.7.7c3.2-.9,6.4-5.2,7.7-8.1,1.5-3.6.6-7.9-.3-11.5Z"/>
    <path d="M208.3,69.1c.6-1.6.6-1.3,1.4-2.4-.6,1.2,0,1.2-1.4,2.4Z"/>
    <path d="M209.8,66.7c.6-1.1,1.1-1.7,1.4-2.4-.6,1.6-.6,1.3-1.4,2.4Z"/>
    <path d="M195.4,47.5c-.2,2.4-3.3,8.6-6.2,8.6,0-2.5-.3-4.2,1-6.4,1.5-2.5,5.5-4.1,6.3-5.7,1.9-4,2.6-13.9,2.3-18.4-.4-5.8-2.4-10.4-4.8-15.6,5.2,6.7,6.6,18.3,5.2,26.6-.4,2.1-1.8,5-1.9,6.8,0,1.6,1.9,0,1.9,1.2-2-.2-2.8,1.4-3.8,2.9,0-.4.2-1.4-.2-1.4-2.9,2.1-5.5,4.7-5,8.6.9.2,1.2-.4,1.6-1,1.5-1.8,2.2-4.3,3.6-6.2Z"/>
    <path d="M198.8,98.8c4.1-2.5,15,.4,18,3.8s1.2,1,.5,1.4c-1.4-1.7-3-2.8-5-3.6-1.6-.6-7.4-2.1-8.9-2.1-3.2,0-4.8,1.2-6.9,3.3.2-2.7,2.4-3.9.7-6.7-4.1-6.4-18.3-5.8-23.7-11.5,2.9,1.1,5.6,2.6,8.5,3.7,5.9,2.2,17.6,3.4,16.9,11.6Z"/>
    <path d="M211.2,44.6l-1-.5c-.2.4.3,3.9-1,4.3-.4-2.1,1.5-4.4-.5-6l1.4-1c1.3-13.3,3.3-27.1-1.4-40,.7,0,1.1,1.7,1.3,2.3,2.5,6.9,2.4,17.4,2,24.8-.3,5.3-1.9,10.9-1,16.1Z"/>
    <path d="M208.4,51.8l1.4-2.9-.5,3.1,1,.5c-2.3,1.3-1.6,6.3-1.9,8.9-.8,0-.5-2.1-.5-2.7.1-1.6.7-3.4.8-5s.4-.8-.5-1.4c-.9.7-.9,1.9-1.7,2.6s-5.3,2.9-4.8.7c2.3.1,3.9-.9,5.3-2.6,0-1.8-9.4,0-5.7,3.6-3.2.2-1.9-3,0-4s4.2-.8,6.2-.8v-4.3c1.4.6.9,3.1,1,4.3Z"/>
    <path d="M168.4,2.7c-3.9,6.4-7,14.6-5.5,22.4.5,2.8,1.2,5,4.4,4.7.3,1.3-2.7,0-3.1-.3-5.2-3.8-1.2-21.4,2.9-25.9l-.9-1.7c2,1.2,2-1.2,3.3-1.9,0,1-.6,1.9-1.1,2.7Z"/>
    <path d="M193,43.7l-1.2,1.4c-3.6-.8-7.6,1.1-10.8-.5-.1-.9,1-.4,1.5-.3,3.1.3,2.9-.2,5-.4s3.7-.1,5.4-.2Z"/>
    <path d="M187.6,27.7c-.4.4-2.1,1.8-2.7,2.3s-1,1.3-1.4.5c3.2-2.8,6.5-5.9,6.3-10.6,0-1.5-.9-2.6-.8-4.1,3,3.6,1.4,8.6-1.4,11.8Z"/>
    <path d="M173.8,61.4c-3.6-4.3-3.6-9.9-1.4-14.9,1.1.5-.3,2.7-.4,3.6-.6,4.6,0,7,1.9,11.2Z"/>
    <path d="M174.6,5c.3.2,3.8,3.5,3.9,3.7s-.3.8-.2,1c2.8,6.3,2.4,10.8-2.3,16.2l2.8-5.8c1-3.3.9-8.5-1.6-11.1-.8-.8-1.4-.6-1.8-.8s.3-.7-.3-1.4c-1.1-1.3-2.6-1.4-3.7-2.6.7-.5,2.6.5,3.2.9Z"/>
    <path d="M143.6,28.3l-5.9.6c-4.6.5-8.9,5.5-4.7,9.3.9.8,2,.8,2.4,1.7-6.7-1.2-6.2-8.9,0-10.9s5.5-.6,8.2-.6Z"/>
    <path d="M202.3,76.5c-.2.2,0,.9-.3,1.1-.5.5-3.4.8-4,2.1l-.7-1.2c.8-1,2-.6,3.1-1.2,1.9-1,3.7-4.1,5.5-5.3-.4,1.8-2.5,3.2-3.7,4.5Z"/>
    <path d="M145.6,40.6c.1.2,1.8.1.6,1.1l-8.9-1.2,7.4.3.5-1.5c.5,0,0,.8.4,1.3Z"/>
    <polygon points="188.2 84 184.1 84.6 179.6 84 188.2 84"/>
    <rect x="135.8" y="83" width=".8" height="6.1" transform="translate(-11.4 150.6) rotate(-55.9)"/>
    <rect x="204.3" y="157.2" width=".7" height="6.8" transform="translate(-53.6 191.7) rotate(-45)"/>
    <path d="M115.8,66.2c-1.6-1.5-2.6-4.2-3.3-6.2,1.6,1.5,2.6,4.2,3.3,6.2Z"/>
    <path d="M188.7,151.6l-1.5.3-5.7-1.7c2.5-.3,4.8,1,7.2,1.4Z"/>
    <rect x="110.5" y="43.2" width=".5" height="8.6"/>
    <path d="M177.2,41.7l-2.2,1.8-3.1-2.2c1.2-.2,2.2,1.3,3.2,1.4s1.1-1.1,2.1-.9Z"/>
    <polygon points="111.5 52.3 111.9 57.6 110.5 53 111.5 52.3"/>
    <path d="M167.6,38.3c.4.2,1.7-.6,2.3-.4-.9,1.7-1.6,1.2-3.3.9l-.5-2.4c.9,0,1.3,1.8,1.5,1.9Z"/>
    <rect x="248.3" y="86.2" width=".8" height="4.4" transform="translate(-1.3 173.2) rotate(-38.3)"/>
    <rect x="156.5" y="21.1" width="5.3" height=".5" transform="translate(137.8 180.5) rotate(-90)"/>
    <rect x="205" y="64.8" width="5.3" height=".5" transform="translate(142.6 272.6) rotate(-90)"/>
    <path d="M64.4,355.5c-1.8,1.5-4.9,2.6-7.2,2.9l7.2-2.9Z"/>
    <rect x="217.2" y="112.4" width="3.9" height=".7" transform="translate(45.3 287.3) rotate(-72.3)"/>
    <rect x="177.5" y="73.9" width=".7" height="3.9" transform="translate(25.4 194.7) rotate(-61)"/>
    <path d="M53.4,375.2l-1.4-3.8c1.1.6,1.5,2.7,1.4,3.8Z"/>
    <rect x="192.3" y="151.6" width=".8" height="3.4" transform="translate(-19.8 277.6) rotate(-68.8)"/>
    <rect x="201.4" y="42" width=".5" height="3.8" transform="translate(157.6 245.5) rotate(-90)"/>
    <path d="M42.9,258.6c-2.4.4,1.2-3.4,1.9-3.8l-1.9,3.8Z"/>
    <path d="M183.9,78.2l-2.9-.5v-.5c1.1,0,2.5-.3,2.9,1Z"/>
    <path d="M219.4,107.9c-.3.6-1.2-1.7-1-2.4.3-.6,1.2,1.7,1,2.4Z"/>
    <rect x="228.5" y="134" width=".9" height="2.4" transform="translate(-36.3 117) rotate(-26.6)"/>
    <path d="M128.7,80.1c-.9.2-1.6-.6-1.9-1.4.9-.2,1.6.6,1.9,1.4Z"/>
    <path d="M172.4,72.9c-.9.2-1.6-.6-1.9-1.4.9-.2,1.6.6,1.9,1.4Z"/>
    <rect x="117.8" y="67.2" width=".7" height="4.8" transform="translate(-17.5 89.6) rotate(-38.9)"/>
    <path d="M179.1,66.2c-.9.2-1.6-.6-1.9-1.4.9-.2,1.6.6,1.9,1.4Z"/>
    <rect x="149.8" y="40.8" width="2.9" height=".5"/>
    <rect x="156.5" y="40.3" width="2.9" height=".5"/>
    <path d="M148.9,29.8c0,0,0,.3,0,.5-.4.2-2.7-.3-2.4-1,.3-.1,2.2.3,2.4.5Z"/>
    <path d="M161.3,29.7c-.3.6-1.2-1.7-1-2.4.3-.6,1.2,1.7,1,2.4Z"/>
    <rect x="279.3" y="256.7" width="2.7" height=".7" transform="translate(-99.5 273.7) rotate(-45)"/>
    <path d="M126.8,508.5c.7,0,.7,1.7.8,2.3.2,1.3.3,6.4,1.8,6.3l2.4-1.9,5.5-9.1c-1.6,4.6-4.1,10.5-8.9,12.5-1.3,0-1.7-8.6-1.7-10.1Z"/>
    <rect x="136.1" y="501.9" width="6" height=".8" transform="translate(-377.9 436.6) rotate(-67.3)"/>
    <rect x="139.4" y="494.2" width="6.1" height=".8" transform="translate(-370.5 452.1) rotate(-69.2)"/>
    <path d="M73.6,440.4c-1.5-1.3-2.6-3.8-2.9-5.8l2.9,5.8Z"/>
    <rect x="84" y="226.4" width=".7" height="3" transform="translate(-135.8 125.1) rotate(-44.7)"/>
    <path d="M81.7,225.5c-.9.2-1.6-.6-1.9-1.4.9-.2,1.6.6,1.9,1.4Z"/>
    <path d="M264.3,552.5c-.2.3-1.7,2.7-2.2,1.9l4.8-8.4c.2,2-1.3,3.3-2.1,4.9s-.2,1.2-.5,1.7Z"/>
    <rect x="258.8" y="556.4" width="4.1" height=".7" transform="translate(-340.6 429.2) rotate(-52.9)"/>
    <rect x="255.5" y="560.9" width="3.4" height=".7" transform="translate(-321.5 346.2) rotate(-45)"/>
    <rect x="266.4" y="541.3" width="3.8" height=".7" transform="translate(-311.4 712.7) rotate(-80.1)"/>
    <path d="M253,565.2c-.3.8-1.1,1.6-1.9,1.4.3-.8,1.1-1.6,1.9-1.4Z"/>
    <path d="M213.7,128.9c.9.5,2.9-.5,3.3.6h-4.8s1-1.4,1-1.4c.8-.2.3.7.6.8Z"/>
    <polygon points="222.3 127.6 222.3 128.6 221.5 128.6 220.3 127.1 222.3 127.6"/>
    <path d="M155.6,393.4c-.2-.9.6-1.6,1.4-1.9.2.9-.6,1.6-1.4,1.9Z"/>
    <path d="M256.8,198.1l1.9,18.2-1-.7c-.3-5.8-.5-11.7-1.9-17.3l.9-.2Z"/>
    <path d="M246.7,179c-.3.4-1.7-2.2-1.4-2.9.3-.4,1.7,2.2,1.4,2.9Z"/>
  </g>
</svg>