<?xml version="1.0" encoding="UTF-8"?>
<svg id="Layer_1" xmlns="http://www.w3.org/2000/svg" version="1.1" viewBox="0 0 681.72 800.26">
  <!-- Generator: Adobe Illustrator 30.0.0, SVG Export Plug-In . SVG Version: 2.1.1 Build 123)  -->
  <path d="M295.96,375.32c-.36-.51-1.19-1.73-1.73-1.73l.85-7.76c1.08,3.09,1,6.27.87,9.48Z"/>
  <path d="M421.92,197.57c2.49,1.68,2.97,4.75,4.75,6.91.37,0,2.57-6.3,2.59-6.98.1-4.13-8.52-25.75-10.91-30.44-2.94-5.76-12.21-17.28-18.82-18.31-1.2-.19-2.81,1.78-3.49,2.66-1.07,1.37-1.19,3.52-2.57,3.88l3.45-9.49c15.95,4.38,22.34,18.6,28.02,32.8,1.75,4.37,6.87,16.03,6.14,19.86-.43,2.24-3.21,6.09-2.89,8.03.14.85,1.95,2.87,2.54,4.29,1.55,3.76,3.43,7.81,4.14,11.8l-5.38-8.85c-1.23-2.69.61-4.84-3.23-4.09-.86,8.18-7.53,17.77-8.65,25.45-.07.51-.23,1.42.44,1.29l2.18-3.45c3.74,1.92-1.1,8.06-2.02,11.37-.6,2.16-1.95,7.09-2.26,8.95-.53,3.15-.03,6.82.83,9.89,4.2-.65,14.73-1.95,18.42-.75,1.84.6,1.47,2.7,1.41,4.19-1.42.34-.33-1.31-1.46-1.7-3.05-1.07-14.28-1.54-16.92-.03-.56.32-.49,1.72-1.08,1.74-.42.01-5.34-1.1-5.58-1.27-.58-.4-1.82-12.11-1.75-13.83.17-4.14,4.53-9.93,5.14-14.78,1.04-8.31-.12-27.55-1.84-35.92-.97-4.71-2.79-11.02-6.26-14.45l-.85,3.44c-1.4-.79-3.18-6.3-4.75-5.62-3.29,1.9-3.7,5.24-5.3,7.66-1.12,1.69-4.1,4.06-4.62,5.77-.48,1.6,1.01,2.72-.44,3.84-.31.24-1.27-.65-1.76.06-6.57,9.43-8.01,27.54-9.54,38.67-.58,4.27-4.38,13.54-1.2,16.99.98,1.06,3.07-1.87,2.14,5.1-1.04,1.03-2.76-6.69-3.89-3.46-1.36,3.91-.81,16.51-2.31,18.83-.2.31-5.35,2.29-6.68,3.24-4.29,3.05-18.72,19.29-20.35,23.74-.65,1.76.28,2.64.45,4.25-2.55-2.12-7.3,4.49-8.01,6.31-.88,2.25.92,4.01-.15,5.77-.37.61-6.32,4.37-8.21,6.5-2.29,2.58-15.45,21.29-15.56,23.34-.06,1.13,1.01,2.8.87,2.95-1.62,1.69-1.93-3.56-3.45-1.71-.54.65.12,14.26,0,16.88-.41,8.63-2.31,17.72-.47,26.3,4.32,20.25,40.79,44.4,54.85,60.76,13.18,15.33,18.41,36.36,25.21,55.04,1.32,3.64,4.55,8.36,5.42,11.01.35,1.05-1.33,1.74-1.19,2.85.16,1.28,3.79,4.39,4.09,6.39.24,1.65-5.25,9.57-6.79,11.45-.11-3.4,4.44-8.57,4.1-11.53-.13-1.11-4.81-10.48-6.68-9.17-.37.26-4.25,6.73-4.79,7.73-.69,1.29-3.83,7.86-2.99,8.65.32.31,2.34-.6,2.65.47,1.71,5.95-1.95,15.08-2.64,21.1l1.73-3.44c1.33-.25,1.02,1.28.82,2.1-.67,2.68-3.11,6.01-4.05,8.91-6.54,20.24-9.07,82.72-4.34,103.1,1.52,6.55,9.62,22.22,14.06,27.35,3.68,4.25,11.27,5.44,14.59,10.43,6.98,10.48-4.06,32.43-2.61,34.5,4.25,6.11,24.17-3.11,28.92-6.56,6.59-4.79,8.72-13.6,10.42-21.08,1.3.33,2.14,2.02,2.39,3.2,4.5,21.38-.74,41.95-12.07,60.03-5.14,8.21-15.66,21.64-26.14,21.75-3.27.03-19.7-7.36-22.82-9.52-2.4-1.67-3.92-4.88-5.48-6.17-1.54-1.27-4.52-1.71-6-2.83-1.63-1.24-2.68-4.99-5.43-5.25-3.96-.37-10.31,11.01-17.65,7.39-.69-.34-7.02-8.55-8.11-10-4.36-5.78-8.1-12.85-12.58-18.48-2.15-2.7-16.9-19.39-18.53-20.35-2.05-1.22-4.15.41-6.22-1.91-.33-.37-4-6.32-4.13-6.69-2.47-7.18-4.67-18.26-6.55-26.05-.17-.71-1.52-.58-1.67-1.24-.25-1.06-.09-11.63.18-12.59.39-1.37,5.57-8.32,7.58-6.23-1.76,1.6-4.08,1.78-3.44,4.75,4.07-1.92,7.11,3.62,9.93,6.06,2.85,2.47,5.6,5.07,8.59,7.77,2.89,2.61,14.95,11.82,15.98,14.23.44,1.02-.32,1.77-1.28,1.28-.59-.31-3.02-4-4.3-5.2-5.14-4.8-11.28-8.53-15.98-13.78.31,1.23,2.16,5.19,2.8,5.82.72.71,2.45.72,3.18,1.55,2.84,3.25,8.41,12.34,12.77,13.21,1.73.34,3.61-.61,4.58-.26,1.54.56,6.97,7.62,10.3,6.01l-2.58-3.02c2.01-.61,7.01,5.86,8.62,4.3l-3.23-17.55c1.68-32.83,5.39-62.88,17.02-94.2,5.61-15.11,15.4-30.27,16.44-46.54.8-12.53-.79-19.52,4.25-31.98,1.14-2.82,6.02-9.67,6-12.07,0-.31-1.51-5.43-1.71-5.89-1.63-3.61-5.39-9.41-7.57-13.22-16.43-28.73-34.77-53.06-56.24-77.75-7.75-8.92-12.36-18.22-18.61-27.73-3.7-5.63-8.12-10.7-11.59-16.46-1.79-1.54-2.71,4.8-4.29,1.28-1.44-3.2,2.55-1.05,2.56-2.58.01-1.45-2.45-.36-2.51-.48-.31-.63.16-2.1-.53-3.39-.13-.24-3.59-3.82-3.83-3.95-.63-.32-4.55.27-5.39.56-.72.24-.61,1.36-1.32,1.58-1.77.55-5.43.23-6.87,1.17-.58.38-1.72,2.86-3.28,4.05-20.63,15.82-49.29,32.46-65.09,53.1-4.78,6.24-9.67,16.2-12.84,23.4-7.99,18.17-11.03,37.24-17.28,55.89-1.03,1.47-8.02-.93-7.88,3.09-9.14-9.74-22.21-11.38-33.21-18.11-1.91,1.5,4.9,4.79.88,5.17-1.66-1.42-3.86-5.93-5.37-6.94-1.33-.89-15.04-6.76-17.27-7.53-6.12-2.12-12.91-1.56-18.35-6.23.19,3.03,3.26,4.73,6.03,4.32-2.08,7.53-8.12-4.72-9.53-5.61-.74-.47-2.05.22-2.57-.1-2.14-1.32-3.39-4.29-6.88-3.79l1.72-2.57c-11.01-3.94-19.73-8.39-31.6-10.27-2.04-.32-9.61-1.44-11.23-1.52-1.99-.1-4.41,1.12-6.6.58-.87-.21-2.04-3.97-3.75-4.27-1.69-.3-4.05,4.46-5.49,5.98.25-3.94,4.06-7.29,4.06-8.2,0-1.21-10.52-12.65-11.81-15.1-2.27,4.78.4,3.75,1.13,5.35,2.01,4.41-2.56,5.88-2.08,8.77.13.75,2.23.88,3.06,2.28,1.07,1.79,1.37,6.64,3.03,8.2,1.49,1.41,1.65-.31,2.61-1.32-.25,3.93,2.67,7.47-3.68,4.98-1.28-.5-2.26-.89-3.24-1.93-.87-.93-7.45-13.04-7.45-13.83,0-.82,1.19-1.85,1.18-2.68-.02-1.67-.77-3.28-.7-5.09.22-5.52,3.03-10.65-2.06-15.11-3.06-2.68-5.45-.82-6.24-5.81-1.29-8.12,2.23-21.31,6.8-28.15.85-1.27,2.09-1.79,2.44-2.28-3.47,7.99-10.17,20.77-7.59,29.59.41,1.4,7.22,7.08,8.88,8.41.87.7,2.63.65,2.88.96.42.5-.04,2.74.58,4.16.84,1.92,9.19,11.21,11.23,12.93s7.25,5.45,9.61,5.98c1.7.38.59-1.87,2.38-1.68,3.17.35,7.17,4.17,10.85,3.48,1.51-1.34-5.63-7.38-3.88-9.48,7.15,7.46,15.63,13.8,25.45,17.25.58-.74-4.34-15.86-6.03-17.69,3.93-1.06,5.58,6.67,8.16,8.28,1.15.72,2.39-.34,3.46.73.98.98,2.38,4.89,3.7,6.72,3.67,5.05,8.54,7.2,13.47,10.73,1.76,1.26,3.21,4.45,6.57,4.17l-3.01-5.18c5.38,2.21,10.41.82,15.95,3.45-2.21-4.53-6.99-10.01,1.72-4.73.26.59-2.52.86-2.57,1.72-.09,1.73,6.56,6.87,9.03,6.49l-8.63-17.26c-3.84-14.68-7.55-29.59-8.18-44.88l-8.63.86c.46-1.77,3.84-1,5.18-2.14,2.89-2.45-1.43-12.67-2.68-15.91-5.84,1.15-11.58,2.17-17.16,4.24-.4-2.23.37-1.54,1.73-2.11,2.22-.93,13.68-3.56,13.78-5.22.14-2.18-7.14.2-8.13.48-2.29.66-14.59,6.58-15.15,5.98-.63-.68-.28-2.07,1.08-2.81,3.25-1.74,8.57-2.06,10.99-4.96h-12.51c-1.37,0-9.24-1.54-5.62-3.9l16.4-3c-2.74-2.77-16.63,1.49-17.24.85-.09-.09-.1-2.48,0-2.58.49-.53,12.19-1.61,14.27-2.07.92-.2,1.92.14,2.12-1.38-6.29-.69-15.83-3.13-21.95-2.62-3.45.29-13.52,3.86-15.56,3.47-4.58-.88,5.49-5.06,7.31-3.46.24-1.44-1.26-.59-2.3-1.16-.36-.19-.34-1.42-.79-1.45-.85-.06-7.89,2.79-10.53,3.22-4.66.75-6.61-.62-9.01-.47-3.06.2-8.38,2.62-11.87,2.47l4.3,1.71c-2.15,1.23-6.11.3-7.78,1.29-.33.2-3.4,5.25-4.3,6.49.78-1.79,2.1-7.21,2.83-8.39.47-.77,12.8-10.58,14.13-11.32,12.71-6.99,32.78-1.93,46.01,2.04,1.92.58,4.58,2.57,5.85,2.81,1.44.28,4.69-1.25,5.38-.67,1.83,1.54-2.98,1.55-1.72,3.43,1.61.98,5.56,1.28,6.66,1.97,1.61,1.01,13.42,15.18,14.25,17.24.99,2.48,1.03,13.91,1.52,14.45l6.03-.85c-.15,1.79-4.52,1.15-5.08,1.81-1.7,2.02,5.64,37.16,7.24,42.18,1.67,5.23,13.87,29.37,18.98,29.37.39,0,5.27-3.39,5.43-3.68.53-.95-.13-2.81.23-3.19.14-.14,2.46-.05,3.87-.87,2.86-1.67,6.85-8.5,9.53-11.18,8.41-8.37,21.51-16.58,30.82-23.52,16.47-12.26,33.96-21.72,37.58-44.41.87-5.47,0-15.63,2.69-19.75,10.38-15.93,36.67-20.89,47.81-37.6,2.05-3.07,5.62-8.54,3.96-12,6.6.51-.92,11.97-3,14.68-11.48,14.97-35.1,19.98-45.17,34.21-6.28,8.89-2.24,21.33-7.04,31.34l19.83-15.1-6.89-1.28,12.07-1.75c.17-1.67-1.81-.58-2.79-.57-2.65.04-5.38.59-7.96.62-.99,0-3.26.56-3.05-.89,4.96.2,9.12-1.84,13.37-3.03,1.38-.39,4.44,1.61,5.6-2.15l-3.72.6-4.9-3.19c7.69,2.06,14.21-.24,19.83-5.62-1.51-1.57-3.78,1.02-4.76,1.3-.47.14-.25-1.59-.98-1.76-.94-.22-5.06,1.48-5.47-.82,1.79.41,6.99-.03,7.57-1.87s-3.35-2.98,4.5-2.46c.52-1.07-3.69-1.01-1.72-2.57.12-.09,1.36.22,2.26-.31.36-.21.37-1.39.89-1.45,2.65-.32,6.52,2.71,8.93-2.53-1.75.19-3.55-2.16-2.58-3.47.27-.37,7.38,6.74,6.04-.86l6.89,2.59c1.18-1.12-7.89-8.28-6.03-11.21l9.05,8.62c.36.17,1.15-2.61,1.76-3.41.44-.59,5.13-6.22,5.57-3.04.43,3.05-5.87,5.21-5.22,9.43.26,1.65,1.86,2.33,2.4,3.72.74,1.88.52,4.07,1.93,5.83,2.59,3.24,2.68-.44,3.47-.45-.07,1.93-.42,4.56,1.72,5.18.05-1.14-.04-2.3,0-3.45,2.41,3.45.75,5.17,1.05,5.9.05.12,1.17.17,1.52.75,3.74,6.25,8.23,11.98,12.95,17.5-2.85-14.32,1.43-28.36-.44-42.76-1.03-7.92-5.41-12.59-8.33-19.64-3.08-7.44-4.98-15.29-8.58-22.48-2.78-5.53-6.96-10.42-10.25-15.62,1.32-1.86,1.23-.84,2.28-.6,1.66.38,6.91,3.5,8.04,2.72,1.26-4.58.81-9.12,2.21-13.76,1.4-4.64,5.07-7.49,5.59-12.1l1.28,1.72c2.76-3.07,4.81-5.9,8.68-7.75l.3-1.17-44.74-78.56c.51-2.98,13.03-5.33,15.27-7.65.87-.9.95-3.15,1.09-3.25.12-.09,1.71.89,2.89.79,3.58-.3,13.54-3.22,16.54-5.07,2.28-1.41,5.65-6.15,7.74-7.79,2.14-1.67-.43,3.05,1.71,1.71.78-.49,1.41-1.54,2.17-2.15-4.76-1.22,2.48-5.49,3.85-7.34.83-1.12,2.27-3.69,2.82-4.98.37-.88.1-2.6.24-2.77.1-.13,1.67.9,2.8.72,4.41-.73,6.68-4.02,9.24-7.22.41-1.16-2.35-2.23-3.78-3.92-6.53-7.69-.99-18,.36-26.68h-16.82c-2.79,0-20.21-7.05-20.26-9.06-.04-1.43,2.3-1.14,3.44-.88,2.75.64,8.7,3.16,11.32,2.59s4.58-5.82,7.63-6.89c-.98-2.31-8.92-4.48-9.31-4.91-.2-.22-1.25-5.66-1.03-5.87.15-.15,2.92-.12,4.16-.59,9.51-3.59,17.03-8.2,27.4-9.69,1.13-.16,5.88-.35,6.31.02.45.39.39,5.39,2.98,4.99,2.52-3.03,11.07-4.48,11.62-8.27.11-.77-6.84-11.94-8.43-13.04l-9.52-19.15c1.92,1.3,2.73,5.35,4.57,6.63,1.2.83,3.44.87,4.91,1.14l-3.45.86c1.81,4.84,9.2,5.03,13.8,6.04.2,1.53-1.95.85-2.9.75-2.51-.27-4.94-1.31-7.44-1.62.49,6.22,7.56,5.77,12.07,6.91-.8,2.52-7.03-.64-7.76,0-1.27,1.12,1.48,2.19,2.13,2.61,2.65,1.74,5.87,3.2,9.08,3.44.24,1.47-2.08.93-2.94.78-2.11-.36-3.63-1.55-5.68-1.65,1.63,6.16,7.52,3.76,12.08,5.18l1.72,1.73c.24,1.43-2.12.96-3.04.89-1.77-.13-4.66-1.2-5.84-.95-.7.14-1.05,1.85-1.99,2.51-3.83,2.67-8.25,4.13-12.41,6.18-.22,1.52,1.96.85,2.81.66,2.48-.56,14.1-4.24,14.42-.24l-12.07,1.3c2.1,4.63-.98,1.75-4.31,1.73l1.74,3.44.85-1.71c1.12-.84,6.68,5.32,9.05,5.18,1.22,0-.77-4.19,1.71-3.44,3.11.94,14.45,7.98,16.37,7.8,4.4-.42,11.46-12.4,14.42-15.87.77-.9.85-1.8,2.44-1.43,1.62,6.75,4.08,14.35-4.29,17.24l-3.04-6.03c-1.78,2.14-5.55,4.76-6.56,7.28-1.13,2.83,1.73,7.24-3.85,9.94-.38.09-5.78-4.81-5.98-5.14-2.17-3.54,2.45-10.22-8.19-11.21l3.45,28.47c8.65-1.03,17.15-3.27,25.61-.16,3.46,1.27,9.59,7.64,11.97,1.88.2-.49-1.34-3.24-1.5-3.33-.92-.55-3.45,1.12-5.91.4-.48-.14-4.87-2.75-5.48-3.21-4.03-3.02,3.21-9.96,5.49-12.42l-4.31-2.6c1.39-7.2,11.08-11.18,2.59-1.28,2.28,1.24,3.2-.6,4.77-.8,2.69-.35,5.47.32,8.14-.96,1.37-2.8-4.16-9.34-4.15-9.88s1.91-1.53,2.29-2.75c.7-2.29-.12-5.56.16-8.02-2.22-1.2-3.68,5.18-5.17,3.44-1.28-1.49,3.88-5.42,4.18-6.63.37-1.48-1.1-3.71-.74-5.44l-7.75,8.63c1.47-5.55,8.43-8.17,6.9-14.66,5.82.97,1.33,6.07,2.69,9.82.57,1.56,2.52.94,3.4,1.97,1.75,2.03,3.29,8.32,2.38,10.93-.64,1.86-4.9,2.11-4.09,5.16.71,2.68,9.93,4.64,6.02,10.57-1.95,2.96-7.24,1.24-5.06,8.39.62,2.04,4.49,3.06,3.34,7-.23.78-2.09.45-3.06,1.35-2.2,2.05-4.26,10.78-9.31,9.37-3.07-.86-5.87-5.85-12.35-6.7-2.71-.35-18.68-.02-19.82,1.59-3.04,4.29,3.76,12.06,7.62,9.62,1.41-.9,3.03-5.14,4.45-6.16,5.43-3.94,11.42,3.33,12.36,8.48.99,5.41-2.15,3.44-6.13,6.37-1.59,1.17-6.32,7.21-6.77,7.46-1.14.65-3.72-.2-5.85.64-8.04,3.17-21.82,15.29-29.8,20.25-1.09.68-7.29,3.41-5.58-.42.16-.36,4.6-4.1,5.56-5.66,4.1-6.63.34-4.22-.36-7.33-.38-1.7,1.26-1.68,1.68-1.25.31.31-.69,2.06.86,1.72.59-4.95-.78-8.29-6.02-6.02-.37,1.4,1.2.6,1.49,1.01,2.71,3.78-2.67,1.45-4.4,1.58-1.59.11-2.97,1.21-4.53,1.45-1.12.17-2.53-.86-4.01-.47-1.32.34-4.03,3.73-4.94,5.05,5.63-1.12,11.62-1.48,17.26-.85l-3.46,1.73.87,4.3c-.75.78-17.88,2.63-21.22,4.24-1.96.95-2.8,2.63-3.8,4.39,3.29-.81,7.01,1.06,9.91.94,2.05-.09,3.38-1.43,5.23-1.74,6.01-1,4.85.29,7.71,4.29.6.83,2.19,1.78.01,2.56-.67.24-.63-2.77-1.86-3.52-3.26-2-22.2-.78-26.55.14-1.54.33-3.4.8-3.95,2.52,6.15.73,12.36.04,18.42.15,1.36.02,2.86.72,4.45.8,2.76.14,6.52-2.87,4.74,2.51-13.3-2.37-27.12-1.02-40.1,2.6l-.86-2.59c-3.74,2.64-13.19,1.03-11.67,6.89-1.69.28-.47-2.16-.86-2.59-.58-.63-4.56,2.34-6.04,1.74l20.72,38.81,1.71-7.75c-1.35,8.1,1.16,11.08,4.37,17.46.7,1.38,1.53,3.15,2.35,4.71,2.62,5.01,5.79,9.71,7.97,14.92l1.71-3.44c-.76,5.36.91,9.28,4.75,12.92l3.87-6.88-3.43,20.7c1.11-.07,1.88-2.23,2.4-3.19,1.07-1.99,1.92-4.2,2.78-6.29,1.05-.24,1.04.38.84,1.26-.78,3.44-4.47,8.16-5.59,11.68-1.06,3.36-.86,7.05-2.16,10.34,3.11-.02,2.74-4.26,4.13-6.65,2.97-5.09,7.61-8.36,10.92-12.37,1.01-1.22,7.4-11.69,7.42-12.44-4.84-3.73-9.56-9.81-14.27-13.46-.79-.62-1.98.04-2.05-.05-.4-.52-.36-2.69-1.43-4.17-3.86-5.36-10.85-8.75-9.03-16.42,3.52-.45,5.68.12,7.76,3.03-4.98,1.5,3.9,8.4,2.16,2.16,1.02.22,2.93,6.91,4.33,4.32,2.9-5.32-3.49-4.71-3.89-6.5.81-4.36,3.17.61,5.19-.86l-5.18-18.54,1.73,2.58c1.79-.33-.19-2.58,2.57-.85v-4.31c1.1,5.61,3.44,4.58,2.6-.87.81,1.01.96,2.51,2.14.84,2.62-3.71,1.68-10.51-3.86-9.47-.05,3.06,1.25,5.56,1.72,8.62-9.85-12.38,6.77-14.55,4.32,0,1.76-1.79,4.23-3.28,4.32-6.03,1.42-.48.42,1.82,1.33,1.78.8-.03,1.84-1.22,2.97-.92-.61,3.05-8.6,6.74-9.29,7.94-1.16,2.02.16,11.84,3.25,9.31.43-.35-1.14-3.36,1.72-2.58l.86,4.31c.61-3.22-2.49-6.89.44-9.48l.44,6.89c.99-.02,2.49-6.27,4.3-4.31,1.06,1.15-3.16,7.97-2.59,8.62,4.74,1.74,7.3-.08,11.21-2.58-.09,4.22-2.15,6.68-.86,11.21-1.61.58-2.29-1.89-3.45-1.35-.36.17-5.48,5.33-5.65,5.7-1.14,2.51,1.74,3.36,1.33,6.01-.64.68-7.05-4.71-7.76-1.28-.32,1.56,4.43,2.7,2.58,4.73-.39.42-4.36-3.77-5.58-3.46-.9.23-1.07,2.31-1.65,3.17-.54.81-2.97-.43.77,2.87.71.33-.24-1.58,1.65-1.8,5.09-.6,10.09,1.41,15.17.94v2.58c-.55.58-7.38-1.14-8.63,1.3l5.13,2.2-.12,1.92-28.53,44.04c-.27.78,1.71,7.98,2.05,8.25.29.24,3.23.21,3.35.09,1.01-.96-2.73-9.31-2.58-11.21,2.92,1.52,1.61,5.19,5.56,5.23,1.81.02,13.56-4.48,14.33-5.83.95-1.67.41-4.3,1.22-5.47.72-1.05,3.37-.71,3.85-2.23.11-.36-.66-6.86-.82-7.51-.17-.7-1.68-.55-1.75-1.13-.21-1.63,1.7-4.98.91-7.22,1.88.13,1,5.11,2.21,5.21,3.97.34,10.47-4.53,15.03-4.36l-3.44-1.71c1.09-.13,8.33,1.45,6.48-.87-1.33-1.68-4.53.45-3.89-2.58,1.88.49,9.09-1.34,9.49-3.04s-3.91-3.01-4.74-3.01h-12.51c1.67-4.22,14.91.7,16.4-.86l-.86-15.53,1.73,9.49c12.15-4.26,4.3-6.56,4.27-12.5-.03-5.21,5.47-13.42,2.63-19.42l3.44,3.45c.08-3.33.96-6.62,2.59-9.48-4.29,1.86-4.04-1.43-6.9-4.31l4.31,1.72.86-2.59v4.31s1.75-.41,1.75-.41l6.9-18.99-5.13,3.49-2.65,10.73-.42-7.76-6.48,3.89-3.44,7.32-2.59-9.48c2.88-.39,1.05,7.21,3.43,5.17.44-.38,1.5-4.53,2.62-5.58,1.76-1.65,6.22-1.48,7.73-4.33.05-1.71-14.11-1.7-13.78-6.47h6.89c.73.98-3.51.89-.86,2.16,2.9,1.39,7.18,1.34,10.35,1.28l-3.45-.86c-1.06-2.97,3.53-.66,2.58-3-1.58-3.9-9.58-8.09-9.47-13.39,4.52,3.63,11.77,17.65,18.55,12.95,1.5-1.04,7.67-9.42,8.57-11.28,1.47-3.04-.79-5.28,4.79-5.13l.86,3.46c1-3.5-1.64-5.92-2.41-8.45-1.12-3.71,1.83-3.03-3.7-7.43-1.28-1.02-7.87-3.62-5.96-5.68,3.2-3.45,17.75,17.39,19.03,19.39.44.7,1.97,6.24,2.54,1.76.39-3.09-.29-6.77,0-9.94.56-.06,1.72,1.15,1.72,1.29v12.94c0,.97,4.33,5.14,5.22,6.86,1.02,1.98.96,3.98,1.69,5.65-.35-.24-1.61-1.02-1.72-.86-.06,5.54-2.31,11.37-2.58,16.83-.25,5.15,1.76,8.4.86,13.36l7.7-20.28c-1.49-3.04-2.91-5.94-4.26-9.06ZM445.2,747.21c1.64-1.45-.17-21.33-1.28-24.17-1.8,2.41-2.43,5.43-4.04,8.04-5.12,8.25-20.63,17.15-30.44,16.03-1.44-.16-5.3-2.59-6-2.46-1.36.26-6.86,14.31-11.72,12.9-.8-3.36,2.53-2.99,4.33-4.97,6.7-7.38,15.65-35.56,8.63-43.8-2.63-3.08-7.57-3.67-10.67-5.73-5.39-3.58-15.48-25.21-17.27-31.91-4.21-15.78-2.19-51-1.27-68.34.2-3.73,1.23-7.56,1.3-11.57.02-.98,1.1-2.96-.57-2.79l-9.51,32.77-1.7-2.58-4.31,12.53,1.72-2.17,1.28,1.72c.55-.21,8.5-7.62,6.34-2.29-.18.46-5.91,7.27-6.31,7.57-1.21.92-2.76-.37-3.04-.11-.49.46-2.54,11.15-3.45,12.95l6.03-1.72c.39,3.17-.49,5.75-3.02,7.76l1.29-5.17c-5.77-.46-6.41,5.91-7.51,10.17-3.64,14.14-4.29,28.78-3.7,43.32,1.52,1.63,9.94-6.1,11.62-6.93,1-.49,1.76-1.15,2.17.48.67,2.64-1.42,4.11-3.02,5.59v-4.31c-2.46,3.08-6.77,3.95-6.48,8.62l-1.28-2.58-2.6,1.71c-.31,4.17-.03,9.93.48,14.2.22,1.82,1.4,2.6,1.69,3.51.15.47-1.53.26-1.73.98-1.26,4.5,2.79,4.69,5.77,6.61l6.3,8.35h-5.17c-.42-.3,2.49-2.34,1.72-3.43-.17-.24-4.64-3.25-4.93-3.33-1.36-.4-6.23.1-5.41,2,1.62,3.76,6.32,3.88,8.56,5.25,2.46,1.51,4.44,4.14,7.67,5.29,3.89,1.38,6.52.04,10.51.27l-5.17,2.14,13.38,13.37,3.88-6.46c2.55-3.01,6.18-5.62,8.63-8.62,1.12-1.37,1.16-3.53,2.57-3.89.84,6.73-13.57,15.07-12.96,21.1.29,2.84,7.65,7.13,6.96,9.49-.26.89-3.36.87-2.61,3.05,1.61-.67,3.56-.34,5.1.5,1.81.98,6.43,9.06,5.91,3.6-.29-3.03-1.82-5.99-2.32-8.91-.15-.86-.68-3.18.79-2.94l3.6,15.38,6.67.91c2.76-2.63-2.1-12.33-1.63-12.84,2.43-2.63,6.23,13.25,6.91,13.8.83.67,2.56-.7,2.58-2.12.06-2.83-5.53-7.95-5.18-11.68l2.22,1.63,4.67,6.99c1.67-6.21-2.74-11.37-3.43-17.25,4.56,3.36,6.83,20.25,8.63,4.31l2.57.86c.93-5.32-2.26-9.6-2.57-14.67,3.58,2.2,3.51,7.44,5.82,10.97,2.72,4.15,2.43-3.6,2.8-4.06.25-.3,2,1.19,2.58.86-.67-4.17,3.86-8.13,3.46-12.94,2.38,1.86,1.6-.68,2.53-1.32.7-.48,2.34.72,2.62.47ZM429.69,772.22c3.27-1.38,1.48-6.49-.86-7.76l.86,7.76ZM416.73,207.06c-.21-3.55,2.02-8.37,1.81-11.65-.07-1.09-1.46-5.01-2.66-5.6l-.95,10.78,1.79,6.47ZM408.12,103.52c5.04-.82,5.87-7.14,0-6.04v6.04ZM406.39,78.51c-2.03,12.87,6.62,8.35,1.94,1.1-.55-.85.07-1.54-1.94-1.1ZM401.24,105.31c.23,3.16,1.59,5.85,5.17,5.57,1.3-.59.51-6.23-.03-7.35l-5.14,1.78ZM405.54,176.86c.1.08,1.82.32,1.7-.42l-3.44-3.89c.01.73,1.56,4.16,1.73,4.31ZM406.38,115.6c.18-.19-.1-1.88,0-2.58-6.71.6-6.18.24-6.92-6.04-1.69-1.43-6.42,4-6.88,5.63-.56,1.96,1.1,1.1,2.17,1.24,1.88.25,11.22,2.18,11.62,1.76ZM393.45,116.47c1.83,4.01,5.05,1.52,7.32,1.71,1.28.11,4.99,4.61,5.62,1.29.6-3.15-11.16-3.17-12.94-3ZM401.21,789.47c1.25-4.16-2.81-3.87-4.39-6.45-.39-.64-.45-7.04-2.5-4.76-.61.68,3.59,11.57,6.89,11.21ZM395.17,789.47c.08-5.77-6.3-7.39-5.18-13.8-2.81,2.39-8.23.37-5.22,4.8l10.4,9ZM393.33,93.91c1.45-.9,1.05-7.8-.31-9.37-1.58,1.53-7.19,8.08-3.31,9.35.82.27,2.98.42,3.63.02ZM393.44,517.68c-8.74-22.53-13.82-46.45-30.77-64.61-7.81-8.37-17.7-15.37-26.09-23.05-2.2-2.02-3.93-5.8-6.97-7.25.81,2.88,3.33,5.85,5.19,8.17,10.99,13.65,23.39,26.55,30.47,42.86l28.16,43.88ZM377.06,769.64c1.73,3.11,4.41,7.98,8.38,6.25,5.58-2.41,2.2-7.5-.19-11.42-2.77,1.95-4.49,6.85-8.19,5.17ZM344.27,130.28c-1.78,10.58,3.13,17.64,10.91,24.03,1.45.28,13.97-8.58,16.51-9.98,3.06-1.69,14.91-5.47,15.66-8.53.32-1.31-2.2-4.7-3.82-4.69-3.08.02-4.01,7.28-12.73,5.87-6.77-1.09-7.96-5.63-10.56-10.99l-5.61,2.56,5.17-26.74-13.38,6.89-2.16,16.4c-1.54.2-.84-1.94-.75-2.9.34-3.57,1.32-7.11.75-10.89-2.52,1.79-3.95,5.7-4.31,8.62-1.51.23-.9-2.01-.67-2.82.66-2.34,2.41-4.39,3.26-6.65-1.18.3-7.32,1.61-7.61,1.86-.32.28-2.52,7.2-2.69,8.1-.65,3.47-1.46,14.45-.26,17.42.72,1.77,4.68,5.58,5.34,2.33.09-.46-.83-8.67-1-9.27-.24-.87-3.8-4.47-3.27-4.92l4.31,1.71.86-4.31c-1.29,2.39.03,12.99,3.03,12.92,3.43-.08-.57-7.01,3.01-6.02ZM381.36,563.41c.7-6.29,2.93-12.47,3.25-18.83.23-4.44-2.24-5.53-3-.35-.69,4.74-1.31,11.44-1.1,16.17.05,1.05-.66,3.2.85,3ZM341.68,727.35c-2.43-2.24-4.31-6.2-6.58-7.66-.78-.5-7.04-2.79-7.61-2.76s-.09,2.73-2.18,1.78l-26.83-29.26c-2.26-.22-3.35,1.75-3.35,3.68.04,11.64,10.61,32.55,17.71,41.91,6.1,8.04,14.85,14.94,21.07,22.94,3.95,5.08,4.23,11.58,12.73,12.35,1.57.14,5.35-1.39,4.05-2.41-1.54-1.21-3.7-2.87-5.56-3.47-.26-1.03.47-1.08,1.29-.87,3.41.85,6.35,6.05,9.91,6.94.65,3.23-2.64.94-4.74.85-2.73-.12-5.47.06-8.19,0-1.11,1.01,5.91,9.37,7.33,10.31,2.96-.96,8.03-8.92,9.5-9.44,1.59-.57,1.24,1.69,1.71,1.76,2.23.34,2.68-1.56,3.87-2.06,5.04-2.11,10.19-.92,7.78-8.33,2.59,1.45,1.62,8.22,6.05,3.89,5.92-5.79,2.21-8.04-3.06-12.5-3.54-3-17.75-12.91-21.57-13.01-3.17-.08-8.01,2.83-9.89-.81,1.16-.57,4.74-.15,4.21-2.06-1.26-4.56-3.24-3.35-4.27-4.55-1.12-1.31-2.6-5.44-3.4-7.21.89.83,2.26,1.43,3.02,2.59l1.28-1.72.89,3.44c.95.38,3.45-.4,3.42-1.29-.02-.71-9.46-9.26-11.19-7.77,1.89,1.24,1.87,3.15,2.58,4.75ZM376.21,107.84c6.95-4.21.05-7.41-4.33-9.49-1.54,6.76,2.21,5.47,4.33,9.49ZM370.42,147.79c.2-.18,5.35-1.6,1.9-1.98l-13.31,8.26-6.11,5.53,15.51-9.09c1.06-.57,1.26-2.06,2-2.72ZM364.97,277.8c2.81-3.22-3.46-.49-3.87-.39-1.36.32-3.57-1.88-3.03,1.27,1.78.35,5.65.56,6.9-.87ZM360.66,119.49c.3-4.13-.21-8.38,0-12.51l-2.63,11.61.04,6.51c3.78,0,1.7-2.43,1.89-3.9.11-.84.68-1.47.69-1.71ZM349.45,286.44c4.02-.22,9.7-2.81,11.21-6.89-5.43-1.2-8.15,3.24-11.21,6.89ZM359.79,99.21v-2.58s-2.58,0-2.58,0c-.56,2.1.92,1.69,2.58,2.58ZM351.71,281.8c1.18-1.09,2.04-2.73,3.77-3.55-.13-.54-1.98-1.05-2.32-1.05-.59.01-11.01,2.84-11.39,3.29-.35.41-.22,3.73.04,4.54,1.47,4.56,8.11-1.56,9.9-3.23ZM335.64,102.65c7.98,1.45,12.46,5.17,18.1-3.01-6.67-9.98-14.6-7.99-18.1,3.01ZM350.87,293.91c.77-.81,1.11-2,2.03-2.72-1.1-1.52-2.36,1.03-3.52,1.66-2.17,1.17-5.98,1.44-5.96,4.81,1.45,1.27,6.34-2.57,7.46-3.75ZM345.14,145.81c-.33,2.19,1.14,4.47,3.44,4.3-1.2-1.19-1.98-3.69-3.44-4.3ZM346.85,91.44v-2.58c-5.71.39-5.71,2.19,0,2.58ZM343.4,145.8c.48-1.37-.96-5.97-2.15-6.02-2.69-.11.21,6.03,2.15,6.02ZM342.53,302.83c.87-.61,2.18-4.71-2.11-3.41-2.82.85.99,4.2,2.11,3.41ZM333.05,109.55c1.32.62,10.43-2.27,9.49-3.43l-7.75-2.6-1.73,6.03ZM342.54,298.52v-1.72c-.48-.47-4.49,1.24-3.44,1.71h3.44ZM328.74,153.56c4.75.31,8.37-3.22,12.94-3.87-6.11-7.93-7.64-.21-12.94,3.87ZM338.24,295.93c.2.24,4.67-2.26,3.44-3.45-.81-.78-4.02,1.85-3.44,3.45ZM340.81,87.11c-2.96-7.61-14.73-.61-17.27,4.33-3.39-3.28-7.6,1.94-12.06.87-.41,1.99.22,1.38,1.1,1.94,3.51,2.22,9.68,4.57,9.26-1.5,1.17-1.41.93.95.79,1.64-.63,3.1-3.03,7.2-5.13,9.55-2.76,3.08-5.02,3.14-7.74,5.62,3.64,1.92,18.94,2.83,21.36.67,1.33-1.18,2.69-7.89.2-9.28,4.83,1.32,5.06-5.83,7.77-9.06-3.18.15-4.81,3.44-8.2,3.02-.76-.09-.57-1.56-.43-1.72.5-.6,8.85-4.65,10.34-6.07ZM338.24,138.9c3-.75.74-4.49-.86-5.17l.86,5.17ZM334.78,258.83l4.29-3.02c-1.53-1.8-3.53-3.27-6.02-3.02l1.73,6.03ZM337.36,306.29v-4.32s-2.58,1.72-2.58,1.72c3.24-5.69-6.86-.43-4.32,2.59,1.7.56,2.18-1.38,3.02-1.72.23-.09.82,3.03,3.87,1.73ZM330.47,314.05c.59.69,7.99-5.09,6.89-6.03-5.03-.78-7.19.92-6.89,6.03ZM317.53,167.37c.62.58,15.07-2.91,16.61-3.65,1.18-.57,1.77-.93,1.5-2.38-5.77.48-16.84-1.59-18.11,6.03ZM333.05,251.93v-1.72s-2.58,0-2.58,0c.29,1.25,1.39,1.98,2.58,1.71ZM329.59,254.52c.49-.56-3.2-6.44-4.3-5.17-.95,1.1,4.06,5.45,4.3,5.17ZM324.55,315.04c.48-.55,4.54-.76,4.92-5.02.35-3.93-7.77-.25-8.43.7-.49.7,2.42,5.89,1.66,7.66,3.05.76.99-2.36,1.84-3.33ZM328.74,318.36v-1.72c-1.27-.28-1.79.38-2.58,1.29l2.58.42ZM320.12,308.01c2.39-.85,4.94-1.78,6.03-4.31-3.08.13-6.2.59-6.03,4.31ZM326.14,421.91l-11.71-16.32-2.94-2.66c3.14,6.94,9.29,13.59,14.65,18.98ZM323.55,248.48v-2.58s-1.71,0-1.71,0c-.27,1.19.46,2.29,1.71,2.58ZM320.12,160.47l2.58-2.58c-1.63-.28-2.87,1.01-2.58,2.58ZM321.83,320.09c.68-9.58-7.99-13.51-2.1-1.73.61,1.22-.2,2.17,2.1,1.73ZM320.1,245.03c.15-1.52-1.15-4.67-2.58-3.44-.16.14,1.51,3.45,2.58,3.44ZM314.94,327l2.57-2.17c.42-1.87-.87-1.27-2.58-1.28v3.45ZM313.22,106.11l2.58-2.58c-1.63-.28-2.87,1.01-2.58,2.58ZM315.79,317.5c-.16-1.43.34-3.26.03-4.57-.29-1.18-3.41-1.06-2.55-3.15,3.69.16-.6-4.33-.06-6.95-3,4.57-2.54.65-4.29,1.26-5.62,1.94-3.38,5.63-3.55,8.71-.08,1.5-2,2.38-1.58,4.11.76,3.09,8.84,6.34,12.01,4.03-2.71-3.54-5-7.61-6.94-11.6-.4-.82-1.63-2.4-.4-3.05l7.33,11.21ZM312.36,329.58c.97.71,2.63-3.25,1.32-5.22-1.19-1.81-5.49,1.36-7.37-1.68v4.31s-2.59-6.89-2.59-6.89c.85,3.92-.93,9.86-.61,13.26.1,1.04,4.52,10.5,5.01,10.83.14.09,3.13-.8,3.27-.9.17-.12.28-4.1.1-4.21-.34-.21-1.93.28-2.78-.04-.73-.27-.71-1.18-1.03-1.38-.86-.54-2.15-.24-2.23-.33-2.03-2.14,1.98-2.67,2.52-3.07,1.16-.86.39-2.9,2.64-1.23l-.85-6.9,2.6,3.44ZM308.9,286.88c-.43,4.55.31,9.63,0,14.24,1.2-.1,2.17-3.18,2.38-4.09,1.18-5.15.04-9.29.39-13.4.15-1.7,1.38-3.62,1.58-6.21.07-.91.54-3.28-.89-3.04.2,4.57-3.05,8.13-3.46,12.51ZM308.89,698.88c-.6-3.26-4.04-7.27-6.44-9.48-3.25-3-4.23-2.2-1.32,1.28,2.35,2.81,5.02,5.74,7.76,8.19ZM308.89,733.39l-8.61-17.25c0,3.52,1.5,7.22,2.99,10.37.4.84,4.19,8.43,5.63,6.88ZM302,306.28c1.85,2.13,5.76-8.51,4.9-11.51-1.09-3.79-5.05-1.58-5.63.9-.43,1.88,1.71,7.85.73,10.61ZM302.85,315.78c.21-2.27,1.63-4.36-1.71-4.31-.1,1.64-.24,3.79,1.71,4.31ZM299.4,318.37c.28-1.56-1.17-2.83-2.57-3.45-.28,1.56,1.17,2.83,2.57,3.45ZM258.86,377.03c1.12.35,4.34-1.29,3.45-1.71-1.54-.23-3.02.05-3.45,1.71ZM193.28,445.21c.48-.34,3.58-8.97,6.05-9.94.14-.64-.94-.6-1.28-.42-.71.38-5.25,6.46-7.42,8.12-2.69,2.07-10.68,5.44-12.02,6.96-1.31,1.5-.49,3.62-1.64,5.26-1.15,1.62-7.03,4.91-8.69,6.84,3.47,2.06,5.4-3.75,5.75-3.9,1.28-.55,7.32-1.8,5.05.89l-22.88,12.94c.67,2.4,6.22.5,5.78,3.89-.32,2.49-6.54,4.66-8.37,6.02l2.58.44c-3.8,6.45-10.3-2.07-14.24,2.58l-1.7-1.72-3.88,5.58c1.63,2.05,6.37,6.14,8.98,5.69.68-.12.1-2.69,2.21-1.78,2.41,6.14,7.45,12.3,14.68,12.06.23-.17-2.91-4.1-1.3-5.16,1.43,2.08,5.3,1.22,6.52,2.11,1.18.85,2.03,10.9,6,.48-4.68.77-1.89-2.74-1.9-5.62-.02-5.27-1.86-3.4-5.86-4.3,3.05-3.2,10.17,1.35,9.48-4.76l-1.71-.41c4.57-5.73,4.74-13.4,7.6-20.01,1.1-2.53,7.84-12.56,7.05-14.08-.06-.12-1.98,1.12-2.56-.43,3.1-1.87,5.03-4.43,5.17-8.21.37-.35,2.39,1.01,2.57.88ZM146.7,480.57c1.83.04,3.67.1,5.51-.1.88-.09,4.05-.34,3.98-1.61-3.45-.22-7.34-2.27-9.49,1.71ZM131.17,490.93c.61.54,3.43-.42,3.43-1.29,0-2.14-5.17-.23-3.43,1.29ZM130.3,490.07c.25-.24-3.18-5.83-3.46-6.03-.65-.46-2.43.66-2.57,1.3-.38,1.74,5.2,5.53,6.03,4.73ZM115.65,478.86c-.39,3.43,5.94,8.62,7.75,3.87.68-1.78-6.73-2.79-7.75-3.87ZM114.77,481.44c1.99-1.84-8.36-7.08-10.35-6.03-1.48,1.18,9.41,6.9,10.35,6.03ZM43.37,377.98l-.25-1.13-5.28,1.2.25,1.13,5.28-1.2ZM26.78,376.17c.69.61,10.46.09,11.21-2.57-3.5-1.12-10.4-2.26-11.21,2.57ZM35.49,456.69l-5.02-2.49-.63,1.27,5.02,2.49.63-1.27Z"/>
  <path d="M457.02,309.16c-9.04-5.74-10.66-.74-19.02,1.57-2.25.62-13.33,2.61-14.36,1.59-.43-.43-.03-2.2.84-2.99.32-.29,2.1-.05,3.02-.39,6.72-2.54,12.86-5.86,19.43-8.71.23-.31-4.97-5.37-4.31-6.02,1.29-1.29,3.67,4.38,5.78,4.99.99.29,6.08.41,6.3.18.27-.28.05-6.9.87-7.77,3.03-3.2.83,6.89.87,7.3.14,1.53,1.8,3.02,2.55,4.35-1.38,2.76-3.28-1.56-4.29-.43-1.27,1.43,2.24,4.21,3.49,4.7,2.03.79,20.39,1.54,21.53.47-1.27-7.23-3.61-14.3-5.91-21.24-.42-1.27-1.71-1.19-1.83-1.8-.4-1.91.18-3.94-.43-6.32-2.56-10.01-16.72-2.85-16.81.38-.04,1.72,1.53,4.37.81,6.55l-2.14-6.03c-1.8,2.47-4.83,4.1-6.82,6.12-1.87,1.9-3.58,5.11-5.69,6.81-.38-1.38-.61-1.67-.1-3.07,1.49-4.06,13.99-9.39,12.17-15.9,1.79-.34-.18,3.5,2.14,2.58.68-.27,2.66-2.46,4.43-3.33,6.64-3.29,12.19-1.57,13.69,5.93l14.7-12.91,9.9-6.92-24.15,22c-.13.65.83.55,1.27.41,2.63-.81,20.84-15.81,25.2-18.81,47.86-32.96,102.8-56.73,146.09-96.35,19.7-18.03,33.75-37.08,33.63-65.15-2-.54-1.44.47-1.97,1.09-12.49,14.59-27.4,26.57-42.48,38.57-5.8,4.62-12.52,10.08-18.53,14.26-.7.48-1.67,2.32-2.58.87l50.93-41.38c5.92-5.66,9.9-11.67,14.43-18.32.53-.78-.13-1.59,1.92-1.12,1.44,30.4-10.94,50.96-32.33,70.77-40.45,37.47-91.44,60.74-137.04,90.74-12.71,8.36-24.56,18.06-36.83,27.04-.97.64-.85,1.33-.74,2.34.65,5.91,7.04,15.6,7.62,21.01.12,1.14.24,2.73-.8,3.43-2.65,1.79-11.15.41-14.25.34-2.02-.04-8.16.87-8.61.76-.96-.22-1.11-1.86-1.61-2.18ZM450.39,303.69c.6-2.73-1.94-1.71-3.69-1.52l-12.7,6.7c5.93.13,10.55-4.56,16.39-5.18Z"/>
  <path d="M333.92,31.91c.11.25,3.44,5.81.44,3.44-.91-2.2-10.12-16.29-9.07-17.24,4.87.21,8.95,4.01,13.95,4.59,14.97,1.73,17.67-12.64,23.58-22.7l4.74,6.89-5.16-3.45c-3.83,9.46-9.08,21.23-21.11,20.73-4.4-.18-8.25-2.97-12.55-3.48-.5.47,4.55,9.86,5.17,11.21.09-1.02-.75-1.84,1.09-1.54,3.15.51,8,1.52,10.12,4.12-3.82-.62-7.18-3.11-11.22-2.58Z"/>
  <path d="M618.63,173.4c6.07-6.44,14.71-10.21,21.78-15.55,4.32-3.26,15.6-12.66,18.17-16.53,2.13-3.2,5.01-1.74,1.75,1.76-7.01,7.53-18.99,14.54-26.93,21.39l-14.78,8.94Z"/>
  <rect x="493.48" y="224.24" width="2.39" height="57.4" transform="translate(384.44 -291.6) rotate(51.47)"/>
  <path d="M368.44,7.75c10.1,14.07,26.34,19.18,38.82,30.19l-14.1-7.89c-8.68-7.07-20.47-10.86-24.72-22.3Z"/>
  <path d="M407.25,64.69c-.74-.78,11.7-14.73,11.97-17.84.15-1.73-7.4-4.85-9.39-6.73-1.11-1.04-1.45-1.49.43-1.3l12.53,6.48c.23,1.07-8.9,12.78-10.4,14.61-.61.75-4.17,5.8-5.14,4.77Z"/>
  <path d="M517.69,233.8l15.63-12.4,4.21-2.25c.8.7-15,12.57-16.35,13.4-1.15.71-1.76,1.7-3.48,1.25Z"/>
  <path d="M337.37,41.4c-.08-.1-.12-2.36,0-2.59.27-.53,9.64,1.68,11.2,1.74-1.86,3.62-5.38.12-7.38,0-1.1-.07-3.58,1.15-3.83.85Z"/>
  <path d="M330.48,298.51c-.5-2.91-4.69-3.53-4.33-6.89,2.3-.54,1.64,1.37,3.08,2.51,1.57,1.24,5.82.78,1.24,4.38Z"/>
  <path d="M447.79,256.24c-1.52-.24-1.48-1.74-1.95-2.79-1.94-4.37-4.43-11-6-15.57-.47-1.38-.93-2.56-.67-4.07l8.61,22.43Z"/>
  <rect x="546.31" y="205.9" width="1.49" height="11.03" transform="translate(357.14 -343.47) rotate(49.98)"/>
  <path d="M394.91,184.38c-1.39,1.13-3.94,1.99-5.78,1.97l5.62-4.29c2.32-.6.42,2.11.16,2.32Z"/>
  <path d="M331.32,288.17c-1.49-1.88-4.87-3.33-4.3-6.04,1.26-1.44,4.75,4.8,4.3,6.04Z"/>
  <path d="M451.24,268.32c-.98-.09-1.97-3.55-2.14-4.31-.33-1.46-.68-2.78-.43-4.31,1.14.13,1.73,3.49,1.96,4.5.31,1.37.88,2.65.61,4.12Z"/>
  <rect x="565.81" y="191.89" width="1.24" height="7.92" transform="translate(302.77 -342.38) rotate(44.83)"/>
  <rect x="600.57" y="179.19" width="1.49" height="8.13" transform="translate(433.09 -422.44) rotate(57.53)"/>
  <rect x="576.53" y="177.9" width="1.38" height="17.77" transform="translate(350.06 -375.77) rotate(50.08)"/>
  <rect x="588.97" y="170.28" width="1.44" height="12.25" transform="translate(338.6 -385.57) rotate(49.27)"/>
  <path d="M556.51,203.6c.98-1.89,2.76-3.84,5.17-3.43-.27.99-4.64,3.91-5.17,3.43Z"/>
  <rect x="531.3" y="229.35" width="1.25" height="5.47" transform="translate(316.71 -306.88) rotate(44.66)"/>
  <rect x="597.73" y="166.36" width="1.25" height="5.47" transform="translate(291.61 -371.76) rotate(44.66)"/>
  <path d="M320.97,209.65c-.37.84-2.17-2.75-2.58-3.44,3.36-.51,2.67.42,2.58,3.44Z"/>
  <path d="M522,239.84c.62-1.41,1.89-2.85,3.45-2.57-.62,1.41-1.89,2.85-3.45,2.57Z"/>
  <path d="M505.61,252.78c.62-1.41,1.89-2.85,3.45-2.57-.62,1.41-1.89,2.85-3.45,2.57Z"/>
  <path d="M438.3,231.22c-1.95-.52-1.84-2.7-1.71-4.31h.84s.86,4.31.86,4.31Z"/>
  <path d="M591.02,189.8c.62-1.41,1.89-2.85,3.45-2.57-.62,1.41-1.89,2.85-3.45,2.57Z"/>
  <path d="M610,159.6c.62-1.41,1.89-2.85,3.45-2.57-.62,1.41-1.89,2.85-3.45,2.57Z"/>
  <path d="M601.37,166.5c.62-1.41,1.89-2.85,3.45-2.57-.62,1.41-1.89,2.85-3.45,2.57Z"/>
  <path d="M455.57,290.76l.42-3.45c1.89,1.33,1.68,2.66-.42,3.45Z"/>
  <path d="M503.02,256.23c-1.82,1.86-4.92-.06-.42-1.71.75-.11.49,1.65.42,1.71Z"/>
  <path d="M576.35,198.43c.42-1.66,1.91-1.94,3.45-1.71.89.42-2.32,2.06-3.45,1.71Z"/>
  <rect x="352.91" y="50.03" width=".85" height="4.31" transform="translate(405.51 -301.14) rotate(90)"/>
  <path d="M354.63,90.57c-.12-.12.04-.56,0-.84,1.54-.23,3.02.05,3.45,1.71-.68.09-3.25-.67-3.44-.87Z"/>
  <path d="M401.2,87.13c-1.25-.29-1.98-1.39-1.71-2.58h1.72s0,2.58,0,2.58Z"/>
  <path d="M83.72,421.04v-1.72s2.58,0,2.58,0c-.29,1.25-1.39,1.98-2.58,1.71Z"/>
  <path d="M372.74,743.74c-1.78.73-7.71-5.09-7.74-5.6-.07-1.07,1.08-1.15,2.14-.44,1.38.92,5.27,4.21,5.6,6.04Z"/>
  <path d="M376.2,748.92c-1.04-2.51,6.1-5.83,6.02-3.02-.03,1.04-5.39,3.6-6.02,3.02Z"/>
  <path d="M366.7,714.4c-1.07.56-3-1.36-2.58-1.71l2.58-.87v2.58Z"/>
  <path d="M349.44,758.42h-2.58c1.41-3.93.82-7.27,0-11.22,1.5.53,2.16,4.45,2.36,5.82.26,1.8.32,3.58.22,5.39Z"/>
  <path d="M323.56,97.49l4.31.86v.84c-1.61.13-3.79.24-4.31-1.71Z"/>
</svg>