<?xml version="1.0" encoding="UTF-8"?>
<svg id="Layer_1" xmlns="http://www.w3.org/2000/svg" version="1.1" viewBox="0 0 277.35 850.32">
  <!-- Generator: Adobe Illustrator 30.0.0, SVG Export Plug-In . SVG Version: 2.1.1 Build 123)  -->
  <path d="M98.31,484.84c-.14-.53-2.35-2.52-2.86-3.87-6.18-16.2-12.08-33.72-9.68-51.57.78-5.8,6.09-6.08,8.27-10.32.74-1.45-.01-2.84.48-3.6.74-1.14,3.39-1.88,4.55-3.06,1.03-1.05,6.42-7.5,6.8-8.34.17-.36.21-1.38-.41-1.25-1.01,2.16-3.38,1.49-2.95-.41.23-1,6.1-3.55,7.56-3.81.45-1.68-7.64.09-5.04-2.5,1.03-1.03,10.46-2.23,11.63-5.62,1.71-4.93-4.16-18.58-3.23-24.68-1.93-.91-2.99,4.44-5.04,2.52-.62-.58,3.66-10.14,3.37-12.18l-3.37,1.25c-.6-4.32,3.36-9.91,2.57-13.85-.17-.87-1.93-.35-2.58-.45.01-2,2.88-2.85,3.22-3.9.87-2.67.11-10.16,1.4-12.1.89-1.34,6.26-1.81,8-2.52-.79-2.38-6.67.88-7.56,0-.56-2.2,2.08-4.18,1.58-6.14-.59-2.32-3.83-1.95-4.13-2.69-1.71-4.28,4.18-.26,5.9-.43.72-2.44-1.93-1.47-2.44-3.04-1.1-3.4,3.72-10.76,3.28-11.25-9.69-.7-17.94-6.54-26.79-10.21-1.8-2.97,3.53-4.14,2.02-6.61-1.23-2.02-11.56-4.96-13.92-7.58l.83,35.33c-11.56-5.16-23.57-9.04-36.16-10.93v2.52s3.36-.84,3.36-.84c1.15,3.06-1.79,8.16-1.43,10.37,1.05,6.55,6.83,16.06,5.5,24.37-.46,2.84-3.49,3.72-2.36,9.41.56,2.78,5.85,6.37,5.93,6.83.59,3.48-6.14,5.17-6.71,7.66-.38,1.65,1.27,2.46,1.31,3.21.09,1.43-.29,2.13-.01,5.04.16,1.72-3.69,3.24-1.35,5.01.68.51,7.25,2.98,8,2.93.69-.04,5.39-3.59,5.47-3.92.41-1.75-.87-3.89-.87-5.72-.01-12.61-.6-27.17-.03-39.5.1-2.13,1.84-15.84,2.55-16.44,2.25-1.88,3.39,2.77,3.36,4.62l-2.53-.41c-1.1,17.69-1.4,35.68-.88,53.46.06,2.02,1.4,4.98.81,6.59-.58,1.6-2.78,1.05-3.17,1.49-.36.42-.09,2.81-.54,4.09-2.78,7.95-11.91,25.33-12.69,31.92-.85,7.18,1.35,18.9-.77,26.58-1.17,4.22-2.66,3.4-3-.84-.79-9.98,4.81-21.21-2.17-29.85-.51-.64-1.97-.79-2.07-1.41-.26-1.63,3.66-6.05,3.24-8.38-.16-.89-1.96-.93-2.21-1.33-1.73-2.75,10.32-16.14,12.47-18.8-2.34-3.11-11.47-3.37-12.53-6.84-.45-1.49,6.6-16.27,8.2-18.54.12-.81-5.13-12.58-5.79-14.96-3.66-13.19-1.49-26.99-5.03-40.2-.22-.62-5.05-3.5-6.15-4.15-9.41-5.56-20.91-12.45-29.07-19.72-3.69-3.29-3.53-6.83,1.99-6.91,2.96-.04,9.38-.29,11.76-.12,2.53.17,8.38,3.87,10.98.82,3.03-3.54-.09-10.11.35-13,.14-.95,2.57.03,3.29-1.87,3.07-8.08,3.85-20.27,6.46-28.88,4.19-13.87,13.33-29.23,18.73-43.53,6.19-16.39,10.48-33.95,17.5-49.8.22-.5,5.27-8.7,5.64-9.08,1.01-1.03,4.11-1.82,5.66-1.92l-2.52-.83c.4-5.12,2.46-3.04,4.41-3.57,11.19-3.07,21.34-8.52,30.07-16.2-5.72.91-2.93-1.3-4.14-3.38-1.32-2.28-5.35-3.98-7.17-6.33-4.64-6.03-6.8-15.58-6.34-23.08.62-10.08,5.69-21.23,9.74-29.76.72-1.52,1.01-4.52,1.35-4.99.45-.62,12.46-4.87,14.34-5.44,5.02-1.52,9.77-.41,12.8-4.87,4.04-5.95,9.44-15.5,15.21-20.12C153.26,1.86,158.76.01,159.47,0c1.51-.03,9.82,7.84,11.17,9.54,14.38,17.95,8.73,60.11-.07,79.82-2.13,4.77-6.99,10.86-8.37,15.19-1.99,6.23-3.25,14.2-5.01,20.66-.68-.1-2.35.16-2.51,0-.47-.46-2.26-11.23-2.72-12.85-.38-1.35-2.11-1.74-2.14-3.36-.03-1.7,1.3-4.37.65-6.51,1.42-.49.3,4.41,2.5,2.51.18-.16,1.84-3.98,1.77-4.54s-2.67-1.34-3.49-2.54c-3.13-4.56,4.27-4.31,6.78-1.32-.05-2.88,1.11-4.86-2.53-4.21l.86-1.67c-9.44,2.19-7.36-12.73-2.12-16.66,4.13,1.62,5.35,4.82,6.1,8.88.24,1.27,1.74,13.03,1.56,13.7-.14.51-4.58,7.8-5.34,9.01-.92,1.46-3.93,3.93-4.07,4.8-.21,1.38,1.19,7.23,1.98,8.64.41.73.65,2.32,1.87,1.08.61-.61,2.66-14.05,3.8-16.82,1.81-4.43,6.41-10.09,8.6-14.95,8.35-18.51,13.25-55.66,2.58-73.64-1.01-1.71-7.57-10.1-9.38-9.77l-8.95,7.09c8.09,2.56,4.93,4.12-.53,7.04-1.32.7-10.42,3.56-5.77,4.29,1.87.29,4.75-.71,4.61,2.54-7.28-1.05-9.79-.76-15.57,3.39-2.58,1.86-4.23,2.87-7.06,4.69-1.49.95-2.84,2.26-4.29,3.29,6.3,2.03,13.48,5.48,3.34,9.23-6.75,2.5-11.38.44-17.64-2.08l1.67,19.34c-3.35.77-3.07-2.25-5.03-3.36-1.19,3.87,1.42,10.78.87,13.87-.18,1.03-2.35-.14-2.58.86-.19,1.36,2,8.53,2.98,9.64,1.51,1.71,4.71,1.88,6.18,4.76.96,1.88.82,5.12,1,5.31.23.24,5.97,1.7,6.29,1.72.36.02,8.34-1.33,5.43,1.69-.13.13-1.95-.08-3.4,1.23-2.35,2.13-4.99,10.45-5.8,11.03-2.63,1.89-4.33-3.18-6.2-2.89-2.26.35-11.38,8.23-14.27,9.33-6.3,2.4-7.38-1.29-10.71,6.96-.75,1.85-1.42,6.9-1.68,7.16-.56.55-3.56-1.17-4.09-.79-2.45,1.74-2.64,11.12-4.26,13.66-10.43,16.36-12.04,22.68-17.69,41.41-.88,2.91-3.54,6.96-4.05,9.41-.76,3.69.16,8.2-.19,12.01-7.46-3.27-4.17,9.32-5.04,10.1-.29.26-2.36-.4-3.22.13-3.05,1.89-2.79,14.09-1.84,17.53l-4.19-1.68c-1.93,7.33-2.8,14.73-3.36,22.3-.23,3.13-1.16,14.29-.88,16.71.03.24,3.51,1.98,1.71,3.89-.67.71-12.14-2.63-14.3-2.51,2.19,1.52.68,4.16,1.2,5.04.74,1.25,3.62,1.29,3.86,2.1,1.35,4.53-4.18-.44-6.75.43,1.71,2.64,11.53,9.54,14.1,9.94,2.23.35,4.74-.86,7.97-.49,4.89.56,10.16,3.75,14.75,5.45,1.52.56,7.67,1.06,5.23,3.59-.35.37-12.44-2.42-9.25.83,7.52,2.29,15.05,6.29,22.71,7.58v-32.39c-1.35-2.69-14.84-6.96-15.15-8.43-.2-.96,1.55-1.95,1.62-3.29.06-1.12-.89-2.3-.64-4.05.5-3.4,7.82-9.95,10.61-12.41,1.08-.95,3.55-1.48,3.55-1.68v-21.87c-7.15.62-12.52,6.68-19.75,6.74-1.91-3.03,1.5-2.51,3.29-4.27,7.15-7.01,25.87-42.06,27.34-51.75.12-.76.21-3.58.06-3.73-.54-.54-4.19,1.32-3.37-1.67,7.07.44,4.16.09,5.24-4.43.86-3.6,2.83-6.8.65-10.71,3.42-.72,3.14,2.85,3.5,3.17s7.27,2.17,8.26,3.97l-5.87,6.3c1.74.56,9.48-5.08,10.1-2.08.8,3.86-6.95,6.91-6.62,9.08.33,2.11,5.54,6.19,6.98,8.2,5.8,8.12-4.65,4.3-8.77,1.63-.51,4.32,6.7,12.1,5.88,15.55-.44,1.85-2.26.83-2.96-.39l-3.76-6.74c.89,2.83-4.13,18.7-3.38,19.33.2.17,2.32-.19,3.01.79.82,1.16.14,4.38.54,6.2.96,4.42,13.28,9.41,13.27,10.27-.06,3.81-8-.76-10.08-.41.38,2.76,9.17,3.35,8.4,5.45-.66,1.81-1.87.71-2.91.44-1.48-.39-7.7-3.66-8.02-3.36,2.15,3.07-1.34,2.97-3.77,5.06-1.95,1.68-3.61,3.69-5.48,5.45,1.45,1.26,2.77-1.4,4.16-1.75,1.25-.31,2.45.56,3.62.31,1.1-.24,3.99-3.23,4.83-2.34,1.7,1.8-6.59,7.03-7.63,8.81-.65,1.11.1,2.27-.33,2.94-.71,1.1-5.81,1.87-3.8,4.23.53.62,15.34-4.03,15.97-3.36,2.68,2.82-7.03,5.13-7.56,6.31,6.73,1.09-2.5,4.32-3.37,7.14l17.66-1.67c1.59,1.41-5.85,4.99-5.88,6.72,4.77.36,36.53.68,37.85,2.54.54.76-.43,2.06-1.4,2.37-3.09.98-15.03-.64-16.73,2.66,1.43,7.79,5.96,3.08,10.38,2.69,8.45-.74-5.33,10.16-4.86,10.77,5.89,1.99,12.16-1.93,18.09-2.51,2.42-.24,15.25-.34,16.42.43.62.4.58,2.02,1.36,2.15,1.86.31,6.74-2.34,9.58-.47.62.41.61,2.08,1.3,2.15,1.27.12,5.24-3,6.93-.67.6.83-.69,2.79,1.41,2.29l2.95-4.19c-8.07.35-3.56-2.44-3.54-3.8,0-.54-1.98-1.55-2.33-3.37-2.15-11.21.13-26.67-.86-38.68-.88-10.64-4.44-37.02-8.49-46.19-.32-.72-1.48-2.97-2.01-3.01-1.09-.77-4.57,6.13-4.62,2.94,1.09-1.81,4.31-6.87,6.77-5.12,2.95,2.1,9.48,42.77,10.04,48.86,1.25,13.6.14,27.28,1.7,40.8,1.17-.11,1.35-1.2,1.71-2.06,4.09-9.78,10.27-16.93,13.84-27.38.34-.99,1.22-4.64,1.07-5.37-.24-1.21-2.59-2-2.28-3.35.19-.81,1.93-1.56,2.31-2.8,1.4-4.58-.56-13.49-3.02-17.67-1.44-2.45-6.44-6.5-7.06-8.15-2.31-6.09-2.97-23.12-4.3-30.97-1.13-6.69-3.08-21.18-5.2-26.77s-17.8-5.61-22.69-4.98c-1.73.22-2.64,1.47-4.24,1.65-1.17.16,1.68-2.12-.8-1.65-2.24.43-6.98,3.35-7.64,3.36-1.21,0-2.94-2.39-2.9-2.99.03-.52,7.91-3.66,9.04-5.24,3.42.72,6.58-2.52,9.1-2.79,1.75-.18.64,1.98,2.3,1.63s6.14-3.41,6.86-3.28l1.62,4.23,19.85,12.2c.44,1.72-2.29,1.6-2.54,2.68-.23.97-.68,12.36-.33,12.9,4.15,6.3,1.87,12.9,2.88,20.57.61,4.68,3.65,12.58,6.03,16.68,1.7,2.93,9.52,10.64,9.15,12.76-.11.66-2.01.12-1.72.84,2.71,3.38,8.17,5.72,6.57,10.77-.57,1.8-3.14,1.9-1.51,4.79,1.15.45.78-3.43,2.51-1.67.21.21-1.17,5.09-1.41,5.73-1.37,3.63-6.26,7.93-6.86,10.03-.76,2.65,1.99,7.2.33,9.54-.69.96-2.84.64-3,.78-1.18,1.17,8.05,13.46-4.2,9.25.35,2.05,5.31,10.68,4.21,11.76-.41.4-2.8-.8-2.52.84,4.72,4.59,11.44,2.48,16.78-.44,8.83-12.77,18.67-24.63,21.9-40.27-4.48-12.44-7.04-25.61-11.73-37.97-8.06-21.25-33.47-67.03-53-78.23-2.69-1.54-12.97-4.94-13.49-5.45-1.74-1.74,1.87-1.8,2.89-1.62,28.93,5.1,61.32,71.09,69.71,96.86,2.91,8.93,3.59,19.4,9.01,27.16-4.95,8.26-7.4,17.91-12.79,25.94-3.12,4.66-10.98,10.1-9.1,16.53-5.24.27-12.42,2.41-17.34,2.46-4.64.04-14.23-4.81-12.12,3.7.23.91,1.97,1,2.55,1.8.84,1.16,1.72,3.79,2.47,4.23.62.37,2.19-.78,2.99.4,1.41,2.09,3.23,9.83,4.43,12.44,1.1,2.39,3.19,4.23,3.57,6.96,1.96.8,1.81-3.11,4.12-1.61.41.27,3.23,7.84,3.45,9.18,1.35.09,1.22-4.9,3.35-3.35.74.54,1.86,13.62,2.54,14.3,2.26,2.23,1.45-4.96,2.07-5.91,3.95-6.14,2.53,11.23,2.97,11.8,1.84,2.37,1.64-4.98,3.79-2.53.97,2.21.82,4.44.41,6.74,2.47.65,1.72-2.21,3.36-3,1.23-.59,2.88.78,3.32.48.65-4.51,8.28-12.92,7.19-16.77-1.37-4.84-24.83-16.22-30.26-21.1-2.65-2.38-4.4-5.45-7.16-7.98-2.33-2.14-5.6-3.22-7.56-5.88,1.31-1.92,1.85-.78,3.26.08,5.49,3.38,8.23,8.36,12.51,12.12,6.57,5.76,29.17,16.02,31.74,22.76.41,1.08.44,1.36.08,2.48-1.21,3.79-8.7,12.98-8.74,16.55-.04,3.17,11.39,14,9.91,15.4l-10.92-2.52c-1.46,6.8-3.42,13.56-2.59,20.65.42,3.57,9.21,1.7,11.87,5.82,1.09,1.69,3.27,11.28,3.24,13.41-.14,8.69-5.77,12.91-14.21,12.29.34-9.15,5.04-14.97,1.97-24.26-2.13-6.45-8.92-4.27-12.54-8.5-1.97-2.3-3.66-9.01-.37-10.99-2.36,6.01,1.39,11.54,7.57,12.62,1.15-4.23.39-8.71.93-12.95.6-4.63,4.77-10.21-.49-13.19-1.22-.69-2.7.37-3.38-.73-.53-.85-.27-2.36-.89-3.37-1.29-2.09-5.63-6.34-7.34-8.64-2.26-3.04,0-5.05-4.81-3.19.57-2.03.3-5.35-.91-7.09-.98-1.4-2.74-1.28-3.72-2.16-5.61-5.06-8.9-16.91-13.05-23.55l-2.11,2.56-2.49-.89-5.49-15.97c-1.08-.97-13.19,4.63-15.61,5-5.29.81-11.97-.43-17.55.12-4.91.48-17.06,4.33-21.14,4.06-1.26-.08-2.12-1.43-3.37-1.57-3.86-.43-7.69.66-11.31-1.71l-.85,11.77,5.48-.82.41,1.66c-7.49-1.13-10.06,4.72-2.05,5.84,7.81,1.09,20.75-2.42,26.44-7.95-9.02-3.06-18.5.1-27.75-.42l2.1-2.51c6.24.54,12.3-1.29,18.53-.87,2.42.16,7.59,1.93,9.06,1.58,1.38-.33,2.14-2.6,3.7-3.06,1.71-.5,13.26-3.56,14.13-3.56.6,0,10,1.94,10.5,2.14,7.1,2.95.84,8.18.19,11.1-.69,3.1.83,11.64-2.68,13.34-1.11.54-3.31-1.77-4.75-1.91-1.84-.18-3.65.98-6.43.42-5.09-1.02-12.85-5.79-18.78-6.49-4.49-.53-13.02.58-16.32,3.73-2.14,2.05-4.39,6.83-5.92,8.38-1.14,1.15-3.67,1.4-4.98,2.59-3.93,3.56-4.49,13.65-5.08,18.89,1.52,1.99,4.86-8.47,7.58-5.45-.19,4.3-6.22,18.37-4.65,21.45.18.35.99,1.03,1.27.83.82-2.95,5.74-13.53,8.39-13.91.85-.12,1.63.29,1.72.89.63,4.28-9.42,21.39-9.25,27.32,2.55.95,2.03-3.01,2.54-3.36.27-.18,4.64,1.18,6.28-.01,1.7.14-1.81,9.8-2.36,10.69-.89,1.43-6.35,5.62-6.91,7.01-.6,1.48.91,3.49.44,4.16-.41.58-11.21,3.36-12.6,6.34,4.17,2.01.85,3.22-.26,4.83-3.38,4.9-10.39,16.03-11.19,21.66-.27,1.95.55,3.15.42,4.54-.54,5.84-2.71,17.56-1.65,22.76.2.97,2.11-.12,2.61,1,.95,2.11.52,6.76,1.36,9.42,1.02,3.22,4.8,7.45,5.94,11.72,1.97,7.35.44,14.59,1.08,22.06l3.35-1.68c2,2.24-2.12,11.36-1.67,11.77,1.67,1.55,6.25-5.37,8.4-3.36,1.54,1.44-5.87,9.75-3.84,12.65.82,1.17,6.02,1.3,5.47,3.67-.63,2.7-6.88,6.27-6.76,13.55.05,3.31,2.11,4.08,2.56,6.75.64,3.78-1.12,8.12-.67,10.7.31,1.76,2.91,4.35,3.84,6.33,3.31,7.09,3.34,10.39.65,17.83-.88,2.43-3.34,4.89-3.59,7.35-.25,2.5,4.37,17.58,1.08,17.88l-4.63-3.33c1.13,2.47,3.39,18.31,2.52,19.34l-3.35-.84c-.49,2.76,3.68,21.81.41,21.85-.49,0-2.27-2.39-2.12-3.35-3.23,1.24.14,5.43.64,8.21.43,2.4,2.32,14.42,1.05,15.35l-3.35-.84c-1.05,1.3,3.52,9.37-.42,8.41-1.27-.31-4.16-7.52-5.06-7.55l-4.2,7.53c-1.57-.11-2.07-2.31-2.22-2.38-1.62-.69-12.64,7.87-13.35,10.8,1.48-.56,5.88.63,5.87,2.11,0,.71-9.08,8.5-10.5,9.68-9.39,7.79-23.17,13.69-26.13,26.87-1.61,7.17-.33,4.77,2.95,6.38.86.42,1.51,1.85,2.26,2.03s10.21-8,13.77-5.83c.94.79-3.1,4.49-3.78,5.05-1.34,1.1-9.13,4.59-6.61,5.89,1.16.6,3.51.29,4.48,2.1-5.15,9.31-16.23,18.23-8.39,29.46,2.93,4.2,7.79,5.57,11.78,8.42,1.39,2.85-6.34-.57-6.72.83.89,1.55,8.07,5.41,7.56,6.72-1.1,2.84-3.76-.67-5.9-.08-1.12.31-2.92,1.83-3.34,3.03l15.98,2.54c1.48,1.38-3.83,3.36-4.62,3.36h-13.04c2.24,2.06,6.13,3.67,8.95,4.93,2.52,1.13,9.2,4.47,10.98,5,5.01,1.49,14.51-.87,17.49,5.21,3.48-4.24,11.22-19.34,17.47-18.37,1.33.21,2.65,1.65,3.95,1.99,5.23,1.39,6.64-1.16,10.93-1.74,2.44-.33,7.15.57,9.46-.4.62-.26,7.48-10.01,7.82-10.97,1.2-3.38-1.38-3.75-1.27-6.18.09-1.88,4.1-9.4,3.86-10.65-.41-2.14-9.12-13.46-10.9-16.86-3.39-6.47-8.1-18.7-9.55-25.78-.9-4.38-.38-9.2-1.64-13.52-2.3-7.9-9.24-14.98-7.82-24.55,1.21-.22,1.09,1.59,1.27,2.49,1.56,7.83,2.54,10.95,6.43,17.98.73,1.31,2.85,2.57,3.03,3.6.15.88-.67,2.1-.55,3.17,2.14,18.48,8.68,35.74,20.52,50.15,4.14-5.33,5.02-11.83,7.58-17.65,4.41-10.03,9.44-20.51,13.79-30.13,3.06-6.77,1.06-7.98-.76-14.47l3.37,3.36c1.4-.24,1.52-1.64,1.91-2.71.69-1.89,5.36-19.37,5.34-20.43-.02-.96-1.28-2.06-1.36-3.4-.21-3.53,1.4-4.69-.68-9.4-2.21-5.03-3.72-4.57-8.59-3.61-.18-1.92,1.93-2.44,1.73-4.58-.16-1.74-2.35-2.76-3.21-4.46-4.68-9.27-7.22-19.65-6.1-30.08.62-5.71,6.33-12.67,8.86-18.06,4.71-10.03,10.63-23.91,11.35-34.94.16-2.54-.96-.3-2.04-.51-3.72-.73,1.18-4.08,1.6-4.97.99-2.14-.02-6.9-1.01-9.03-2.27-4.93-3.48-9.67-5.72-15.34-3.95-9.98-9.04-19.39-15.08-27.86-.6-.84-.37-2.32-.48-2.45-.35-.42-4.62,2.74-5.87,2.53-.51-.54-.53-7.38-.98-8.72-.39-1.17-2.18-1.07-2.41-1.95-.58-2.22.45-6.15.01-8.66-.85-.36-1.67,1.96-1.67,2.1v17.67c0,4.7-1.94,5.75-3.16,9.46-2.1,6.35-12.62,37-10.12,41.27.22.38,6.06,3.5,7.42,4.76,10.18,9.37,13.23,22.48,11.51,35.97-1,7.81-7.2,20.02-7.36,27.2-.11,4.71,2.07,11.75,2.55,16.79.72,7.51.94,15.1,1.79,22.61.29,2.56,2.82,8.47.74,10.2-1.18.99-4.82,1.93-5.89,0,2.57-.9,4.17.16,4.27-3.36l-5.71-48.69c3.15-11.28,9.29-24.4,8.07-36.2-1.33-12.89-9.28-23.32-20.85-28.75,1.68-6.82,2.72-13.76,4.52-20.56,3.07-11.58,9.7-24.93,10.56-36.55,1.6-21.6,5.44-42.23,5.89-64.01.33-16.08,1.91-43.71-3.84-58.41-.78-1.99-6.2-9.29-5.44-10.11,1.04-1.12,2.26,1.5,2.69,1.93,13.02,13.41,7.8,58,8.18,76.78.05,2.42,1.46,3.45,1.52,4.81.21,4.72-2.1,10.79-1.45,15.75,3.41-2.24,3.58-11.03,5.48-13.44,1.25-1.58,1.93-.86,2.87.44l-5.55,24.37,2.23,2.09c.46-4.11,2.83-13.53,5.86-16.27,5.36-4.84.3,10.47.89,11.22.1.13,3.12-1.4,3.36.44.21,1.56-4.42,8.53-3.36,11.33,1.75-.49,4.36-9.04,6.72-6.72,1.35,1.33-3.82,14.83-3.36,17.66,2.04,2.04,8.03-8.24,10.64-9.12,4.27-1.44.34,4.89,1.14,5.76l4.2-.83c.53,2.22-1.6,3.37-2.11,5.03-.45,1.45-2.74,10.69-2.75,11.52-.02,1.15,1.45,2.23,1.55,4.01.44,7.73-.39,15.5-.88,23.17l7.21-12.55c5.95-6.8,1.58,8.63,2.04,9.18,2.01.73,2.04-2.61,3.78-2.5,3.35.21-2.39,12.79-3.17,14.48s-6.49,9.85-5.65,10.74c2.53-.56,10.84-6.65,10.93-2.15.06,2.95-3.86,2.97.84,5.1l-7.55,6.72c5.51,3.7,2.36,2.32,1.68,5.93-.93,4.9,2.82,8.73,3.36,12.58.5,3.49-4.33-.46-4.64-2.09-4.9,3.86,1.45,13.11.37,17.16-.24.89-1.31,1.77-2.07.51-.89-1.47-1.74-8.95-2.09-9.27-2.53-.2-3.15,2.66-3.37,4.6-.29,2.51,1.79,10.45-1.24,9.69l-2.94-3.36c-3.62,3.96,2.82,14.77,2.52,16.38-1.06,5.53-5.75-5.45-6.31-5.43-5.56,3.39-.12,8.45-.41,9.64-.2.81-2.18,1.03-2.41,1.41-1,1.66,4.01,9.27,3.24,9.97-3.66.67-5.74-3.15-9.24-3.36-.74.81,1.58,7.03,2.11,8.39s5.05,10.51,5.55,10.86c1.08.77,4.56-1.7,6.65.48,1.5,1.56.54,4.34.83,4.66.59.63,6.96-.42,8.42-.48,1.19-.04,1.52-.63,2.51.91-2.11,5.32-13.52,8.44-9.02,15.32,1.1,1.68,11.5,4.13,7.34,7.41-1.02.8-3.11-1.69-2.54.83.59,2.66,5.36,6.2,5.91,10.09.18,1.25.01,1.51-1.28,1.27-3.23-.58-5.19-6-7.97-7.59.4,3.58,7.13,25.7,5.88,26.92-2.5,2.42-7.06-9.28-9.24-10.09l2.51,12.18c-1.15,2.73-4.66-2.67-4.2.84.42,3.2,5.36,12.81,5.05,14.3-.82,3.98-7.49-4.59-7.99-4.59-5.22-.06,4.09,21.58,2.94,22.69-.98-.08-1.82.46-2.58-.52-.85-1.09-4.65-8.71-5.41-8.71-.93.96-2.62,3.39-2.62,4.61,0,2.85,7.21,11.38-2,6.31,1.27,2.91-.31,6.56-.04,8.79.22,1.86,2.53,3.05,2.54,3.41.1,3.27-5.47-.78-5.85-.88-1.45-.38-4.15.32-5.91-.38-.43.32,5.28,8.14,5.88,8.86.85,1.02,2.44,1.14,2.52,1.25.53.73-4.82,7.12-1.3,11.81,1.17,1.56,3.33,2.35,4.68,3.74-1.59,5.4-5.52-3.08-9.25-2.11-1.32,1.22,7.87,11.04,3.78,10.92l-6.3-7.55,10.1,22.71,4.19-1.68-4.2,14.29c4.05.62,7.08-2.55,10.52-4.18,1.87,6.26,4.56,1.58,9.07,2.51.3.06,2.6,3.18,4.77,3.81,10.62,3.12,10.09-8.6,16.65-11.17,5.92-2.32,10.82-1.24,16.52-1.99,9.09-1.18,18.71-2.24,26.83-5.97,4.27-1.96,14.8-2.39,19.53-1.52,2.05.38,2.01,2.07,3.35,3.36,2.33-2.46,2.59-3.03-.14-4.89-4.8-3.27-12.87-7.44-18.2-10.4-7.82-4.35-19.94-6.54-21.4-16.46-3.19-21.81,15.6-43.02,12.18-64.34-.92-5.74-4.35-13.28-4.87-18.68-1.81-18.8,1.82-37.22,3.41-55.56,1.11-12.82.26-25.8,1.44-38.61-.16-1.41-1.39-2.49-2.27-3.49-9.06-10.32-21.66-17.4-28.39-30.49-3.37-6.56-4.25-15.21-10.32-19.97,1.61-1.37,2.53,1.61,3.96,1.96,1.05.26,2.37-.6,3.65-.33,3.97.84,4.48,4.18,6.51-.96.74-1.87,3-10.01,2.57-11.43-.81-2.66-14.97-9.26-17.97-12.35-3.72-3.83.75-3.22,2.5-5.1,8.24-8.83,12.15-25.63,10.44-37.29-1.64-11.17-5.73-14.55-9.86-23.79-7.77-17.39-15.73-39.81-20.91-58.16-3.9-13.82-5.56-29.88-9.7-43.3-.42-1.37-3.18-4.71-2.31-5.68,1.45-1.6,3.72,4.12,3.97,4.86,4.32,12.82,5.77,29.25,9.53,42.63,5.05,17.96,13.73,43.98,21.93,60.52,5.45,11.01,9.25,13.07,10.02,26.99.78,13.89-5.45,26.18-13.49,37.02,3.8,4.27,18.42,9.27,18.56,15.14.02.76-3.42,14.11-3.83,14.76-1.35,2.15-6.36-3.23-8.84-2.53,1.96,14.03,10.71,24.95,20.58,34.51,2.87,2.78,15.04,11.94,15.57,14.72.82,4.28-.77,8.63-.86,12.57-.63,27.24-6.38,58.6-3.26,84.94,1.04,8.82,5.63,16.25,4.96,26.14-.97,14.34-19.99,48.41-10.56,60.23.85,1.07,4.99,3.69,6.42,4.51,10.09,5.81,22.03,10.59,32.17,16.62,2.73,1.63.54,5.19-1.16,6.92-3.91,4-19.79,6.76-25.61,7.2-9.75.75-18.55-.63-28.17,2.03-9.63,2.67-31.33,16.92-38.22,16.47-.87-.06-15.67-4.67-16.73-5.2-2.06-1.03-.2-3.18-4.77-1.52,1.88-5.07-.48-5.36-1.47-8.21-1.73-5-7.01-28.42-9.43-30.13-1.61-1.13-14.95,2.64-18.03,1.27-.24,4.15-5.05,10.78-5.33,14.06-.37,4.21,8.05,15.22,7,19.64-1.07,4.45-4.76,5.4-8.54,6.68-5.04,1.72-43.3,10.11-44.95,8.46l3.37-17.66c-2.11-1.41-6.8.76-7.17.74-.42-.03-3.63-3.99-6.37-5.29-6.52-3.1-10.02-5.68-15.68-8.71-2.19-1.17-7.09-1.63-8.69-3.14-1.25-1.17.18-2.53-.34-3.76-.68-1.61-3.58-2.23-3.82-3.14-1.64-6.08,1.45-16.3,1.73-22.51.62-13.68-.4-27.43-.86-41.08-9.46-6.25-.17-5.51.92-6.98.97-1.31.59-5.15,1.13-7.11,7.53-27.24,28.57-35.29,45.05-54.22,1.07-1.23,8.7-11.45,8.92-12.17.66-2.17-1.05-6.16-.47-6.73.28-.27,2.01.56,2.52-.57,3.34-7.47-2.54-21.79-2.49-30.03.06-10.4,6.21-21.2,7.44-30.49,1.13-8.54-1.11-17.8-.76-26,.24-5.77,1.97-21.43,3.6-26.68.66-2.13,4.05-4.29,1.06-6.62-1.02-.79-2.89-.67-2.99-.78-.81-.86,2.21-2.85,1.69-4.6-.38-1.26-2.93-1.03-3.24-1.39-.43-.5.13-3.8-.73-5.6-.7-1.46-2.73-1.76-2.78-2.35-.12-1.42,1.45-6.13,1.53-8.34.05-1.44-.76-3.22-.75-5.05.02-3.13,2.47-7.32-.75-8.83.13,1.68-.09,10.3-.87,10.93-.24.19-1.81-.11-2.51,0-.91-5.34,1.24-15.05,0-19.77ZM156.36,6.58c-1.89-.31-3.53.75-4.21,2.51,1.5.09,3.59-.94,4.21-2.51ZM153.83,15.82c2.46-3.26-10.39,1.11-11.22,1.62-.69.42-2.62,4.64-2.23,5.12l13.45-6.74ZM118.51,39.39c-1.56.09-7.16-.68-7.57,1.27,2.04,4.07,8.92,5.02,13.04,4.62,5.72-.56,9.77-3.28,1.93-5.32-5.44-1.42-4.09,2.45-8.25,1.1l.85-1.67ZM109.24,57.89l-.1-6.21-1.57-6.41c-1.77,3.25-.98,6.17,0,9.67.32,1.15-.05,2.62,1.67,2.95ZM101.68,65.46v11.78l1.62-1.19-1.62-10.59ZM156.22,77.41c-3.33-1.9-4.68,6.71-3.9,9.33,1.01,3.39,4.06,1.38,6.57,1.44-.56-2.3-.83-9.71-2.67-10.76ZM112.61,93.22c1.5-1.69-4.61-7.3-6.72-6.72-.98.94,5.84,7.71,6.72,6.72ZM117.66,103.33c-1.34-1.35-3.34,2.64-2.51,4.2.45.63,3.23-3.47,2.51-4.2ZM174.02,150.42c-1.88-3.61-4.6-4.46-7.57-1.25l7.57,1.25ZM187.47,158.01c-.12-.1-1.77-.31-1.68.43l2.53,9.66c1.27-2.33,1.07-8.51-.85-10.08ZM78.97,243.81c1.41.27,1.76-.31,2.32-1.46,1.44-2.98,2.58-9.93,3.35-13.48.46-2.1.87-4.77,1.33-7.08,3.13-15.76,5.45-31.65,4.77-47.8l-9.63,22.75c-5.21,10.05-11.19,19.47-17.28,28.99.49,1.18,1.59.05,2.27-.26,2.84-1.29,7.6-4.13,10.31-4.85,1.07-.29,1.32-.69,2.16.47l.41,22.72ZM105.04,184.07l-8.41-8.4c2.17,3.74,2.81,9.03,8.41,8.4ZM92.43,185.77c2.15-.65,1.69-3.2,1.67-5.05-2.15.65-1.69,3.2-1.67,5.05ZM198.41,214.37c.53-.55-4.01-6.81-3.78-8.4-3.33,1.34,2.08,10.18,3.78,8.4ZM211.87,235.4c.56-.56-4.77-6.88-5.45-7.58-6.06-6.29.7,5.84-.43,8.43,2.48-2.92,2.36-3.53,5.87-.84ZM83.18,242.97c3.66-3.08,7.92-6.94,10.42-11.02.46-.75,2.17-2.97.07-3.28-2.33-.34-3.75,7.21-7.97,2.52l-2.52,11.78ZM209.34,243.81c.22-.19.95-3.44.85-4.2-2.65.64-3.2,6.19-.85,4.2ZM206.83,249.7l4.19-4.2c-2.01,1.36-5.02.91-4.19,4.2ZM87.38,249.71h-2.52s0,1.67,0,1.67c1.16.26,2.24-.45,2.52-1.67ZM65.52,260.64c1.76-.68,2.81-2.31,2.51-4.21-1.76.68-2.81,2.31-2.51,4.21ZM204.25,257.02l-1.95.4,1.08,5.25,1.95-.4-1.08-5.25ZM91.59,260.65c-1.23,1.6,4.84,2.32,4.2-1.69-.77.81-4.06,1.51-4.2,1.69ZM200.94,264l-.41-2.52c-.89.77-1.53,1.28-1.26,2.52h1.67ZM70.55,265.7c-.16-.19-3.52-1.49-4.19-2.54-.54,2.63,1.58,3.83,3.77,4.22.74.09.52-1.57.43-1.68ZM89.06,263.17c-1.57-.22-2.91,0-3.36,1.67h3.36s0-1.67,0-1.67ZM77.28,264.01c-.83.13-3.1-.23-3.36,0-1.54,1.35,3.7,4.18,3.36,0ZM107.56,264.01l-8.4,2.1c2.97,3.39,7.52,2.56,8.4-2.1ZM96.63,268.22c-.35-.36-3.7-.9-4.58-.89-.84.01-4.59.43-4.66,1.71,2.55.77,5.33,1.21,8,.85,1.16-.16,2.45-.43,1.24-1.67ZM200.1,267.37c-1.27-1.27-3.59,2.5-1.26,2.5.56,0,1.74-2.02,1.26-2.5ZM203.46,272.41c.22-1.57,0-2.91-1.67-3.36v3.36s1.67,0,1.67,0ZM196.73,271.58c-2.04-.55-4.87,5.15-4.2,5.88,2.89-.2,4.72-3.2,4.2-5.88ZM121.86,279.14c.03-3.25-4.57-3.19-6.72-2.51,1.06,1.93,4.72,2.61,6.72,2.51ZM105.89,277.47c-1.47.2-5.33-.06-5.88,1.67,2-.04,5.04.72,5.88-1.67ZM200.1,282.51c.19-1.94-.66-3.78-2.1-5.03l-3.78,2.52c.14,1.42,5.48,2.91,5.88,2.51ZM20.08,283.35l-6.73-5.03c-.32.3,4.78,6.18,6.73,5.03ZM115.97,280c-2.54-.69-4.01-2.21-6.72-.84.27,1.69,6.23,2.67,6.72.84ZM114.3,283.36c-2.57.61-9.56-3.52-10.93-.42,4.32,1.88,2.85,3.81,8.11,2.22,1.12-.34,2.56-.3,2.82-1.79ZM136.17,281.68c-2.53-1.07-5.09,3.15-5.51,3.24-.82.17-2.13-.81-3.27-.7-4.47.42-5.08,4.58-6.03,4.93-1.71.62-5.44-.95-6.21.93,4.15,1.16,8.36.21,12.64.52,1.78-.16,8.87-8.53,8.39-8.91ZM124.39,282.52c-6.37-1-4.14,1.05-5.21,2.29-.66.76-3.02.08-3.19,1.9,2.11-.44,4.81-1.23,6.74-2.13,1.26-.58,2.08.12,1.67-2.07ZM194.21,285.05c-1.2.58-4.15-4.09-5.03-1.26-.57,1.84,4.87,3.05,5.03,1.26ZM98.31,287.55c-.77-2.04-2.06-2.25-3.36-.41l3.36.41ZM133.65,295.12c5.6-.06,12.59,1.55,15.13-5.04l-15.13,5.04ZM158.88,290.09c-4.19-.48-7.95.21-10.09,4.19,2.18-.39,4.66-1.26,6.7-2.12,1.01-.43,3.36-.86,3.39-2.07ZM52.88,295.14c-4.55-1.54-8.32-4.24-13.45-3.37l10.71,4,2.74-.64ZM178.22,294.3c-6.32-.09-12.35,1.64-18.5,2.93l12.12.35c1.82-.26,5.44-1.54,6.38-3.29ZM154.34,295.29l-8.45,4.12.7,1.43,8.45-4.12-.7-1.43ZM137.01,297.66l-7.84-.53-6.45,1.36,5.43.88,8.87-1.7ZM41.94,305.22c.05-1.84.47-4.39-1.67-5.04-.55,1.24,1.11,6.23,1.67,5.04ZM173.18,305.23c-2.72-1.73-16.81,2.88-16.81,4.62,4.3,3.67,11-.09,15.15-2.53,1.09-.64,2.11.15,1.66-2.09ZM178.23,307.75c-1.76-1.72-12.41,4.58-13.66,6.98-.51.98-.54,3.01-.66,3.11-1.77,1.5-3.33-1.14-2.52-3.36-.85.76-3.07.68-3.32.89-.13.11,1.59,3.44-.45,3.3-.21-.01-3.21-2.28-3.38-2.49-1.67-1.98,1.31-1.61,1.32-2.17.02-.94-1.19-2.45-.9-3.73l-5.04,5.88c2.61-.65,2.54,1.36,3.9,2.38,6.52,4.89,12.8,5.36,20.77,6.09,3.51-4.9,4.12-10.99,3.93-16.87ZM115.99,312.8c1.67-.45,1.89-1.8,1.67-3.36-1.67.45-1.89,1.8-1.67,3.36ZM146.18,317.43l-5.99,1.07.21,1.16,5.99-1.07-.21-1.16ZM121.02,320.38c-3.61-3.38-7.49,2.57,0,.82-.04-.27.12-.71,0-.82ZM129.44,322.9c-5.96.74-11.88,4.13-11.77,10.92,1.7.44,1.96-.96,2.84-1.78,3.09-2.86,6.3-5.84,8.93-9.14ZM45.31,336.35c-.45-4.07,1.6-10.05-2.51-12.61.28,3.61.32,7.81.85,11.36.22,1.46-.43,1.41,1.66,1.26ZM115.15,331.31c1.62-.41,1.89-1.86,1.67-3.36-.41-.87-2.01,2.27-1.67,3.36ZM244.68,363.27l-6.31-9.23c-3.19,2.64.34,2.39.47,3.03.74,3.64-3.86,5.4,5.84,6.2ZM116.81,364.95l1.68-9.25c-1.6.51-2.19,2.37-2.46,3.84-.17.92-.74,5.27.78,5.41ZM123.63,365.66l-5.56,14.27,1.25.49,5.56-14.27-1.25-.49ZM57.09,380.95c-1.98-2.01-13.05,12.71-13.33,14.08-.65,3.18,2.95,3.22,3.23,3.62.38.54-7.34,8.91-2.08,11.73l6.45-12.03c1.96-2.29,1.37-6.31,1.98-8.09.84-2.47,4.06-5.78,3.75-9.31ZM122.71,391.03c1.24,1.39,4.62-4.68,4.19-5.88-1.32.44-5.42,4.5-4.19,5.88ZM238.8,412.91c4.39.54,8.93-3.71,9.29-7.99.18-2.12-1.21-12.27-2.18-13.84s-6.58-4.02-6.12-1.47c.46,2.57,2.06,7.18,2.09,9.27.03,2.31-3.83,13.34-3.09,14.04ZM106.73,407.85c.82.73,9.09-6.1,10.11-7.13.89-.9,1.98-1.46,1.66-2.96-6.15.92-9,4.97-11.77,10.09ZM105.04,414.6c-1.4-1.28-5.04,4.15-4.2,5.88l4.2-5.88ZM97.37,422.06c.26-.22.93-4.06.93-4.94l-4.19,4.63c.25.78,2.99.53,3.26.31ZM94.95,424.69c-10.24,1.1-6.33,15.57-5.88,22.71l5.88-22.71ZM93.26,460.86v-4.2c-1.15-.57-2.02,3.83-1.67,4.2h1.67ZM160.56,491.99l1.68-14.3c-2.46,1.7-3.17,7.64-3.34,10.53-.1,1.72-.88,4.43,1.66,3.76ZM155.51,502.92c-.42-3.29,1.18-6.39.9-9.67-.12-1.39-1.03-4.89-2.56-5.46-2.32,4.04.67,4.17.82,4.77.45,1.81-.07,5.24.01,7.43.04,1.02-.63,3.13.83,2.93ZM165.6,500.4l1.68-7.56c-1.28.48-2.53,4.11-2.78,5.25-.29,1.36-.71,1.75,1.1,2.31ZM158.87,502.92v-4.2h-.82v4.2h.82ZM170.66,506.28c3.19.57,4.26-2.43,4.2-5.04l-4.2,5.04ZM170.65,512.18c2.61-2.17-4.05-7.59-1.67,0,.52-.05,1.51.13,1.67,0ZM163.08,509.66h-1.67c-.2,1.55-.03,2.45,1.26,3.36l.41-3.36ZM106.72,514.7l-.41-3.36c-1.29.91-1.46,1.81-1.26,3.36h1.67ZM171.51,518.07c2.15-1.1,2.97-4.52,3.35-6.73-2.2,1.37-3.66,4.13-3.35,6.73ZM169.81,523.12h-1.67c-.2,1.55-.03,2.45,1.26,3.36l.41-3.36ZM176.55,524.8v13.46l1.57-12.27-1.57-1.19ZM173.18,529h-2.52s1.69,5.05,1.69,5.05l.83-5.05ZM180.76,556.77c1.46-.25,1.48-1.69,1.81-2.81,1.64-5.6,2.68-12.46,4.06-18.22-5.14,4.47-7.63,14.58-5.87,21.03ZM110.93,550.88c-2.2-.19-1.39-.11-1.65,1.26-.5,2.66-2.21,15.08-.86,16.4,1.27,1.23,1.5-.1,1.66-1.25.69-5.15.61-11.18.85-16.41ZM190,562.66c-5.27,1.29-8.58,3.31-8.4,9.25,1.15,1.29,9.47-8.22,8.4-9.25ZM111.78,589.57c2,2.41,5.02-9.37,5.07-10.55.19-4.56-2.03-8.06-3.4-12.15-1.08-.24-1.41,1.61-1.46,2.3-.24,3.22.75,7.44.71,10.75-.04,3.24-1.42,6.35-.91,9.66ZM181.59,584.53c-.5-1.44-.05-5.31-1.67-5.88.04,1.62-.32,5.33,1.67,5.88ZM187.48,583.69c.52-1.41-2.27-6.89-4.2-5.04-.7.68,2.22,5.75,4.2,5.04ZM179.92,596.31c2.83-1.41,2.71-4.03.41-5.88l-.41,5.88ZM107.66,592.04l-1.16,6.61,1.13.2,1.16-6.61-1.13-.2ZM177.38,593.78c-1.44-1.82-3.36,4.67-3.32,5.51.11,2.24,4.25,5.84,4.2.83-.02-1.93-1.33-4.18-.88-6.35ZM112.61,598.83c-1.51-1.98-2.51,3.46-2.36,4.45.2,1.32,1.46,3.47,3.2,3.12-.32-1.23-.61-7.27-.84-7.57ZM175.7,604.73h-1.67s0,2.52,0,2.52c1.22-.28,1.93-1.36,1.67-2.52ZM169.82,608.1c-1.41-1.17-2.69,2.37-2.52,2.51,1.41,1.17,2.69-2.37,2.52-2.51ZM172.33,613.98v-5.04c-.49-1.06-3.27,4.44,0,5.04ZM110.09,623.23c.72-.7-1.13-11.67-2.09-13.46-4.71,4.54.98,8.85-1.27,13.45h3.36ZM161.41,627.43c6.56-.57,4.78-9.46,5.03-14.29l-3.77,5.89-1.26,8.4ZM103.35,620.71l-.41-5.04c-1.86,1.39-1.9,4.22.41,5.04ZM103.35,629.96c-.06-1.62.32-5.33-1.67-5.88.04,2-.72,5.04,1.67,5.88ZM166.41,629.14c-.29-.22-3.99.55-4.46.82-3.25,1.87,4.49,5.43,6.18,5.04-.17-.97-1.47-5.68-1.72-5.86ZM105.05,640.06l1.67-6.73c-2.2.86-1.58,4.85-1.67,6.73ZM105.88,652.68c-5.93,1.77-2.79,8.13-.4,11.78.65.99-.2,2.17,2.08,1.67l-1.68-13.45ZM101.67,666.13c.09-1.57.25-3.7-1.67-4.21-.09,1.57-.25,3.7,1.67,4.21ZM184.12,663.62h-5.89s.85,5.04.85,5.04c1.58,1.12,5.36-4.8,5.04-5.04ZM179.07,685.48c-1.13-1.49-1.46.31-1.77,1.17-.59,1.66-4.24,15.99-4.12,16.85.14.98,1.63,4.58,3.37,3.85.89-1.13-3.84-10.85,1.24-9.28.95.3,5.08,11.3,7.18,9.27-1.41-5.99-3.77-11.74-5.51-17.62-.37-1.24-.25-4.08-.38-4.25ZM74.4,686.77l-7.54,6.74,1.05,1.17,7.54-6.74-1.05-1.17ZM81.49,688.01l-4.67.79-10.46,10.98c1.88-.12,17.3-9.97,15.13-11.77ZM61.31,700.63c1.37-.61,2.78-1.85,2.51-3.36-1.37.61-2.78,1.85-2.51,3.36ZM58.98,701.9l-4.97,7.61,1.21.79,4.97-7.61-1.21-.79ZM168.97,729.22c-1-4.99,5.59-8.27,5.58-11.35,0-1.15-2.7-7.25-3.47-8.83-2.82,5.43-3.01,11.16-2.95,17.24,0,.98-.58,3.15.85,2.94ZM177.38,727.55c-.08-.92.21-2.09-.03-2.91-.87-2.9-4.77.87.03,2.91ZM162.98,746.78l-.09-5.16-2.31-8.18c-1.23,3.71-10.45,22.04-8.88,24.41.43.65,1.58,1.2,2.12.82.24-.17,2.96-4.74,3.05-5.02.66-2.13-1.03-6.24-.5-6.75s5.26,1.38,6.62-.12ZM172.33,741.85c-.05-1.4.08-4.78-1.66-5.04-.83,2.02-.55,4.12,1.66,5.04ZM53.74,740.17l-1.32,4.67,1.29.36,1.32-4.67-1.29-.36ZM58.77,740.17c-1.52-1.54-2.46,2.72-2.51,4.2.5.63,3.21-3.5,2.51-4.2ZM47.01,756.15c3.96-2.37,2.16-7.93,2.51-11.77l-2.51,11.77ZM158.46,756.17c-.67.8-2.37,1.74-2.1,2.9.6,2.61,8.53,3.31,2.1-2.9ZM153.83,767.93l-5.03-6.73c-.96,1.96,4.29,7.47,5.03,6.73ZM158.06,781.39c4.39-2.58-.23-3.8-1.74-5.43-2.2-2.37-3.64-5.58-6.68-7.19l8.42,12.62ZM153.83,779.7c-.91-2.51-3.72-5.48-5.54-7.49-2.49-2.74-3.92-2.1-3.06,1.34,1.07,4.3,2.71,2.01,5.25,3.19,1.72.79.84,3.6,3.34,2.96ZM47.84,773.82v14.3c1.22.19,1.18-1.48,1.43-2.35,1.05-3.74,4.28-12.57-1.43-11.95ZM54.58,784.75l4.18-2.94c-3.51-4.38-4.1-1.08-4.18,2.94ZM146.25,782.23c-1.35-1.02-6.55,7.48-6.64,8.09-.56,3.38,8.86.3,9.15-1,.08-.37-2.2-6.87-2.5-7.09ZM46.16,787.28c-2.71-.62-1.96,4.46-2.51,5.88l2.51-5.88ZM61.3,790.65l-7.56-.84c.52,1.84,6.72,2.64,7.56.84ZM113.46,795.68c-3.74-6.6-9.5,2.66-11.97,6.13-1.69,2.38-3.63,5.53-4.85,8.18,5-5.38,10.08-10.99,16.82-14.32ZM129.44,794.01c-11.82-.89-21.6,6.75-29.06,15.1-3.75,4.19-7.45,12.26-10.57,15.53-1.22,1.28-2.58,1.1-3.32,1.92-1.94,2.15-2.21,10.51-3.31,13.72,1.55,1.48,26.55-3.48,30.47-4.43,2.2-.54,15.82-4.39,16.44-5.01,5.47-5.51-5.02-17.4-5.5-23.08-.23-2.73,6.07-9.75,4.85-13.73ZM61.3,799.07l-10.09-3.37c.33,4.01,3.53,3.92,7.17,4.19.93.07,3.13.62,2.92-.82ZM64.67,807.46c-.65-2.13-3.2-1.72-5.04-1.67v.82s5.04.84,5.04.84ZM73.08,807.48c.91.9,5.87,5.61,6.3,5.65.74.06,7.02-3.81,7.16-4.4.81-3.31-3.43-.46-4.58-.36-3.16.26-5.85-.42-8.88-.88ZM90.74,808.32l-5.89,6.3-1.68,2.94c1.17,1.22,8.58-6.89,7.56-9.24ZM249.74,812.51c7.22-1.8,9.26-2.29,16.46-.88.58.11,2.9,1.56,2.86-.37-.05-2.63-12.88-1.45-15.16-.87-1.04.27-4.03.87-4.17,2.13ZM161.41,818.41c3.02-1.58,2.89-4.67.41-6.73l-.41,6.73ZM264.03,813.37c-4.96-.86-9.7.2-14.3,2.09,3.14,2.3,11.56.46,14.3-2.09ZM248.89,815.89c-3.01-.63-5.7-1.06-8.83-.85-.96.06-3.78.27-3.78,1.68,2.42-.58,5.02.67,7.14.68.85,0,5.23-.38,5.46-1.5ZM227.02,815.89c-5.94,1.67-14.95.32-20.11,3.85-2.74,1.87-2.08,3.74,1.16,3.76,1.8,0,13.48-4.62,16.25-5.7,1.06-.41,2.47-.49,2.7-1.91ZM164.23,817.91l-1.87,5.13,1.38.5,1.87-5.13-1.38-.5ZM89.9,819.25c-1.22-1.29-2.74,1.91-2.51,3.36,1.14-.23,3.21-2.62,2.51-3.36ZM85.69,820.93c-.56-.52-2.94.19-3.35,1.27-1.11,2.92,5.06.32,3.35-1.27ZM187.48,832.72c-4.68,1.97-8.23-5.61-8.78-5.72-2.12-.43-7.44,3.83-8.92,2.8-.62-.43-.66-2.02-.82-2.13-.84-.6-4.34.87-.15,3.1,4.35,2.31,9.81,3.96,14.76,3.55.79-.07,3.99-.39,3.9-1.6ZM188.32,829.35l-5.03-2.53c-.72.96-.33,1.99,1.17,2.62.56.24,4.05,1.56,3.86-.09Z"/>
  <path d="M139.54,119.3c6.03-1.08,12.21,5.11,7.58,10.53-1.27,1.49-4.83,2.67-5.48,3.77-.79,1.34-.39,5.09-.99,7.42-1.59,6.2-12.18,16.61-12.05,4.36-.47-.56-6.96,5.09-10.73,1.47-4.18-4.01,5.43-13.58,8.19-16.25.75-.72,2.38-1.19,2.46-1.31.22-.31-1.02-4.42-.38-7.53,1.98-9.69,14.72-19.34,11.4-2.48ZM137.85,112.58c-2.48-2.55-8,9.32-8.22,11.54-.56,5.75,2.84,5.28,3.61,6.91.36.77-.73,2.32-.43,2.57,1.55,1.3,16.47-4.55,13.07-10.1-3.23-5.28-9.01,3.18-10.54,1.69-.59-.58,4.07-11.01,2.51-12.61ZM130.24,131.95c-2.7-2.49-11.34,8.87-10.85,12.1,3.63,5.84,11.22-6.91,12.56-5.4.37,3.37-1.84,6.81-.42,10.09,5.22-2.81,8.1-8.62,8.83-14.29-.6-.65-6.59,3.29-9.27.41-.93-1-.73-2.78-.86-2.91Z"/>
  <path d="M132.08,99.22c.22-.38,2.46-.5,2.4-1.78-6.13.2-9.77-2.54-4.66-7.64,1.07-1.07,2.87-1.51,2.97-1.65.69-.98-2.96-4.44-3.31-6.32-1.67-9.09,2.42-21.27,7.14-29.01,10.45,5.35,10.09,17.84,9.65,28.21-.09,2.04-1.51,3.99-1.52,5.2,0,.97-.03,6.09,0,6.44.1,1.16,1.63,2.25,1.51,4.28-.17,2.97-4.25,7.66-7.22,8.07-2.44.34-8.3-3.48-6.96-5.8ZM142.89,87.34c1.87-9.92,3.52-19.38-2.35-28.35-3.39-5.17-4.38-1.71-6.2,2.54-1.89,4.41-5.63,19.5-1.35,22.75,2.44,1.85,6.97,2.09,9.91,3.06ZM142.06,89.87c-4.73-1.91-11.46-.94-11.77,5.03,4.4.33,9.48-.92,11.77-5.03ZM142.89,94.07c-1.8-1.27-8.82,5.71-7.56,7.56,5.36,2.85,9.19-2.64,7.56-7.56Z"/>
  <path d="M274.91,832.78c.91,1.29-2.31,5.96-3.31,7.08-4.1,4.6-11.73,7.92-17.66,9.26-18.07,4.1-40.61-2.71-54.68-14.31.6-1.21,2.06.17,2.82.55,6.12,3.1,11.59,7.37,18.21,9.55,13.23,4.36,38.75,7.06,48.8-5.04,7.64-9.19-6.7-8.48-11.57-13.69-5.04-1.33-15.09.59-19.87-.24-.56-.1-.48-1.32-1.18-1.57-1.25-.46-4.17-.01-4.39-1.75l23.76,1c2.27,1.95,18.46,8.29,19.07,9.16Z"/>
  <path d="M220.29,346.45c1.25,1.59-2.91,2.97-3.36,2.52-.99-1.01,1.67-3.33,3.36-2.52Z"/>
  <path d="M210.19,790.65v1.67c-1.24.27-1.75-.37-2.52-1.26l2.52-.41Z"/>
</svg>